<?xml version="1.0" standalone="no"?>
<!DOCTYPE svg PUBLIC "-//W3C//DTD SVG 1.1//EN" "http://www.w3.org/Graphics/SVG/1.1/DTD/svg11.dtd" >
<svg>
<metadata>
Created by FontForge 20120731 at Mon Sep  9 04:48:15 2019
 By ffonts
</metadata>
<defs>
<font id="DinomikSemibold" horiz-adv-x="667" >
  <font-face 
    font-family="Dinomik Semibold"
    font-weight="600"
    font-stretch="normal"
    units-per-em="1000"
    panose-1="0 0 0 0 0 0 0 0 0 0"
    ascent="800"
    descent="-200"
    x-height="473.62"
    cap-height="726.021"
    bbox="-83.9993 -269.034 1017.01 981.258"
    underline-thickness="0"
    underline-position="0"
    unicode-range="U+000A-2212"
  />
<missing-glyph horiz-adv-x="527" 
d="M50 700h427v-700h-427v700zM78 680l185 -309l186 309h-371zM251 350l-180 300v-601zM264 329l-185 -308h370zM276 350l181 -303v605z" />
    <glyph glyph-name=".notdef" horiz-adv-x="527" 
d="M50 700h427v-700h-427v700zM78 680l185 -309l186 309h-371zM251 350l-180 300v-601zM264 329l-185 -308h370zM276 350l181 -303v605z" />
    <glyph glyph-name=".null" horiz-adv-x="0" 
 />
    <glyph glyph-name=".null" horiz-adv-x="0" 
 />
    <glyph glyph-name="controlLF" unicode="&#xa;" horiz-adv-x="0" 
 />
    <glyph glyph-name="controlCR" unicode="&#xd;" horiz-adv-x="0" 
 />
    <glyph glyph-name="space" unicode=" " horiz-adv-x="292" 
 />
    <glyph glyph-name="exclam" unicode="!" horiz-adv-x="204" 
d="M148.261 126.7c0.330078 -61.75 -95.46 -61.6396 -95.79 0c-0.80957 150.35 -1.65918 300.71 -2.46875 451.1c-0.330078 61.75 95.46 61.5996 95.79 0c0.80957 -150.35 1.65918 -300.75 2.46875 -451.1zM147.271 9.98047
c11.0898 -20.4502 6.30176 -40.5596 -7.47852 -57.9893c-6.26953 -7.95996 -15.1797 -11.3799 -24.3594 -14.6602c-15.3203 -5.49023 -35.7305 0.620117 -46.6006 12.2998c-0.410156 0.410156 -0.780273 0.850586 -1.18066 1.26074
c-17.6904 18.9697 -18.8604 48.8496 0 67.71c5.0498 5.08984 11.3496 8.39941 18.0498 10.6895c20.3799 10.46 46.6396 8.17969 60.75 -17.8008c0.259766 -0.480469 0.519531 -0.990234 0.819336 -1.50977z" />
    <glyph glyph-name="quotedbl" unicode="&#x22;" horiz-adv-x="352" 
d="M97.959 651.27c26.9697 0 46.3496 -22.0703 47.8994 -47.9004c2.25 -37.6201 4.49023 -75.2002 6.74023 -112.811c1.5498 -25.9805 -23.1699 -47.9004 -47.8896 -47.9004c-26.9697 0 -46.3496 22.0703 -47.8994 47.9004c-2.25 37.5801 -4.49023 75.1904 -6.74023 112.811
c-1.5498 25.9404 23.1699 47.9004 47.8896 47.9004zM297.359 621.5c1.17969 -37.6201 2.38965 -75.2002 3.56934 -112.78c1.9502 -61.75 -93.8398 -61.4902 -95.79 0c-1.17969 37.5801 -2.38965 75.2002 -3.56934 112.78c-1.95996 61.75 93.8301 61.4902 95.79 0z" />
    <glyph glyph-name="numbersign" unicode="#" horiz-adv-x="781" 
d="M684.406 234.98c61.75 0.80957 61.5957 -94.9805 -0.0341797 -95.75c-36.5898 -0.480469 -73.1396 -0.920898 -109.72 -1.40137c-17.1699 -58.0303 -34.3398 -116.061 -51.5098 -174.051c-17.46 -59.0898 -109.9 -33.7803 -92.3604 25.46
c14.5098 49.0703 29.0693 98.1904 43.5791 147.261c-64.8799 -0.849609 -129.79 -1.65918 -194.71 -2.50879c-13.5996 -49.0303 -27.1895 -98.0703 -40.7891 -147.11c-16.46 -59.4297 -108.87 -34.04 -92.3604 25.46c11.0898 40.1201 22.2197 80.2402 33.3398 120.36
c-27.8496 -0.360352 -55.7393 -0.700195 -83.5889 -1.06055c-61.75 -0.80957 -61.5996 95.0107 0 95.791c36.7305 0.480469 73.5 0.960938 110.23 1.43066c11.2402 40.4902 22.4404 81.0205 33.6709 121.511c-31.6396 0.0400391 -63.3301 0.0400391 -95.0098 0.0800781
c-61.75 0.0302734 -61.6396 95.8203 0 95.79c40.5195 -0.0400391 81.0498 -0.0800781 121.58 -0.110352c11.2002 40.4102 22.4004 80.8301 33.6006 121.24c16.4697 59.4297 108.87 34.0498 92.3604 -25.4502c-8.83984 -31.9502 -17.7197 -63.9307 -26.5596 -95.8711
c66.5703 -0.0703125 133.181 -0.110352 199.801 -0.180664c12.4502 41.96 24.8701 83.96 37.2803 125.93c17.46 59.0498 109.9 33.7803 92.3701 -25.46c-9.91016 -33.5303 -19.8604 -67.0605 -29.7705 -100.58h11.0498c61.75 -0.0800781 61.6396 -95.8701 0 -95.79
c-13.1201 0 -26.2705 0.0302734 -39.3906 0.0302734c-11.4199 -38.6797 -22.8701 -77.3701 -34.3301 -116.05c27.0801 0.330078 54.1904 0.700195 81.2705 1.03027zM306.322 230.12c65.5098 0.839844 131.021 1.68945 196.561 2.53906
c11.5703 39.1299 23.1699 78.25 34.7402 117.42c-65.9805 0.0703125 -132.011 0.110352 -197.991 0.180664c-11.1299 -40.0498 -22.2197 -80.0996 -33.3096 -120.14z" />
    <glyph glyph-name="dollar" unicode="$" horiz-adv-x="600" 
d="M384.168 343.55c111.86 -50.29 202.705 -153.851 149.545 -282.181c-33.5996 -80.9805 -110.6 -122.79 -193.5 -132.59c0.110352 -20.75 0.220703 -41.4502 0.331055 -62.1602c0.330078 -61.75 -95.46 -61.5996 -95.79 0
c-0.110352 21.5195 -0.260742 43.0693 -0.371094 64.5889c-127.29 21.3701 -234.17 113.62 -179.939 250.23c22.5098 56.7002 115.14 31.8398 92.3701 -25.4502c-27.5596 -69.4502 22.7705 -113.08 87.0605 -129.88c-0.519531 90.9697 -1 181.97 -1.50977 272.939
c-73.4297 32.8203 -142.66 76.8506 -160.09 162.141c-17.5 85.7305 34.1201 168.671 110.9 204.991c15.7002 7.41016 31.3906 12.46 47.0107 15.8398l-0.331055 58.9189c-0.330078 61.7402 95.46 61.6299 95.79 0c0.110352 -20.1201 0.220703 -40.2402 0.331055 -60.3906
c50.4805 -11.9004 98.2305 -39.75 140.261 -74.6396c47.5303 -39.46 -20.5898 -106.85 -67.71 -67.7598c-17.4297 14.4502 -43.5195 27.7803 -71.96 36.8105c0.370117 -71.2197 0.780273 -142.43 1.18066 -213.649c17.2402 -6.08008 33.2705 -11.8301 46.4209 -17.7598z
M174.273 494.719c0.330078 -43.04 29.4697 -71.7695 67.46 -93.1797c-0.330078 60.6104 -0.660156 121.21 -1 181.82c-38.1602 -7.99023 -66.8604 -33.6406 -66.46 -88.6406zM396.764 40.9297c116.87 77.7695 29.5498 174.33 -58.4307 217.771
c0.44043 -79.3203 0.890625 -158.641 1.33105 -237.931c21.96 3.36035 41.8896 10.0205 57.0996 20.1602z" />
    <glyph glyph-name="percent" unicode="%" horiz-adv-x="722" 
d="M519.951 673.55c34.1201 51.0596 117.049 3.06152 82.6787 -48.2988c-135.84 -203.3 -257.02 -414.66 -363.789 -634.61c-26.9297 -55.5303 -109.529 -6.89062 -82.709 48.3291c106.81 219.92 227.979 431.32 363.819 634.58zM664.34 183.432
c24.2803 -76.4102 -20.1924 -158.603 -94.832 -184.173c-74.9004 -25.6797 -158.801 15.8398 -185.511 89.9697c-25.3799 70.4805 8.44043 152.301 76.4502 183.471c0.700195 0.44043 1.48047 0.810547 2.21094 1.2207
c0.0800781 0.0400391 0.150391 0.110352 0.260742 0.150391c0 0.0302734 0.0400391 0.0302734 0.0703125 0.0302734c2.44043 1.37012 4.90039 2.73047 7.74023 3.80078c78.6602 29.3604 168.15 -14.3701 193.61 -94.4697zM536.417 89.1201
c69.71 19.8203 34.1201 115.499 -32.71 98.3994c-23.0303 -12.4902 -38.1406 -33.4502 -30.9502 -61.71c7.07031 -27.8496 36.1406 -44.5098 63.6602 -36.6895zM243.927 441.149c-74.9004 -25.6797 -158.831 15.8369 -185.501 89.9668
c-25.3896 70.4805 8.43066 152.301 76.4404 183.471c0.669922 0.450195 1.47949 0.850586 2.20996 1.26074c0.0800781 0.0302734 0.150391 0.110352 0.300781 0.180664h0.0703125c2.42969 1.36035 4.89941 2.73047 7.73926 3.80078
c78.6602 29.3604 168.15 -14.3701 193.61 -94.4697c24.3096 -76.4102 -20.1904 -158.61 -94.8701 -184.21zM147.216 567.776c7.07031 -27.8604 36.1396 -44.5098 63.6992 -36.7002c69.7002 19.7803 34.0801 115.5 -32.7598 98.4102
c-23.0195 -12.4902 -38.1299 -33.46 -30.9395 -61.71z" />
    <glyph glyph-name="ampersand" unicode="&#x26;" horiz-adv-x="686" 
d="M629.745 -67.6504c28.4805 -54.6299 -54.1973 -103.009 -82.707 -48.3291c-20.6699 39.6396 -44.5498 76.5596 -70.2197 112.069c-73.3604 -76.6299 -166.28 -130.02 -275.11 -103.119c-111.78 27.5898 -176.03 142.54 -143.061 252.11
c22.2197 73.7598 80.6494 123.83 140.56 168.01c-30.7695 37.3203 -57.5498 77.4805 -71.5898 121.5c-46.75 146.75 107.51 276.55 248.21 219.22c204.77 -83.4502 75.4492 -254.11 -40.3809 -355.53c33.1602 -33.0498 67.0898 -64.2197 93.3994 -92.9893
c16.4297 -17.9805 32.4199 -36.2607 48.2197 -54.6406c14.9199 23.0596 27.6396 44.9795 37.4697 63.0391c29.5898 54.1904 112.26 5.78027 82.71 -48.3398c-16.21 -29.7305 -35.5098 -61.3506 -57.3994 -92.2607c33.3496 -44.3896 63.8896 -90.8496 89.8994 -140.739z
M330.177 564.501c-75.9697 16.7998 -131.051 -40.5605 -106.4 -113.221c9.69043 -28.5498 27.3408 -56.1797 48.3711 -82.9297c76.9697 62.7402 183.22 168.48 58.0293 196.15zM202.926 -6.48926c79.9805 -40.2998 155.66 10.4717 214.9 78.002
c-40.8203 48.6699 -84.3301 95.2695 -128.061 142.319c-8.44043 9.09961 -17.25 18.3896 -26.1602 27.7793c-74.0898 -57.5801 -193.43 -181.19 -60.6797 -248.101z" />
    <glyph glyph-name="quotesingle" unicode="'" horiz-adv-x="208" 
d="M145.996 603.33c3.57031 -32.75 7.14062 -65.5 10.7207 -98.2598c2.83984 -25.8604 -24.1699 -47.8906 -47.9004 -47.8906c-27.8896 0 -45.0898 22.1797 -47.8896 47.8896c-3.58008 32.7598 -7.15039 65.5098 -10.7207 98.2598
c-2.83984 25.8701 24.1602 47.9004 47.8906 47.9004c27.8896 0 45.0996 -22.1797 47.8994 -47.8994z" />
    <glyph glyph-name="parenleft" unicode="(" horiz-adv-x="399" 
d="M332.681 -44.4004c47.8203 -39.0195 -20.3701 -106.399 -67.75 -67.7197c-265.35 216.71 -285.68 590.99 -57.2197 841.971c41.6299 45.6797 109.16 -22.2607 67.75 -67.7607c-196.44 -215.78 -166.08 -524.12 57.2197 -706.49z" />
    <glyph glyph-name="parenright" unicode=")" horiz-adv-x="396" 
d="M123.187 730.47c327.021 -149.28 248.762 -645.261 45.7217 -855.041c-42.9902 -44.3604 -110.641 23.4297 -67.751 67.75c162.14 167.49 242.979 581.641 -26.3105 704.581c-56.0703 25.6104 -7.33008 108.13 48.3398 82.71z" />
    <glyph glyph-name="asterisk" unicode="*" horiz-adv-x="518" 
d="M395.09 610.88c54.5703 28.6699 102.938 -54.0449 48.3789 -82.7451c-29.5898 -15.5098 -59.1699 -31.0596 -88.7598 -46.5996c27.75 -40.6797 55.4902 -81.3896 83.2305 -122.06c34.8604 -51.0996 -48.1895 -99 -82.709 -48.3398
c-26.2305 38.4297 -52.4307 76.8896 -78.6211 115.319c-38.7197 -39.8701 -77.4795 -79.7705 -116.199 -119.631c-43.0703 -44.29 -110.75 23.5 -67.7598 67.75c32.6797 33.6396 65.3193 67.2393 97.9697 100.839c-38.8701 20.2998 -77.7002 40.5596 -116.57 60.8291
c-54.75 28.5498 -6.26953 111.189 48.3301 82.709c34.4199 -17.9404 68.8301 -35.9209 103.24 -53.8613c-1.25 34.1504 -2.46973 68.3008 -3.71973 102.461c-2.25 61.7402 93.54 61.4502 95.79 0c1.13965 -31.8398 2.31934 -63.6699 3.45898 -95.5
c24.6504 12.9297 49.3008 25.8594 73.9404 38.8291z" />
    <glyph glyph-name="plus" unicode="+" horiz-adv-x="466" 
d="M368.714 340.79c61.6797 3.5 61.2695 -92.3291 0.0390625 -95.7891c-27.8896 -1.58984 -55.8193 -3.16992 -83.749 -4.75977c2.46973 -37.3203 4.93945 -74.6807 7.40918 -112.001c4.08984 -61.6396 -91.7402 -61.1895 -95.79 0.000976562
c-2.36035 35.5596 -4.7207 71.0693 -7.07031 106.629c-31.1699 -1.76953 -62.3096 -3.5 -93.4395 -5.26953c-61.6699 -3.5 -61.2998 92.3203 0 95.79c29.0303 1.66016 58.0703 3.28027 87.1006 4.93066c-2.54004 38.21 -5.0498 76.3799 -7.58984 114.59
c-4.08984 61.6299 91.7402 61.1895 95.79 -0.000976562c2.38965 -36.4102 4.83008 -72.8105 7.21973 -109.211c30.0303 1.7002 60.0498 3.39062 90.0801 5.09082z" />
    <glyph glyph-name="comma" unicode="," horiz-adv-x="239" 
d="M178.67 -5.57031c26.3799 -65.54 -2.35059 -136.87 -56.7002 -177.21c-20.8896 -15.5098 -53.5693 -3.2793 -65.5391 17.1709c-14.0703 24.0898 -3.57031 50.1396 17.1699 65.54c21.8496 16.21 21.8799 46.3096 12.71 69.0498
c-9.73047 24.1299 10.6797 52.6396 33.4492 58.9092c26.9697 7.40039 49.2598 -9.46973 58.9102 -33.46z" />
    <glyph glyph-name="hyphen" unicode="-" horiz-adv-x="408" 
d="M310.716 322.22c61.75 0.370117 61.6396 -95.4199 0 -95.79c-71.4805 -0.410156 -142.99 -0.850586 -214.46 -1.25098c-61.75 -0.370117 -61.5996 95.4199 0 95.79c71.4697 0.400391 142.979 0.84082 214.46 1.25098z" />
    <glyph glyph-name="period" unicode="." horiz-adv-x="201" 
d="M114.488 14.7695c26.7402 -8.5498 47.0791 -37.54 27.8887 -68.1201c-19.5303 -31.0996 -67.54 -34.7793 -86.25 0.110352c-12.2695 22.8799 -5.89941 52.0596 17.1709 65.54c12.4502 7.25977 27.7705 7.41016 41.1904 2.46973z" />
    <glyph glyph-name="slash" unicode="/" horiz-adv-x="521" 
d="M382.465 669.46c29.0303 54.4902 111.67 6.03809 82.71 -48.3418l-326.39 -612.279c-29.0303 -54.4902 -111.71 -6.0498 -82.71 48.3301c108.8 204.11 217.59 408.181 326.39 612.291z" />
    <glyph glyph-name="zero" unicode="0" horiz-adv-x="566" 
d="M307.602 681.24c271.94 -32.0596 256.35 -521.62 72.7998 -653.23c-145.34 -104.15 -291.2 84.1191 -321.23 212.329c-35.8096 152.93 33.0508 405.12 209.971 439.021c5.92969 2.58008 12.8594 3.94043 20.8896 3.61035
c6.62988 0.589844 12.3799 -0.219727 17.5703 -1.72949zM362.421 151.399c59.9502 99.1396 108.579 428.001 -72.3906 435.741c-67.5303 -5.92969 -111.41 -98.8496 -128.58 -154.33c-25.0596 -80.8701 -22.6592 -170.44 20.4805 -244.931
c48.1602 -83.0801 123.021 -131.57 180.49 -36.4805z" />
    <glyph glyph-name="one" unicode="1" horiz-adv-x="367" 
d="M281.852 100.74c60.6699 -10.9004 34.8115 -103.191 -25.498 -92.3613c-48.6699 8.73047 -98.1104 7.7002 -146.45 -2.31934c-60.2402 -12.4902 -85.7705 79.8301 -25.4609 92.3604c15.9199 3.28027 31.7197 5.75 47.5293 7.51953
c0.259766 105.48 0.919922 210.921 1.91016 316.371c0.339844 35.5098 -2.67969 74.1201 -3.01953 111.811c-40.7402 -25.0098 -93.7207 35.04 -56.4805 77c35.5195 40.0498 107.18 145.53 148.81 44.29c16.54 -40.2002 7.44043 -102.72 7.26074 -144.68
c-0.549805 -134.4 -2.20996 -268.811 -2.69043 -403.211c17.9404 -1.40039 35.96 -3.54004 54.0898 -6.78027z" />
    <glyph glyph-name="two" unicode="2" horiz-adv-x="539" 
d="M454.471 102.95c60.8604 -9.24023 34.8496 -101.497 -25.4199 -92.3574c-107.32 16.2803 -212.181 15.21 -319.171 -2.75977c-47.3799 -7.95996 -79.1396 42.4004 -46.5996 80.0508c87.6797 101.54 174.149 208.31 234.199 329.159
c18.5703 37.4297 64.5508 125.189 41.6709 170.649c-38.5703 76.6299 -157.57 -35.7705 -187.67 -70.2607c-40.6396 -46.5703 -108.14 21.4492 -67.7598 67.7188c71.6299 82.0498 250.16 195.93 332.99 62.71c41.2197 -66.3203 15.7295 -156.221 -10.9502 -222.391
c-45.8301 -113.8 -118.04 -216.08 -195.92 -311.8c81.2305 4.83008 161.99 1.81055 244.63 -10.7197z" />
    <glyph glyph-name="three" unicode="3" horiz-adv-x="523" 
d="M338.04 397.44c76.5596 -29.4805 135.878 -104.782 134.518 -199.622c-3.09961 -210.04 -272.64 -255.13 -397.21 -119.439c-41.6602 45.3496 25.9395 113.22 67.7197 67.7197c73.7998 -80.4297 256.87 -61.9697 231.561 75.1201
c-16.0703 86.9805 -103.24 119.15 -172.21 70.4805c-54.71 -30.5801 -98 47.6699 -48.3301 82.71c9.54004 6.74023 19.3799 12.2705 29.3203 17.0605c57.6602 35.0703 147.891 100.801 112.671 163.4c-37.6904 66.9805 -131.53 -2.39941 -164.21 -35.0098
c-43.7305 -43.5801 -111.45 24.1699 -67.75 67.7598c78.9902 78.7305 227.61 139.671 307.931 26.3809c54.4902 -76.8896 22.3604 -154.12 -34.0098 -216.561z" />
    <glyph glyph-name="four" unicode="4" horiz-adv-x="517" 
d="M371.587 633.78c3.05957 61.46 98.8467 61.6006 95.7168 0.0410156c-9.87012 -199.58 -19.71 -399.19 -29.5801 -598.771c-3.01953 -61.4502 -98.8496 -61.6406 -95.79 -0.000976562c2.65039 53.9805 5.34082 107.95 7.99121 161.931
c-68.4502 -4.5 -137.57 -12.2002 -205.73 -10.8398c-38.1699 0.780273 -79.0596 8.62012 -91.4092 50.5205c-11.2002 38.0195 14.1494 82.8193 26.6396 117.3c31.1699 86.0703 52.6504 174.82 64.7705 265.601c8.03027 60.3096 103.931 60.8994 95.791 -0.000976562
c-10.79 -80.9102 -25.5996 -160.74 -50.25 -238.63c-6.51953 -20.5596 -15.3291 -67.6797 -28.4795 -98.4102c4.57031 0.0800781 8.51074 0.19043 10.9404 0.300781c60.9004 2.75977 121.69 7.21973 182.561 10.3496c5.62988 113.51 11.2295 227.06 16.8291 340.609z" />
    <glyph glyph-name="five" unicode="5" horiz-adv-x="524" 
d="M390.961 442.83c126.63 -110.79 103.007 -333.87 -45.6133 -415.59c-120.96 -66.5703 -273.229 0.149414 -283.909 141.289c-4.63965 61.5996 91.1807 61.0898 95.791 0c5.86035 -77.6201 99.4404 -86.3896 152.011 -50.0693c78.3301 54.0898 95.5 182.93 22.8096 249.35
c-64.1104 58.6201 -129.62 35.5898 -179.39 -17.8301c-31.6797 -34 -84.2598 -58.0996 -100.8 6.70996c-5.55957 21.8096 2.87012 49.5898 5.37988 71.0996c7.5498 65.1396 14 130.39 19.6699 195.71c2.40039 27.4502 23.1006 42.5205 44.6904 45.3203
c8.66016 4.37988 18.9004 6.41016 30.4307 4.71973c39.6104 -5.86035 80.3604 -7.23047 120.33 -8.33008c21.04 -0.589844 42.1504 -0.959961 63.2207 -0.219727c2.25 0.0703125 20.9297 2.5 24.0293 1.36035c0.919922 0.480469 1.87012 0.890625 2.7998 1.33105
c-0.629883 -0.480469 -1.11035 -0.810547 -1.87988 -1.44043c2.34961 -1.21973 6.04004 1.99023 7 3.68066c19.5596 7.12012 43.3994 3.65039 58.2793 -18.0801c44.8799 -65.4404 -55.5205 -81.8301 -94.9805 -82.79c-53.3496 -1.33008 -107.319 0.879883 -160.6 6.62988
c-0.950195 -30.5 -1.62012 -63.4404 -4.0498 -95.6104c73.1699 31.3203 160.75 18.79 224.78 -37.2402zM362.408 667.68c4.66992 3.53027 5.88965 3.5293 5.12012 2.23926c-1.76953 -0.620117 -3.42969 -1.42969 -5.12012 -2.23926z" />
    <glyph glyph-name="six" unicode="6" horiz-adv-x="563" 
d="M506.059 280.57c38.8301 -171.69 -131.27 -327.711 -296.25 -254.911c-304.771 134.58 -139.341 791.271 208.119 637.631c56.3301 -24.9004 7.52051 -107.431 -48.3398 -82.7109c-127.66 56.4805 -196.66 -73.5391 -214.75 -202.999
c114.5 96.1602 311.24 79.6904 351.221 -97.0098zM393.688 157.329c96.6699 154.52 -153.311 273.08 -215.86 96.1299c-4.08984 -11.5 -11.0898 -19.6104 -19.4199 -24.9502c2.16992 -8.91016 4.75 -17.1699 7.74023 -24.5703c37.5 -92.96 163.95 -148.22 227.54 -46.6094z
" />
    <glyph glyph-name="seven" unicode="7" horiz-adv-x="541" 
d="M402.811 675.27c44.4297 -3.54004 84.7012 -18.1309 87.4609 -69.2705c2.83984 -52.6797 -47.2002 -116.529 -69.3398 -160.819c-67.4902 -134.99 -116.971 -276.57 -156.471 -422.101c-16.1396 -59.54 -108.54 -34.1201 -92.3604 25.46
c32.0898 118.19 70.5098 234.091 119.74 346.281c23.7998 54.2695 49.5498 135.689 88.4199 183.369c-8.33008 0.139648 -15.9902 0.330078 -19.2705 0.219727c-88.3496 -3.46973 -176.399 -12.4199 -264.789 -15.6201c-61.75 -2.20996 -61.4502 93.5801 0 95.79
c99.7695 3.57031 206.979 24.6104 306.609 16.6904z" />
    <glyph glyph-name="eight" unicode="8" horiz-adv-x="519" 
d="M395.833 357.65c51.25 -40.75 77.1494 -105.339 72.4697 -170.659c-11.5 -159.97 -194.01 -245.439 -326.279 -155.659c-118.49 80.4297 -115.58 239.439 -28.96 332.689c-33.75 26.3096 -57.4004 62.0791 -62 108.469c-14.7803 149.32 127.21 257.12 263.13 192.94
c128.76 -60.79 159.12 -200.42 81.6396 -307.78zM150.602 520.052c-13.3701 -54.3096 11.2412 -81.1992 54.751 -99.3994c11.6104 0.219727 22.1807 -3.98047 30.8408 -10.54c22.7695 -6.12012 45.8291 -9.42969 68.4492 -13.8896
c1.17969 1.58008 2.17969 3.20996 3.60938 4.75c64.8496 69.9297 28.1094 187.899 -76.8506 189.409c-43.8799 0.660156 -70.7402 -29.5098 -80.7998 -70.3301zM233.572 93.7812c105.01 -26.9697 192.029 110.049 107.329 185.869
c-31.9102 28.5898 -82.8301 32.5303 -128.84 41.2607c-82.71 -56.9199 -98.5596 -196.33 21.5107 -227.13z" />
    <glyph glyph-name="nine" unicode="9" horiz-adv-x="535" 
d="M312.433 658.32c200.72 -55.4902 197.399 -313.021 132.449 -468.23c-37.0703 -88.6797 -107.88 -170.18 -210.27 -176.55c-84.1797 -5.24023 -158.31 43.6494 -180.489 125.449c-16.21 59.6396 76.2305 84.8799 92.3701 25.4502
c16.7598 -61.8604 87.0195 -67.3506 135.5 -37.2109c48.8203 30.3203 73.8701 88.3906 89.6396 141.11c3.12988 10.54 6.08008 21.96 8.66016 33.8604c-106 -76.6699 -269.36 -48.3799 -318.91 92.6602c-54.4902 154.99 96.0898 306.271 251.05 263.461zM349.862 403.74
c10.2002 14.9902 24.6104 21.1787 38.9404 21.3984c-6.08008 57.8799 -29.6904 110.64 -85.8105 135.29c-80.7197 35.4404 -177.979 -35.1094 -153.96 -125.749c24.7197 -93.2402 149.14 -106.88 200.83 -30.9395z" />
    <glyph glyph-name="colon" unicode=":" horiz-adv-x="197" 
d="M96.2715 326.17c-61.75 0 -61.6396 95.79 0 95.79c61.75 0 61.6396 -95.79 0 -95.79zM99.9219 127.29c61.71 0 61.6396 -95.79 0 -95.79c-61.75 0 -61.6396 95.79 0 95.79z" />
    <glyph glyph-name="semicolon" unicode=";" horiz-adv-x="221" 
d="M105.201 333.46c-61.75 0 -61.6396 95.79 0 95.79h3.64941c61.75 0 61.6299 -95.79 0 -95.79h-3.64941zM157.661 67.2695c24.21 -53.4199 17.0205 -114.319 -25.71 -156.619c-43.8799 -43.4004 -111.64 24.3594 -67.7197 67.7598
c11.1602 11.0498 16.1699 28.4395 10.7197 40.4893c-10.7197 23.6504 -7.04004 51.3604 17.1699 65.54c20.71 12.1201 54.8604 6.41016 65.54 -17.1699z" />
    <glyph glyph-name="less" unicode="&#x3c;" horiz-adv-x="377" 
d="M305.756 171.97c48.4502 -36.8701 0.700195 -120.031 -48.2598 -82.7412c-46.75 35.5898 -96.0898 64.3203 -146.74 93.6904c-24.25 14.0703 -50.8496 29.7305 -58.6191 58.8301c-8.99023 33.5703 12.0098 61.9404 33.0498 85.4805
c43.3203 48.5195 93.1406 91.8096 138.751 138.159c43.29 44.0303 110.97 -23.7598 67.71 -67.75c-38.6797 -39.3496 -78.6895 -77.3398 -117.67 -116.39c-2.32031 -2.28027 -6.01074 -7 -9.99121 -11.9697c44.8398 -25.0195 131.31 -89.3496 141.77 -97.3096z
M142.326 245.509c2.05957 -0.110352 2.87109 2.0293 2.98145 5.26953c-0.0703125 -0.0400391 -0.220703 -0.179688 -0.291016 -0.219727c-0.44043 -0.110352 -1.99023 -5.08008 -2.69043 -5.0498z" />
    <glyph glyph-name="equal" unicode="=" horiz-adv-x="455" 
d="M96.2598 345.91c-61.79 -1.13965 -61.5703 94.6504 0 95.79c83.7402 1.5498 167.521 3.08984 251.261 4.63965c61.79 1.13965 61.5703 -94.6504 0 -95.79c-83.7402 -1.5498 -167.521 -3.08984 -251.261 -4.63965zM357.8 229.45c61.75 1.25 61.5703 -94.5801 0 -95.79
c-84.8799 -1.7002 -169.81 -3.39062 -254.689 -5.09082c-61.79 -1.25 -61.5703 94.5801 0 95.7998c84.8799 1.69043 169.81 3.38086 254.689 5.08105z" />
    <glyph glyph-name="greater" unicode="&#x3e;" horiz-adv-x="402" 
d="M337.958 305.75c17.7598 -15.4697 19.4502 -52.5 0 -67.75c-65.0703 -50.9902 -130.17 -101.95 -195.27 -152.94c-48.04 -37.5801 -116.24 29.7695 -67.75 67.7598c51.4297 40.2998 102.899 80.5693 154.329 120.879c-54.5596 47.4902 -109.09 95.0098 -163.649 142.5
c-46.5703 40.5703 21.4395 108.03 67.749 67.7207c68.2002 -59.3896 136.391 -118.779 204.591 -178.169z" />
    <glyph glyph-name="question" unicode="?" horiz-adv-x="529" 
d="M446.638 512.63c41.8203 -69.0498 42.1104 -154.819 3.57031 -225.55c-46.5596 -85.5498 -176.029 -138.79 -184.47 -240.81c-5.04004 -61.0801 -100.87 -61.4502 -95.79 0c12.1201 146.53 156.4 180.79 203.23 303.88c58.3896 153.45 -147.851 239.66 -243.721 123.76
c-39.3096 -47.5703 -106.729 20.5898 -67.71 67.75c103.89 125.63 299.38 112.149 384.89 -29.0303zM223.958 -18.2402c61.75 0 61.6396 -95.79 0 -95.79c-61.7402 0 -61.6299 95.79 0 95.79z" />
    <glyph glyph-name="at" unicode="@" horiz-adv-x="827" 
d="M455.039 402.06c20.4102 -2.28027 38.2383 -17.0186 37.9082 -45.5381c-0.219727 -15.21 -0.989258 -31.5703 -2.49902 -48.3008c1.62012 -83.5898 35.7002 -164.13 128.431 -78.6602c57.1797 52.7305 73.2793 137.461 51.5791 210.341
c-58.0703 195.01 -313.2 208.12 -439.09 72.6904c-117.09 -125.97 -117.13 -344.85 14.0703 -460.75c112 -98.96 269.03 -94.0303 364.561 22.0293c39.2402 47.6299 106.62 -20.5205 67.75 -67.7607c-150.2 -182.48 -426.38 -143.721 -556.43 42.4092
c-161.63 231.33 -35.7002 591.771 248.47 646.48c247.25 47.5996 486.72 -193.021 381.39 -438.95c-36.9502 -86.1699 -128.36 -172.38 -229.311 -159.38c-41.8096 5.37988 -70.8096 24.5 -90.7393 51.1797c-14.4805 -15.0703 -32.1309 -27.1602 -53.9805 -34.5605
c-60.4502 -20.4502 -121.47 9.87012 -146.479 67.2402c-61.9297 142.03 138.45 344.66 224.37 221.53zM338.688 202.042c34.0098 -7.91992 48.2285 47.709 54.2285 95.1992c0.0800781 7.66992 0.370117 15.2598 0.810547 22.7402
c-5.00977 4.92969 -9.20996 11.1201 -12.0098 18.9697c-3.34961 9.36035 -124.449 -117.899 -43.0293 -136.909z" />
    <glyph glyph-name="A" unicode="A" 
d="M613.806 63.5098c20.2305 -58.4697 -72.3213 -83.3711 -92.3613 -25.4609c-19.3799 56.0801 -37.9902 112.41 -56.04 168.851c-89.4902 -5.62988 -178.95 -11.2695 -268.44 -16.9092c-18.4902 -47.71 -35.9199 -96.0098 -51.9795 -144.97
c-19.1201 -58.4404 -111.601 -33.2705 -92.3701 25.46c72.0303 219.8 167.641 428.26 287.931 625.88c20.96 34.4102 77.2197 29.29 87.54 -11.46c53.1201 -209.82 115.021 -416.801 185.721 -621.391zM237.233 288.329c66.3203 4.16016 132.669 8.35938 198.989 12.5596
c-25.0195 81.9004 -48.71 164.21 -71 246.96c-47.0098 -84.5596 -89.7793 -170.989 -127.989 -259.52z" />
    <glyph glyph-name="B" unicode="B" horiz-adv-x="578" 
d="M393.001 454.86c104.19 -43.1504 167.53 -177.441 114.62 -300.491c-79.21 -184.18 -324.95 -215.199 -466.17 -87.1689c-39.8604 36.1797 6.55957 92.0693 49.3291 78.5098c-2.61035 145.12 -5.27051 290.21 -7.88086 435.29
c-1.50977 -1.16992 -3.20996 -2.45996 -4.57031 -3.53027c-47.9297 -37.7695 -116.13 29.6201 -67.75 67.75c105.11 82.8604 306.051 193.28 407.811 41.6299c53.9404 -80.3896 28.9209 -165.68 -25.3887 -231.989zM389.211 144.459
c83.71 92.8799 17.1992 290.502 -119.961 214.312c-55.0098 -25.5 -103.09 52.3203 -48.3398 82.71c61.3799 28.4404 165.54 102.28 121.91 185.25c-32.3398 61.5195 -102.79 45.8691 -165.24 14.6592c3.32031 -183 6.64062 -366.03 9.9502 -549.03
c70.04 -20.4102 150.28 -4.94043 201.681 52.0996z" />
    <glyph glyph-name="C" unicode="C" horiz-adv-x="543" 
d="M404.268 174.04c26.9297 55.5195 109.501 6.8916 82.7109 -48.3389c-49.5195 -102.24 -170.579 -134.73 -271.599 -90.1504c-139.01 61.3799 -177.58 224.04 -162.22 362.86c13.2598 119.59 74.9395 244.6 191.209 293.27
c88.9404 37.25 189.891 10.2402 229.351 -82.4199c23.9102 -56.1504 -58.6602 -104.891 -82.75 -48.4102c-23.5098 55.1602 -70 63.8906 -121.69 37.251c-69.8604 -35.96 -107.07 -117.2 -119 -191.29c-15.1104 -93.7305 -3.73047 -220.021 85.5791 -274.511
c61.6797 -37.6201 136.1 -24.9404 168.409 41.7393z" />
    <glyph glyph-name="D" unicode="D" horiz-adv-x="627" 
d="M575.379 387.1c10.5703 -243.31 -218.591 -516.682 -470.261 -377.972c-54.0801 29.8096 -5.66992 112.479 48.3398 82.71c0.990234 -0.549805 1.9502 -0.80957 2.9502 -1.31934c-5.67969 168.22 -11.3096 336.41 -16.9492 504.601
c-10.7598 -8.51953 -21.4102 -18.3896 -31.7998 -29.8096c-41.5898 -45.6904 -109.12 22.25 -67.71 67.75c208.6 229.24 523.64 25.2402 535.43 -245.96zM252.678 67.6777c127.99 7.07031 224.26 163.21 227.2 291.68c3.38965 148.59 -117.271 290.32 -245.99 276.32
c6.33008 -188.38 12.6299 -376.79 18.9697 -565.2c0.0400391 -1 -0.179688 -1.84961 -0.179688 -2.7998z" />
    <glyph glyph-name="E" unicode="E" horiz-adv-x="518" 
d="M403.079 111.81c60.2402 12.6797 85.7393 -79.6523 25.499 -92.3623c-97.1904 -20.4502 -286.23 -93.9502 -353.69 20.1494c-33.3096 56.3701 -24.5 139.05 -21.8096 200.79c6.41016 147.34 20.7402 294.45 29.25 441.67
c0.0703125 1.48047 0.480469 2.77051 0.660156 4.1709c0.959961 23.0996 16.21 44.9492 46.0195 43.8789c97.2998 -3.46973 194.6 -6.96973 291.899 -10.4297c61.5703 -2.20996 61.6406 -98 0.000976562 -95.79c-82.0098 2.91016 -164.02 5.86035 -246.029 8.77051
c-5.41992 -85.8096 -11.46 -171.579 -17.3896 -257.349c67.0898 6.62988 134.07 7.62988 201.46 2.32031c61.1504 -4.82031 61.4502 -100.61 0 -95.79c-69.9004 5.49023 -139.341 4.31055 -208.9 -3.01953c-5.67969 -53.4199 -14.6992 -117.49 0.291016 -164.17
c27.5996 -85.8398 187.31 -16.6201 252.739 -2.83984z" />
    <glyph glyph-name="F" unicode="F" horiz-adv-x="571" 
d="M485.828 689.03c60.6396 -11.0898 34.8096 -103.378 -25.4209 -92.4375c-68.0498 12.4502 -136.21 16.6904 -204.37 14.5205c2.05957 -87.9502 1.94922 -175.74 -1.11035 -263.431c41.6396 0.179688 83.2295 -0.810547 124.899 -3.65039
c61.2695 -4.2002 61.5293 -99.9902 -0.000976562 -95.79c-43.2197 2.9502 -86.4297 3.83008 -129.609 3.5c-3.75977 -66.2803 -8.43945 -132.561 -15.1396 -198.801c-6.16016 -60.8301 -101.98 -61.2705 -95.8008 -0.000976562c6.59961 65.25 11.2393 130.5 14.959 195.78
c-0.769531 -0.0400391 -1.50977 -0.0400391 -2.2793 -0.0703125c-61.6396 -3.98047 -61.1992 91.8096 0.000976562 95.79c2.36035 0.150391 4.68066 0.0703125 7.04102 0.220703c3.08984 86.0596 3.26953 172.239 1.39941 258.52
c-16.7998 -2.20996 -33.5996 -3.90039 -50.3691 -7c-60.3496 -11.2002 -85.9893 81.1699 -25.459 92.3701c28.2998 5.26953 56.4795 9.13965 84.6299 12.1895c15.9199 18.46 47.0898 20.2295 67.2002 5.41992c83.0098 3.87012 165.87 -1.83984 249.43 -17.1299z" />
    <glyph glyph-name="G" unicode="G" horiz-adv-x="602" 
d="M472.287 396.39c63.2598 -32.79 86.6895 -109.319 77.2998 -176.369c-15.6201 -112 -123.351 -186.39 -231.711 -191.14c-132.96 -5.82031 -232.77 91.1895 -257.779 217.56c-29.6602 149.91 3.89941 333.021 129.02 432.601
c88.3096 70.2598 211.14 69.5996 268.77 -37.21c29.29 -54.2998 -53.4297 -102.6 -82.7197 -48.3398c-50.29 93.25 -149.32 1.99023 -183.66 -57.6494c-56.5098 -98.1904 -75.71 -273.341 5.57031 -364.121c55.6299 -62.1201 158.35 -61.6006 219.47 -7.11035
c28.4404 25.3496 44.8008 61.6396 38.3906 99.9893c-16.4004 98.04 -115.58 25.5703 -156.18 -12.4199c-45.0195 -42.0703 -112.88 25.5693 -67.75 67.7598c62.2598 58.21 153.74 121.84 241.28 76.4502z" />
    <glyph glyph-name="H" unicode="H" horiz-adv-x="655" 
d="M577.155 655.76c8.9502 -200.46 17.9023 -400.888 26.9326 -601.237c2.75977 -61.75 -93.0303 -61.3799 -95.79 0c-4.12988 92 -8.21973 184.03 -12.3398 276.03c-104.45 -19.2305 -208.94 -38.4307 -313.421 -57.6611
c-0.0800781 -63.4404 0.400391 -126.891 2.16992 -190.371c1.7002 -61.7803 -94.0996 -61.5205 -95.79 -0.000976562c-1.66016 59.4297 -2.25 118.819 -2.28027 178.209c-42.4502 12.4902 -54.0498 81.6406 -2.09961 91.1904
c0.879883 0.139648 1.75977 0.290039 2.64941 0.480469c1.42969 109.2 5.37988 218.33 12.2695 327.45c3.87012 61.3496 99.6904 61.5693 95.79 -0.000976562c-6.51953 -103.27 -10.5 -206.5 -12.1602 -309.81c99.1797 18.2402 198.319 36.4805 297.499 54.7109
c3.83984 0.700195 7.51953 0.959961 11.0596 0.889648c-3.42969 76.71 -6.85938 153.41 -10.2793 230.12c-2.76953 61.75 93.0303 61.3799 95.79 0z" />
    <glyph glyph-name="I" unicode="I" horiz-adv-x="337" 
d="M240.054 626.98c-10.54 0.230469 -21.0684 0.477539 -31.5684 0.777344c2.75977 -175.3 5.55957 -350.56 8.35938 -525.819c3.67969 0.179688 7.41016 0.370117 11.0898 0.549805c61.71 3.12988 61.3398 -92.6904 0 -95.79
c-43.9199 -2.20996 -87.8701 -4.45996 -131.79 -6.66992c-61.71 -3.12988 -61.3398 92.7002 0 95.79c8.33008 0.410156 16.6602 0.850586 24.9805 1.26074c-2.83008 177.58 -5.66992 355.2 -8.50977 532.811c-4.82031 0.120117 -9.61035 0.230469 -14.4004 0.34082
c-61.6396 1.40039 -61.6797 97.1904 0 95.79c47.2695 -1.07031 94.5693 -2.18066 141.839 -3.24023c61.6396 -1.40039 61.6797 -97.2002 0 -95.7998z" />
    <glyph glyph-name="J" unicode="J" horiz-adv-x="541" 
d="M444.997 706.9c61.3496 -3.75977 61.6104 -99.5508 0.0400391 -95.791c-5.4502 0.330078 -10.8701 0.660156 -16.2803 0.990234c2.38965 -96.0898 2.71973 -192.359 -0.740234 -288.369c-3.12988 -86.3203 2.13965 -201.67 -44.5801 -278.49
c-112.33 -184.8 -384.93 -37.25 -324.91 159.38c17.9697 58.9102 110.41 33.6406 92.3604 -25.459c-32.46 -106.33 108.021 -171.94 158.421 -69.1904c23.5498 47.9697 18.6094 121.729 21.2197 173.819c5.59961 111.2 5.59961 222.87 2.61914 334.2
c-6.7002 0.410156 -13.3701 0.820312 -20.0801 1.2207c-61.3398 3.75977 -61.5596 99.5898 0 95.79c43.9502 -2.69043 87.9404 -5.41016 131.931 -8.10059z" />
    <glyph glyph-name="K" unicode="K" horiz-adv-x="570" 
d="M499.336 102.64c48.7002 -36.6201 0.919922 -119.78 -48.3398 -82.71c-98.7402 74.2695 -197.44 148.51 -296.181 222.79c-2.87012 -58.5498 -5.37988 -117.09 -8.91992 -175.63c-3.71973 -61.3496 -99.5098 -61.5693 -95.79 0.000976562
c11.9004 196.77 19.9707 393.659 24.2109 590.729c1.33008 61.6797 97.1201 61.6797 95.79 0c-1.7998 -84.04 -4.67969 -168.04 -7.87988 -252.04c88.6396 95.4199 177.319 190.85 265.999 286.27c42.0703 45.2402 109.681 -22.6201 67.751 -67.7598
c-94.6504 -101.83 -189.29 -203.7 -283.94 -305.53c95.75 -72.0303 191.54 -144.09 287.3 -216.12z" />
    <glyph glyph-name="L" unicode="L" horiz-adv-x="436" 
d="M327.803 148.43c57.4697 22.5898 82.1914 -70.0713 25.4912 -92.3213c-78.1104 -30.6602 -198.771 -110.2 -267.001 -21.4502c-36.8799 47.9404 -35.2598 124.86 -36.0996 181.49c-2.33008 157.87 16.9102 316.811 32.4902 473.61
c6.04004 60.8701 101.91 61.3105 95.79 0.000976562c-13.4805 -135.47 -27.6709 -271.42 -31.6514 -407.55c-1.05957 -36.6201 -16.9395 -150.32 12.0908 -181.931c29.1396 -31.7197 130.72 33.1602 168.89 48.1504z" />
    <glyph glyph-name="M" unicode="M" horiz-adv-x="727" 
d="M675.401 50.25c6.5498 -61.3096 -89.3086 -60.6387 -95.7988 0.000976562c-15.8398 147.81 -31.6797 295.59 -47.5195 443.399c-35.1104 -96.8604 -67.3506 -194.681 -94.5811 -294.341c-10.7598 -39.3799 -18.3096 -115.53 -76.2598 -108.05
c-54.4902 7.03027 -55.2305 94.75 -64.7305 134.25c-24.7305 102.79 -59.9502 201.82 -101.91 298.28c-21.4805 -156.58 -37.6504 -313.64 -48.6699 -471.479c-4.26953 -61.2695 -100.1 -61.5195 -95.79 0c15.1396 216.9 40.0498 432.391 74.2402 647.03
c6.48047 40.8301 69.9209 46.0898 87.5312 11.46c58.25 -114.58 110.31 -232.44 148.3 -355.381c2.38965 -7.78027 7.0293 -20.2705 12.4492 -34.8604c39.6396 131.61 87.7197 260.33 139.489 387.63c20.7002 50.8398 88.2002 42.1797 94.0898 -12.75
c23.0703 -215.05 46.0898 -430.14 69.1602 -645.189z" />
    <glyph glyph-name="N" unicode="N" horiz-adv-x="629" 
d="M575.427 675.73c5.70996 -206.4 1.74023 -412.35 -11.9697 -618.409c-3.12988 -47.2998 -62.8496 -65.2803 -89.2295 -24.1699c-104.42 162.81 -208.79 325.619 -313.2 488.429c-11.0596 -150.69 -16.1396 -301.561 -15.1094 -452.91
c0.410156 -61.75 -95.3799 -61.5996 -95.79 0c-1.33008 199.58 7.80957 398.38 27.4893 597c4.55957 46.4199 62.2598 66.2402 89.2295 24.1699c103.01 -160.67 206.06 -321.34 309.069 -482.01c6.78027 155.88 8.07031 311.76 3.7207 467.899
c-1.73047 61.7803 94.0996 61.5205 95.79 0.000976562z" />
    <glyph glyph-name="O" unicode="O" horiz-adv-x="647" 
d="M327.349 698.42c181.56 4.63965 288.74 -237.189 266.271 -396.279c-21.4102 -151.42 -146.34 -312.61 -316.08 -273.851c-335.12 76.5195 -284.5 744.81 49.8096 670.13zM489.72 271.451c28.2197 93.5098 -12.5293 321.339 -141.51 331.809
c-8.11035 -3.28027 -17.6904 -3.98047 -28.4102 -1.18066c-3.5 -0.549805 -6.74023 -0.439453 -10.3506 -1.28906c-13.9297 -3.24023 -25.8994 -0.589844 -35.4795 5.2998c-74.3496 -9.24023 -113.92 -102.45 -126.74 -173.3
c-19.0498 -105.45 5.16016 -236.72 106.33 -293.01c109.09 -60.6797 205.03 28.5508 236.16 131.671z" />
    <glyph glyph-name="P" unicode="P" horiz-adv-x="546" 
d="M142.831 696.99c151.94 48.9199 345.521 -30.291 351.821 -210.341c6.25977 -178.8 -184.84 -268.069 -335.64 -219.77c2.05957 -65.4697 4.15918 -130.93 6.21875 -196.399c1.95996 -61.75 -93.8301 -61.4902 -95.79 0
c-6.44043 203.77 -12.9307 407.59 -19.4111 611.359c-1.80957 56.0801 76.8906 60.8301 92.8008 15.1504zM155.662 372.439c91.5498 -53.6396 253.329 -13.1895 242.939 115.98c-9.99023 123.97 -155.04 151.68 -250.05 107.319
c2.38965 -74.4199 4.75 -148.88 7.11035 -223.3z" />
    <glyph glyph-name="Q" unicode="Q" horiz-adv-x="724" 
d="M504.83 61.8896c16.8701 -21.3701 33.748 -42.7373 50.6582 -64.1377c37.8398 -47.9004 -29.5498 -116.091 -67.7197 -67.7607c-23.0596 29.2197 -46.1592 58.4395 -69.2295 87.6494c-83.3301 -26.2695 -178.17 -11.7891 -270.49 67.3105
c-227.54 195.01 -28.7803 780.479 286.479 592.47c2.36035 -1.40039 4.31055 -3.02051 6.27051 -4.60059c95.9404 2.5 195.891 -73.9102 222.011 -181.67c38.9404 -160.79 -35.9893 -340.28 -157.979 -429.261zM317.118 612.173
c-185.32 -13.7402 -297.14 -515.792 34.6299 -510.012c-22.8096 28.8896 -45.6094 57.7695 -68.4189 86.6191c-37.7998 47.8896 29.5498 116.09 67.7598 67.75c33.0098 -41.7803 66.0195 -83.5898 99.0293 -125.37c68.9697 45.6104 109.97 136.761 122.46 215.451
c8.15039 51.3604 8.04004 111.341 -15.0996 159.161c-10.3896 21.4805 -24.4297 40.4902 -44.54 53.7598c-43.8496 28.9199 -114.33 13 -140.67 -34.4902c-29.9199 -54.0098 -112.63 -5.63965 -82.71 48.3408c8.29004 14.96 17.6797 27.4102 27.5596 38.79z" />
    <glyph glyph-name="R" unicode="R" horiz-adv-x="590" 
d="M529.529 87.1699c36.04 -50.2598 -47.0811 -98.0098 -82.7109 -48.3398c-71.3203 99.4697 -168.63 163.649 -285.53 194.749c0.44043 -54.3398 0.920898 -108.649 1.37109 -162.959c0.509766 -61.75 -95.2803 -61.5996 -95.7998 0
c-1.50977 180.57 -3.01953 361.141 -4.55957 541.7c-18.46 21.2598 -17.7998 62.3398 13.4102 79.4297c8.76953 8.04004 20.6299 12.1602 32.6797 12.3799c127.21 39.6104 294.74 23.4004 339.57 -124.97c39.5 -130.64 -53.9004 -227.5 -161.44 -288.55
c96.9297 -44.2803 177.84 -112.521 243.01 -203.44zM158.049 618.62c0.80957 -94.0596 1.58008 -188.12 2.38965 -282.18c86.8398 31.9502 231.63 105.37 195.2 217.26c-27.4502 84.1904 -121.99 83.7803 -197.59 64.9199z" />
    <glyph glyph-name="S" unicode="S" horiz-adv-x="600" 
d="M384.209 377.08c111.82 -50.3301 202.711 -153.851 149.511 -282.101c-98.7402 -238.01 -571.8 -138.2 -469.26 120.07c22.5098 56.7002 115.13 31.8301 92.3604 -25.46c-50.5098 -127.15 159.79 -168.45 239.96 -115.101c125.26 83.3398 16.0195 188.3 -77.2607 226.25
c-95.2803 38.7598 -213.65 78.6602 -237.23 194.05c-17.5 85.7002 34.1104 168.63 110.891 204.96c101.47 47.9697 202.71 6.41016 283.1 -60.3096c47.5303 -39.4199 -20.5898 -106.81 -67.71 -67.7197c-62.3799 51.7598 -235.21 91.3301 -234.25 -43.4697
c0.660156 -95.3496 142.55 -120.85 209.89 -151.17z" />
    <glyph glyph-name="T" unicode="T" horiz-adv-x="641" 
d="M543.651 692.9c61.75 0.25 61.5996 -95.5391 0 -95.7891c-62.2598 -0.230469 -124.56 -0.480469 -186.829 -0.740234c-1.33008 -186.54 -2.69043 -373.07 -4.01074 -559.61c-0.450195 -61.71 -96.2402 -61.6299 -95.7998 0
c1.33008 186.43 2.69043 372.819 4.02051 559.239c-54.9004 -0.219727 -109.83 -0.439453 -164.76 -0.65918c-61.75 -0.259766 -61.6396 95.5303 0 95.79c149.1 0.589844 298.239 1.17969 447.379 1.76953z" />
    <glyph glyph-name="U" unicode="U" horiz-adv-x="622" 
d="M527.87 692.09c38.6504 -147.67 64.5107 -312.393 20.9209 -462.202c-43.1396 -148.29 -191.279 -279.48 -344.249 -178.98c-195.71 128.55 -166.35 434.38 -121.77 627.95c13.8496 60.1602 106.18 34.5605 92.3701 -25.459
c-30.5498 -132.63 -49.5898 -284.54 2.24023 -414.88c23.0996 -58.1396 70.4092 -126.96 140.299 -127.22c69.8896 -0.299805 113.659 69.1104 133.699 127.771c46.7598 136.72 19.6396 291.83 -15.8799 427.561c-15.6504 59.79 76.7793 85.0303 92.3691 25.46z" />
    <glyph glyph-name="V" unicode="V" horiz-adv-x="591" 
d="M445.417 690.5c16.3896 59.4697 108.787 34.0801 92.3574 -25.4199c-59.1299 -214.5 -129.43 -424.87 -211.14 -631.78c-11.7197 -29.6602 -54.9395 -52.1299 -80.0596 -21.1494c-29.8496 36.7695 -43.3994 78.2891 -56.8496 123.319
c-51.0303 170.98 -92.1104 345.36 -137.9 517.78c-15.8799 59.7305 76.5605 85 92.3604 25.46c43.4004 -163.43 84.2207 -327.75 130.171 -490.52c1.17969 -4.28027 2.45996 -8.87988 3.83008 -13.71c63.1104 169.55 119.07 341.39 167.23 516.02z" />
    <glyph glyph-name="W" unicode="W" horiz-adv-x="786" 
d="M639.246 673.92c0.549805 61.71 96.3105 61.6396 95.8301 -0.0302734c-1.99023 -232.33 -59.3506 -452.95 -170.251 -657.13c-21.3301 -39.2402 -73.5801 -24.3506 -87.54 11.459c-39.0898 100.1 -71.4395 202.34 -91.999 307.67
c-44.2402 -107.36 -95.3105 -211.7 -149.36 -314.42c-19.1504 -36.4297 -77.8408 -27.5898 -87.5312 11.46c-51.25 206.47 -83.75 415.04 -98.2598 627.21c-4.24023 61.6396 91.5898 61.1592 95.79 -0.000976562c10.9805 -160.26 33.3408 -318.17 66.1709 -474.72
c48.1504 97.4199 92.4707 196.63 128.061 299.5c12.79 36.9502 18.8301 91.2998 67.7598 94.1699c22.5801 1.36035 38.5 -16.3193 46.2002 -35.1494c15.1797 -37.0596 8.25 -93.6191 13.96 -132.629c12.3398 -84.4102 34.7402 -166.79 61.8604 -247.55
c71.1396 161.11 107.76 330.74 109.31 510.16zM443.867 494.79c5.16016 4.53027 3.73047 7.15039 0 0z" />
    <glyph glyph-name="X" unicode="X" horiz-adv-x="637" 
d="M577.459 81.1602c36.04 -50.2197 -47.0801 -97.999 -82.75 -48.3389c-57.0996 79.5801 -114.239 159.2 -171.39 238.78c-53.6797 -85.7002 -106.18 -172.13 -156.62 -259.93c-30.7197 -53.5303 -113.47 -5.19043 -82.71 48.3398
c57.4805 99.9902 117.271 198.471 178.95 295.74c-68.0498 94.7598 -136.06 189.52 -204.069 284.279c-36.04 50.21 47.0801 97.96 82.71 48.3301c58.9805 -82.1904 118 -164.391 176.99 -246.581c54.3398 83.2197 109.79 165.75 167.3 246.95
c35.3701 49.96 118.41 2.07031 82.71 -48.3301c-65.5801 -92.5898 -128.8 -186.689 -190.21 -281.89c66.3896 -92.4404 132.739 -184.91 199.089 -277.351z" />
    <glyph glyph-name="Y" unicode="Y" 
d="M527.658 693.01c30.25 53.79 112.961 5.44922 82.751 -48.3408c-63.4004 -112.78 -126.811 -225.55 -190.221 -338.359c0.259766 -61.0195 0.450195 -121.989 0.480469 -182.999c0 -12.6396 0.44043 -25.3896 0.0400391 -38.0195
c0.919922 -3.87012 1.25 -8 1.17969 -12.3096v-0.0400391c-0.0800781 -2.91016 -0.219727 -5.85059 -0.80957 -8.99023c-1.25977 -6.66016 -2.13965 -12.6006 -6.33984 -18.6406c-13.6699 -19.6699 -43.3604 -33.0498 -65.54 -17.2002
c-27.3398 19.5195 -24.2803 46.6396 -24.3203 75.9297c-0.110352 63.4404 -0.220703 126.891 -0.480469 190.331c-77.5098 119.3 -164.5 231 -261.21 335.38c-41.8896 45.2002 25.71 113.07 67.71 67.75c85.3301 -92.0703 163.22 -190.141 234.43 -293.271
c54.0898 96.2695 108.21 192.51 162.33 288.779zM328.089 87.1992c-2.20996 -4.37988 -1.17969 -4.26953 0 0zM421.889 72.8691c0.480469 -2.05957 0.330078 -1.66016 0 0z" />
    <glyph glyph-name="Z" unicode="Z" horiz-adv-x="640" 
d="M555.559 94.5c59.9805 -14.4805 34.4531 -106.853 -25.4473 -92.3721c-106.04 25.6104 -213.62 30.8408 -319.98 4.7207c-39.2402 -9.62012 -100.36 -41.4102 -128.25 5.22949c-29.1104 48.71 45.1299 113.99 70.4395 147.11c103.75 135.66 198.77 277.54 290.289 421.63
c-115.65 -9.36035 -230.641 -7.59082 -346.99 6.22949c-60.5703 7.17969 -61.0801 103.05 0 95.79c147.52 -17.5 292.789 -16.4004 439.979 3.30957c36.6904 4.94043 58.8008 -44.0596 41.3311 -72.0596c-97.7402 -156.84 -198.73 -311.8 -309.221 -459.979
c-9.94043 -13.3799 -19.8203 -27.96 -29.9502 -42.5195c15.29 1.62012 27.8496 2.73047 33.8594 3.4707c95.4902 11.71 190.7 1.9502 283.94 -20.5596z" />
    <glyph glyph-name="bracketleft" unicode="[" horiz-adv-x="307" 
d="M221.253 656.31c25.5703 -4.63965 39.8301 -35.6689 33.4902 -58.9492c-7.2998 -26.4902 -33.4902 -38.0605 -58.9102 -33.4502c-14 2.54004 -28.2598 2.61035 -42.4502 1.58008c-2.34961 -208.9 -4.70996 -417.83 -7.07031 -626.73
c15.8398 1.29004 31.7197 2.62012 47.5596 3.91016c25.9404 2.12988 47.9004 -23.6201 47.9004 -47.9004c0 -27.3701 -22.1104 -45.79 -47.9004 -47.9004c-30.2803 -2.45996 -60.5703 -4.96973 -90.8506 -7.43945c-17.6504 -1.42969 -33.2705 10.1006 -41.5605 25.2002
c-7.04004 7.58984 -11.5996 17.9102 -11.46 31.3604c2.69043 238.74 5.38086 477.51 8.07129 716.25c0.410156 35.5898 32.3906 50.5195 59.3203 45.0293c34.7002 5.70996 68.71 5.4502 103.86 -0.959961z" />
    <glyph glyph-name="backslash" unicode="\" horiz-adv-x="476" 
d="M420.194 37.9404c25.9004 -55.5898 -56.7002 -104.188 -82.7197 -48.3389c-94.1699 202.12 -188.34 404.28 -282.51 606.4c-25.9004 55.5898 56.71 104.149 82.7197 48.3291c94.1699 -202.15 188.34 -404.271 282.51 -606.391z" />
    <glyph glyph-name="bracketright" unicode="]" horiz-adv-x="303" 
d="M251.572 -99.8896c0.410156 -2.46973 0.80957 -4.92773 0.80957 -7.4375c0 -26.5596 -22.0303 -46.9697 -47.8906 -47.8994c-30.8398 -1.09961 -61.71 -2.23926 -92.5498 -3.34961c-25.9697 -0.959961 -47.8994 22.6602 -47.8994 47.9004
c0 26.5596 22.04 46.9697 47.9004 47.8896c14.5195 0.519531 29 1.06934 43.5098 1.58887c-1.83984 205.84 -3.71973 411.68 -5.55957 617.52c-21.8896 -0.480469 -43.5898 1.46973 -65.7695 7.0293c-59.8701 15.04 -34.3301 107.36 25.46 92.3701
c18.8701 -4.75 38.54 -6.41016 57.7305 -3.06055c9.07031 1.58984 17.8701 0.519531 26.2002 -1.80078c25.0195 1.54004 51.4297 -13.71 51.7295 -45.9795c2.09961 -234.91 4.22949 -469.86 6.3291 -704.771z" />
    <glyph glyph-name="asciicircum" unicode="^" horiz-adv-x="453" 
d="M396.831 515.06c26.8203 -55.2695 -55.8174 -103.792 -82.707 -48.3018c-28.0098 57.6904 -56.04 115.391 -84.04 173.081c-29.96 -48 -59.9102 -96.0098 -89.8604 -144.02c-32.6104 -52.2402 -115.431 -4.12012 -82.7109 48.3398
c45.4199 72.8398 90.8896 145.71 136.35 218.55c17.7598 28.4502 66.3193 33.75 82.709 0c40.0898 -82.5596 80.1699 -165.09 120.26 -247.649z" />
    <glyph glyph-name="underscore" unicode="_" horiz-adv-x="758" 
d="M673.23 -108.5c60.8604 -8.87988 34.8486 -101.171 -25.4609 -92.3711c-183.37 26.6797 -366.96 32.4199 -551.72 19.8203c-61.6396 -4.2002 -61.1592 91.6299 0.000976562 95.79c193.83 13.2305 385.04 4.7207 577.18 -23.2393z" />
    <glyph glyph-name="grave" unicode="`" horiz-adv-x="247" 
d="M131.572 731.06c38.7197 -34.1104 58.8008 -80.1982 64.7012 -130.639c3.01953 -25.8604 -24.3203 -47.8906 -47.9004 -47.8906c-28.04 0 -44.9102 22.21 -47.8906 47.8896c-2.62012 22.5098 -17.21 45.8301 -36.6299 62.9297c-19.4902 17.1699 -17.4199 50.29 0 67.71
c19.0898 19.1299 48.3096 17.0996 67.7197 0z" />
    <glyph glyph-name="a" unicode="a" horiz-adv-x="533" 
d="M478.919 68.8701c19.9697 -58.5801 -72.5801 -83.4912 -92.3203 -25.4209c-10.25 30.0195 -19.2002 60.2695 -27.2705 90.6699c-13.8896 -26.6797 -31.3496 -50.8496 -53.8594 -70.8496c-56.3301 -50.0703 -136.5 -50.7305 -192.25 0.549805
c-156.72 144.28 2.87988 500.69 206.84 395.65c20.5898 36.1504 87.5 27.8906 89.6396 -24.0195c5.19043 -125.96 28.5908 -247.32 69.2207 -366.58zM189.819 125.609c85.4404 -40.2695 112.33 123.6 120.55 229.93c-4.61035 1.33008 -9.29004 3.28027 -14 6.56055
c-124.75 86.21 -218.04 -183.96 -106.55 -236.49z" />
    <glyph glyph-name="b" unicode="b" horiz-adv-x="532" 
d="M272.924 483.86c112.85 -0.990234 212.729 -107.609 208.489 -220.169c-5.2002 -139.74 -207.391 -276.91 -322.521 -205.8c-7 -50.2197 -91.2197 -46.1299 -95.46 11.0498c-15.3301 206.43 -17.54 412.569 -6.62988 619.289c3.24023 61.4199 99.0303 61.5996 95.79 0
c-4.34961 -82.4502 -6.00977 -164.83 -6.18945 -247.14c35.1504 27.0098 79.2803 43.2197 126.521 42.7695zM384.773 255.842c10.21 63.5996 -48.959 130.39 -111.889 132.229c-69.71 2.07031 -114.58 -56.3301 -106.88 -122.2
c2.13965 -18.1699 -4.90039 -30.7295 -15.9199 -38.0596c0.55957 -12.5996 1.47949 -25.2393 2.09961 -37.8789c16.7305 -2.24023 32.6504 -11.9307 40.2402 -31.501c14.5898 -37.6904 70.4795 -21.8408 97.3691 -9.80078c42.9199 19.2305 87.1699 58.5107 94.9795 107.211z
" />
    <glyph glyph-name="c" unicode="c" horiz-adv-x="460" 
d="M312.945 156.81c23.4697 56.1504 116.132 31.3477 92.4014 -25.4619c-39.3896 -94.1699 -143.5 -148.21 -240.47 -99.1797c-91.7402 46.3896 -121.11 166.13 -113.811 261.14c7.33008 95.3496 65.4297 191.55 168.439 201.46
c85.2598 8.17969 155.37 -48.4102 161.96 -133.63c4.79004 -61.5596 -91.0703 -61.0498 -95.79 0c-2.7998 36.1797 -44.5 44.9102 -73.6104 34.8906c-47.6699 -16.3896 -63.8799 -71.1396 -66.0596 -116.35c-2.28027 -47.4102 6.00977 -110.97 40.8994 -146.779
c37.7305 -38.7197 105.04 -26.2998 126.04 23.9102z" />
    <glyph glyph-name="d" unicode="d" horiz-adv-x="528" 
d="M446.851 672.35c10.21 -209.08 20.4092 -418.199 30.6191 -627.279c3.01953 -61.71 -92.8105 -61.3799 -95.791 0c-0.299805 5.70996 -0.55957 11.46 -0.849609 17.1699c-39.0898 -31.0996 -90.2598 -46.9395 -143.279 -40.5996
c-109.28 13.0801 -183.88 111.19 -187.42 218.03c-3.65039 110.64 69.6699 223.859 181.01 247.919c46.4199 10.0498 92.0303 2.05957 129.83 -18.6807c-3.28027 67.8203 -6.58984 135.61 -9.91016 203.44c-3.01953 61.71 92.8105 61.3398 95.791 0zM353.159 191.41
c2.99023 14.2598 10.5 23.5801 19.9297 28.9199c-1.03027 21.5098 -2.10059 42.9902 -3.13086 64.5098c-7.50977 7.62988 -12.5996 18.1602 -12.7793 31.9102c-1.03027 76.8896 -89.71 97.5898 -146.05 60.0498c-47.8896 -31.9102 -72.0996 -95.9805 -64.1396 -152.12
c15.29 -107.92 179.61 -160.67 206.17 -33.2695z" />
    <glyph glyph-name="e" unicode="e" horiz-adv-x="491" 
d="M336.177 93c47.5303 38.3896 115.688 -28.9893 67.7178 -67.749c-131.64 -106.41 -275.319 -15.4404 -328.379 126.18c-0.700195 1.95996 -0.990234 4.01953 -1.69043 5.96973c-24.8301 15.5498 -30.29 50.9502 -16.21 72.0303c-14 114.21 27.4102 235.68 127.62 300.08
c73.6504 47.3496 163.4 35.4395 215.94 -36.4707c48.7002 -66.6504 52.8301 -162.07 9.98047 -232.7c-48.4102 -79.8799 -137.05 -108.43 -225.92 -113c32.9404 -63.1104 86.29 -106.62 150.94 -54.3398zM149.574 292.171
c-1.03027 -14.04 0.398438 -31.459 3.74805 -50.0986c73.21 -1.29004 156.22 12.4902 184.33 84.3701c15.9902 40.96 7.48047 109.64 -36.6191 131.409c-82.2695 40.5996 -147.189 -108.351 -151.459 -165.681z" />
    <glyph glyph-name="f" unicode="f" horiz-adv-x="528" 
d="M470.67 666.2c32.0898 -52.9102 -50.7676 -100.991 -82.6777 -48.3809c-45.0498 74.2803 -118.189 -39.4502 -127.909 -89.4102c-1.50977 -7.62988 -2.17969 -15.7695 -2.58008 -24.0596c23.54 0.919922 47.0498 1.83984 70.5498 2.75977
c61.75 2.40039 61.46 -93.3896 0 -95.79c-22.9902 -0.879883 -45.9805 -1.7998 -68.9707 -2.68945c-2.28027 -177.03 -7.66016 -354.021 -13.3701 -530.94c-1.99023 -61.5996 -97.7803 -61.6699 -95.79 0c5.55957 173.05 -1.77051 351.7 4.70996 526.851
c-19.4902 -0.769531 -38.9404 -1.50977 -58.4307 -2.2793c-61.75 -2.42969 -61.4502 93.3906 0 95.791c21.2598 0.849609 42.4795 1.65918 63.7393 2.49902c1.32031 18.2803 2.5 36.5898 4.26953 54.75c13.3799 137.06 215.83 260.3 306.46 110.899z" />
    <glyph glyph-name="g" unicode="g" horiz-adv-x="522" 
d="M444.261 360.77c30.21 -179.46 56.8926 -390.819 -40.5977 -535.949c-90.4102 -134.47 -309.88 -130.2 -331.25 50.29c-7.25977 61.2002 88.6406 60.5 95.791 0c7.21973 -61.1904 78.4395 -60.5303 117.01 -37.0605c32.46 19.7803 54.2695 62.8506 65.1396 97.1904
c15.5098 48.96 18.3496 101.61 18.5293 152.971c-4.41992 -5.33984 -8.7998 -10.7197 -13.6699 -15.8398c-60.71 -64.3301 -160.04 -99.1504 -232.69 -32.9805c-179.32 163.29 1.0293 557.54 245.699 470.74c22.29 6.70996 47.9297 -1.73047 56.1797 -32.2705
c10.1699 -37.6504 17.0996 -77.2207 19.8594 -117.091zM209.023 99.4102c57 -14.3301 107.439 75.3809 123.02 116.021c13.7803 35.8496 19.0498 72.6494 18.8994 109.609c-4.34961 31.9004 -8.98926 63.7705 -13.999 95.6006c-170.25 73.5 -253.33 -289.69 -127.92 -321.23
z" />
    <glyph glyph-name="h" unicode="h" horiz-adv-x="500" 
d="M425.137 357.05c20.7402 -98.6602 17.3594 -206.652 24.2393 -307.162c4.24023 -61.6299 -91.5898 -61.1494 -95.79 0.000976562c-5.49023 79.6602 -10.75 159.311 -16.3896 238.931c-2.20996 31.2402 -4.01953 83.8506 -34.8496 103.271
c-67.6797 42.6299 -112.56 -124.79 -120.439 -160.6c-2.42969 -11.1201 -7.62988 -19.2705 -14.2998 -24.8701c1.83984 -46.5703 3.71973 -93.1006 5.56934 -139.671c2.45996 -61.75 -93.3604 -61.4102 -95.8008 0c-9.09961 229.05 -18.2295 458.1 -27.3291 687.159
c-2.46973 61.7402 93.3604 61.4102 95.79 0c4.41992 -111.64 8.87988 -223.229 13.2998 -334.869c40.9297 57.0303 98.1494 94.6904 171.979 65.1807c52.2402 -20.8896 82.9004 -74.3896 94.0205 -127.37z" />
    <glyph glyph-name="i" unicode="i" horiz-adv-x="208" 
d="M154.206 86.7402c4.23047 -10.25 4.81934 -22.1104 0.139648 -34.4902c-2.91016 -3.65039 -15.5801 -23.9805 -21.9199 -28.3301c-14.5898 -9.98047 -33.5195 -7.29004 -48.3398 0c-31.1602 15.3604 -25.5303 61.8604 -26.2998 90.3008
c-3.05957 114.55 -5.08984 229.16 -7.76953 343.74c-1.44043 61.79 94.3496 61.5303 95.79 0c2.42969 -103.45 4.63965 -206.9 7 -310.36c0.44043 -18.9697 3.79004 -40.2998 1.50977 -59.1699c-0.0800781 -0.740234 -0.0400391 -0.990234 -0.110352 -1.69043z
M153.985 83.6406c-1.15039 -15.9102 3.41992 -10.8301 0 0zM152.245 46.7607c0.919922 1.83984 1.43945 3.68945 2.13965 5.48926c1.13965 1.48047 0.879883 0.520508 -2.13965 -5.48926zM103.545 576.121c-61.71 0 -61.6396 95.79 0 95.79c61.75 0 61.6396 -95.79 0 -95.79
z" />
    <glyph glyph-name="j" unicode="j" horiz-adv-x="278" 
d="M131.978 585.88c-61.75 0 -61.6396 95.79 0 95.79c61.75 0 61.6396 -95.79 0 -95.79zM181.897 486.55c27.9297 -160.19 116.43 -557.089 -78.6904 -663.309c-88.0596 -47.9004 -207.279 23.3594 -184.329 127.399c13.2998 60.2695 105.63 34.5996 92.3701 -25.46
c-5.26953 -23.8701 40.1201 -26.4102 63.9902 -1.5498c38.3896 40.0195 42.6992 123.649 45.499 174.05c6.75 121.69 -10.3799 243.86 -31.2002 363.42c-10.54 60.3799 81.79 86.0596 92.3604 25.4492z" />
    <glyph glyph-name="k" unicode="k" horiz-adv-x="506" 
d="M447.6 58.1797c32.6104 -52.5703 -50.291 -100.613 -82.6709 -48.373c-44.0996 71.0303 -100.029 132.851 -165.799 184.101c-12.7803 -12.0801 -25.0801 -24.6797 -38.6104 -36.0996c-4.70996 -3.98047 -9.65039 -6.64062 -14.6201 -8.59082v-78.7988
c0 -61.75 -95.79 -61.6396 -95.79 0c-0.0400391 217.07 -0.0800781 434.15 -0.110352 651.23c0 61.75 95.79 61.6299 95.79 0c0.0302734 -148.85 0.0302734 -297.729 0.0703125 -446.609c67.9004 67.2402 124.42 143.32 168.63 229.53
c28.1504 54.9297 110.79 6.41016 82.71 -48.3398c-35.96 -70.1797 -80.79 -134.439 -132.01 -193.42c71.7402 -57.8799 133.3 -125.52 182.41 -204.63z" />
    <glyph glyph-name="l" unicode="l" horiz-adv-x="217" 
d="M145.819 702.19c6.88965 -217.11 13.8193 -434.221 20.709 -651.301c1.9502 -61.75 -93.8398 -61.4902 -95.79 0c-6.88965 217.11 -13.8193 434.19 -20.709 651.301c-1.9502 61.75 93.8398 61.4902 95.79 0z" />
    <glyph glyph-name="m" unicode="m" horiz-adv-x="691" 
d="M636.845 309.27c5.79004 -81.6797 1.9209 -164.576 2.07129 -246.326c0.110352 -61.75 -95.6797 -61.6396 -95.79 0c-0.110352 87.46 11.5693 185.24 -4.76074 271.931c-14.25 75.6396 -114.65 99.0693 -140.37 9.76953
c-0.360352 -1.29004 -0.950195 -2.29004 -1.40039 -3.5c0.370117 -10.0303 0.480469 -19.9707 0.480469 -29.7012c0.0800781 -83.6299 -8.17969 -167.56 -12.6299 -251.01c-3.28027 -61.4199 -99.0703 -61.5996 -95.8008 0c4.94043 92.5498 19.2705 189.89 11.9805 282.699
c-1.25 16.2803 -1.44043 37.3203 -13.1201 50.3203c-42.7695 47.5996 -106.729 -22.0703 -138.31 -56.2607c2.09961 -95.46 4.19922 -190.88 6.30957 -286.34c1.36035 -61.7803 -94.4297 -61.5605 -95.7998 -0.000976562c-3.24023 146.53 -6.44043 293.09 -9.69043 439.649
c-1.36035 61.7803 94.4297 61.5605 95.7998 0.000976562c0.219727 -10.6104 0.469727 -21.1904 0.700195 -31.8008c70.7002 47.0898 157.681 69.9297 213.761 -2.5c73.4199 63.5498 192.43 59.8994 249.97 -41.0107c18.6797 -32.75 23.9893 -68.8604 26.5996 -105.92z" />
    <glyph glyph-name="n" unicode="n" horiz-adv-x="509" 
d="M454.364 350.79c7.04004 -95.0195 1.11133 -191.689 0.741211 -286.779c-0.219727 -61.75 -96.0098 -61.6396 -95.79 0c0.290039 76.3701 1.87988 152.82 1.03027 229.19c-0.330078 29.7402 3.45996 67.6807 -7.74023 96.1309
c-46.0098 116.82 -166.49 -40.1299 -192.76 -90.7803c-2.24023 -4.34961 -4.93066 -7.81934 -7.77051 -10.9092c2.09961 -73.54 4.19922 -147.04 6.29883 -220.54c1.76953 -61.75 -94.0205 -61.4902 -95.79 0c-4.16016 146.56 -8.36035 293.119 -12.5605 439.679
c-1.76953 61.79 94.0205 61.5303 95.79 0c0.589844 -21.1797 1.20996 -42.3301 1.7998 -63.5205c76.0801 78.5195 184.44 128.659 268.66 26.1992c28.1504 -34.2305 34.8906 -75.5703 38.0908 -118.67z" />
    <glyph glyph-name="o" unicode="o" horiz-adv-x="510" 
d="M439.682 367.04c31.6797 -86.6904 28.8496 -200.39 -30.7305 -275c-65.3604 -81.75 -193.391 -89.9297 -274.07 -24.8701c-86.8799 70.04 -101.21 203.15 -69.3398 304.29c27.8496 88.3799 99.29 156.03 190.66 121.58c81.6396 13.2598 151.83 -39.46 183.48 -126z
M304.062 127.191c104.04 47.79 64.1797 328.379 -58.29 262.609c-23.3496 -12.5195 -45.5293 -4.33984 -58.9795 11.2803c-34.1904 -27.2998 -42.04 -125.6 -39.8604 -151.76c6.37012 -77.1396 69.8896 -162.18 157.13 -122.13z" />
    <glyph glyph-name="p" unicode="p" horiz-adv-x="526" 
d="M473.876 290.37c9.7998 -96.0898 -44.9795 -187.128 -131.01 -229.418c-63.4102 -31.1699 -130.57 -31.0195 -190.99 -7.21973c0.919922 -67.21 1.83984 -134.41 2.75977 -201.57c0.849609 -61.75 -94.9404 -61.5996 -95.79 0
c-1.21973 89.8604 -2.46973 179.761 -3.68945 269.61c-6.33008 12.2402 -5.78027 25.2803 -0.510742 36.6299c-1.5498 112.85 -3.09961 225.689 -4.63965 338.539c-0.849609 61.75 94.9404 61.5996 95.79 0c0.179688 -12.1904 0.330078 -24.3506 0.509766 -36.541
c126.89 70.29 310.37 -1.15039 327.57 -170.03zM150.396 162.232c91.5596 -62.4102 237.932 -11.5293 228.762 115.57c-9.07031 124.94 -169.261 155.7 -231.081 54.4199c0.769531 -56.6602 1.5498 -113.33 2.31934 -169.99z" />
    <glyph glyph-name="q" unicode="q" horiz-adv-x="505" 
d="M451.122 165.51c1.09961 -112.01 2.1709 -224.012 3.20117 -336.012c0.589844 -61.75 -95.2002 -61.5996 -95.79 0c-0.700195 72.7305 -1.40039 145.49 -2.10059 218.221c-101.54 -39.9404 -246.03 34.04 -290.21 147.521c-38.5 98.9199 -7.13965 224.26 79.9502 287.37
c64.9199 47.0498 143.25 49.9199 207.13 15.9502c10.4297 50.1797 94.1299 46.3193 94.6895 -11.2705c0.990234 -101.46 1.9502 -202.89 2.94043 -304.359c1.17969 -5.33984 1.25977 -11.1602 0.189453 -17.4199zM163.053 213.067
c35.0703 -65.7998 158.309 -130.609 192.169 -34.5596c-0.669922 67.0596 -1.29004 134.149 -1.95996 201.199c-5.51953 3.20996 -10.6797 7.62988 -15.1396 13.4795c-40.2998 52.9102 -119.81 38.1006 -158.159 -8.61914
c-38.7197 -47.1904 -45.4297 -118.04 -16.9102 -171.5z" />
    <glyph glyph-name="r" unicode="r" horiz-adv-x="471" 
d="M327.241 498.122c65.5801 -20.4844 102.163 -84.2568 92.1787 -150.537c-9.17383 -60.8643 -101.465 -34.8535 -92.3643 25.458c2.5791 17.0947 -21.3682 33.748 -38.6475 35.8477c-56.7373 6.88965 -110.675 -59.3164 -142.617 -98.4805v-256.204
c0 -61.748 -95.791 -61.6377 -95.791 0v429.807c0 61.748 95.791 61.6377 95.791 0v-37.3223c51.9111 42.8848 114.691 72.248 181.45 51.4316z" />
    <glyph glyph-name="s" unicode="s" horiz-adv-x="421" 
d="M258.992 313.28c64.6602 -23.4297 109.971 -79.541 112.261 -149.361c6.04004 -182.04 -235.91 -230.89 -315.601 -73.7197c-27.8496 54.9004 54.8203 103.341 82.71 48.3408c67.3203 -132.78 218.74 42 69.1602 89.0801
c-59.9404 18.8301 -116.721 42.2305 -139.891 106.04c-59.3604 163.5 142.14 270.53 261.17 163.431c45.9805 -41.3701 -21.9893 -108.87 -67.709 -67.75c-59.21 53.2305 -143.65 -24.5 -91.3408 -81.9805c21.96 -24.1299 60.6104 -23.7197 89.2402 -34.0801z" />
    <glyph glyph-name="t" unicode="t" horiz-adv-x="394" 
d="M258.527 96.21c48.0801 37.5 116.281 -29.8486 67.7217 -67.7188c-162.85 -127.11 -198.59 142.87 -202.05 368.5c-9.36035 0.589844 -18.71 1.17969 -28.1104 1.76953c-61.3398 3.83008 -61.5596 99.6201 0 95.79l28.4092 -1.76953
c1.46973 74.5 5.37012 134.33 7.11035 157.28c4.57031 61.2002 100.391 61.4902 95.791 0c-4.05957 -54.2998 -6.73926 -108.72 -8.10938 -163.21c24.0596 -1.50977 48.1592 -2.99023 72.209 -4.5c61.3496 -3.83008 61.5693 -99.6201 -0.000976562 -95.79
c-24.2803 1.50977 -48.5898 3.01953 -72.8701 4.5293c0.150391 -13.7002 0.110352 -27.4404 0.44043 -41.1504c0.769531 -30.6904 27.7793 -262.87 39.459 -253.73z" />
    <glyph glyph-name="u" unicode="u" horiz-adv-x="491" 
d="M438.501 480.51c10.3096 -131.34 -2.64844 -450.991 -210.698 -425.241c-192.95 23.8799 -190.561 304.729 -166.421 441.779c10.6797 60.7197 102.97 34.8193 92.3594 -25.4502c-13.8096 -78.3301 -18.4199 -165.021 10.7998 -240.7
c12.9297 -33.5195 39.4199 -77.2197 75.9697 -81.3496c32.75 -3.71973 61.7402 35.5205 76.1904 68.0508c35.8799 80.7598 32.75 176.92 26.0098 262.91c-4.83008 61.5703 91 61.0508 95.79 0.000976562z" />
    <glyph glyph-name="v" unicode="v" horiz-adv-x="522" 
d="M376.848 508.48c16.6904 59.3496 109.092 33.96 92.4014 -25.46c-46.3096 -164.51 -111.489 -321.12 -195.449 -469.93c-20.71 -36.7305 -75.8604 -27.1201 -87.54 11.46c-44.6504 147.29 -89.3008 294.59 -133.961 441.89c-17.9404 59.2002 74.5293 84.29 92.3691 25.46
c33.2305 -109.68 66.5 -219.33 99.7305 -329.01c54.5596 110.86 98.6992 225.74 132.449 345.59z" />
    <glyph glyph-name="w" unicode="w" horiz-adv-x="664" 
d="M611.481 484.34c9.87012 -166.05 -38.9502 -319.609 -136.62 -453.64c-24.7197 -33.9004 -72.8701 -29.1807 -87.5303 11.459c-19.6797 54.4902 -39.3496 108.98 -59.0293 163.471c-23.0195 -56.6699 -46.0498 -113.33 -69.0801 -169.99
c-14.4004 -35.4805 -65.9102 -51.29 -87.5303 -11.46c-74.46 137.16 -116.54 280.3 -121.66 436.62c-2.01953 61.75 93.7705 61.4902 95.79 0c3.42969 -104.37 25.2393 -201.12 63.7793 -294.48c25.0898 61.71 50.1797 123.42 75.2295 185.13
c17.8301 43.8799 75.5303 46.6797 92.3604 0c22.6299 -62.6699 45.25 -125.3 67.8701 -187.97c52.6504 98.2598 77.5908 203.7 70.6309 320.86c-3.69043 61.6797 92.1396 61.2695 95.79 0z" />
    <glyph glyph-name="x" unicode="x" horiz-adv-x="529" 
d="M387.383 493.63c35.7305 49.6201 118.779 1.76953 82.7393 -48.3008c-44.3896 -61.5996 -91.0293 -121.729 -139.079 -180.749c42.2998 -56.2305 84.5898 -112.45 126.89 -168.67c37.0996 -49.29 -46.0908 -97.0098 -82.7109 -48.3398
c-35.6299 47.3799 -71.29 94.7598 -106.92 142.14c-44.4297 -51.7598 -89.8193 -102.72 -136.939 -151.83c-42.8096 -44.6104 -110.46 23.21 -67.7598 67.7197c50.29 52.4297 98.7803 106.699 145.971 162.109c-42.3701 56.29 -84.7305 112.63 -127.101 168.92
c-37.0996 49.2998 46.0908 97.0098 82.7109 48.3398c35.5498 -47.3096 71.1396 -94.5791 106.689 -141.839c39.7197 49.29 78.5498 99.25 115.51 150.5z" />
    <glyph glyph-name="y" unicode="y" horiz-adv-x="458" 
d="M389.371 473.62c14.6602 -179.83 57.9512 -456.482 -90.7393 -595.412c-114.58 -107.1 -323.11 -39.7197 -290.141 131.601c11.6396 60.5703 103.97 34.7803 92.3701 -25.46c-8.50977 -44.2803 29.6504 -65.54 65.8701 -65.5098
c44.25 0.0400391 77.3701 33.9697 97.7402 69.3398c22.6299 39.3496 31.2803 88.4297 35.96 134.66c-28.3301 -10.2803 -59.2803 -13.6699 -88.5303 -8.17969c-153.93 28.7803 -173.899 221.24 -165.869 346.84c3.91016 61.3096 99.7402 61.5596 95.7998 0
c-4.65039 -72.8701 -11.0908 -227.47 84.0693 -252.149c41.3398 -10.7197 78.1797 16.3604 79.9893 49.9902c-0.929688 71.5498 -6.48926 143.14 -12.3096 214.279c-5.00977 61.5703 90.8203 61.0107 95.79 0.000976562z" />
    <glyph glyph-name="z" unicode="z" horiz-adv-x="533" 
d="M436.687 152.24c61.4902 5.45996 60.9004 -90.3701 0.0302734 -95.79c-97.7402 -8.69043 -194.78 -25.0908 -292.49 -33.4912c-42.7002 -3.67969 -99.5098 4.75 -92.5098 61.9297c5.55957 45.5098 63.1797 88.0195 91.7695 119.34
c58.6602 64.1797 112.34 132.01 162.109 202.93l-209.341 -3.53906c-61.79 -1.03027 -61.5596 94.7598 0 95.79c100.1 1.7002 200.17 3.35059 300.27 5.05078c35.2197 0.589844 61.0801 -41.5205 41.3398 -72.0703c-55.3096 -85.54 -115.399 -167.89 -181.749 -245.26
c-14.4102 -16.7998 -30.7598 -39.1602 -48.2295 -60.6797c76.1602 9.62012 152.271 18.9805 228.801 25.79zM110.587 117.28c0.519531 0.660156 2.54102 0.400391 4.68066 0.0703125c-1.66016 1.25977 -3.28027 1.62012 -4.68066 -0.0703125z" />
    <glyph glyph-name="braceleft" unicode="{" horiz-adv-x="402" 
d="M291.229 -37.0303c60.3799 9.16992 86.2119 -83.1211 25.4521 -92.291c-88.5303 -13.4902 -147.66 26.5195 -173.05 111.92c-20.3301 68.3799 -5.82031 200.72 -68.0107 248.29c-4.70996 3.61035 -8.29004 7.77051 -11.2705 12.1201
c-16.6201 16.9502 -21.8506 43.7998 0.958984 64.25c124.52 111.56 5.03906 335.75 182.879 401.33c58.0303 21.4004 82.8301 -71.2197 25.46 -92.3701c-60.3799 -22.29 -39.5996 -137.42 -45.7598 -188.3c-7.17969 -59.7197 -27.4795 -111.489 -63.8496 -155.729
c30.4004 -42.1904 42.6006 -93.5801 51.1406 -147.89c7.37012 -46.5703 4.83008 -172.17 76.0498 -161.33z" />
    <glyph glyph-name="verticalbar" unicode="|" horiz-adv-x="209" 
d="M145.798 745.03c4.24023 -259.04 8.44043 -518.121 12.6406 -777.121c0.990234 -61.79 -94.7998 -61.5703 -95.7998 0c-4.23047 259.04 -8.43066 518.08 -12.6309 777.12c-1 61.7803 94.79 61.5605 95.79 0.000976562z" />
    <glyph glyph-name="braceright" unicode="}" horiz-adv-x="424" 
d="M343.407 333.57c25.3496 -13.0098 41.7402 -49.9297 17.6504 -78.9893c-49.3301 -59.4297 -26.8604 -178.729 -50.0303 -250.68c-32.1299 -99.7305 -113.07 -143.98 -214.761 -143.101c-61.71 0.549805 -61.6699 96.3496 0 95.79
c172.35 -1.54004 123.859 194.05 170.069 317.399c-45.25 47.1201 -57.4404 113.63 -64.9902 177.47c-6.88965 58.4697 2.98047 170.84 -77.5195 173.46c-61.5996 1.99023 -61.6797 97.7803 0 95.79c88.9404 -2.87012 140.221 -57.1104 157.831 -141.88
c15.96 -76.9297 0.0400391 -186.899 61.75 -245.26z" />
    <glyph glyph-name="asciitilde" unicode="~" horiz-adv-x="586" 
d="M534.679 344.62c5.82031 -94.1699 -78.4814 -182.917 -176.041 -152.457c-40.8604 12.79 -66.6504 43.1797 -94.5703 73.3994c-39.2402 42.5098 -100.7 49.25 -119.71 -18.54c-16.6504 -59.3496 -109.011 -34 -92.3604 25.46
c22.7305 81.2002 97.1904 137.46 183.48 121.14c36.0303 -6.82031 63.5107 -25.0508 88.6006 -50.8408c12.8203 -13.1602 22.2207 -29.8506 36.5908 -41.6309c38.7197 -31.7598 81.5996 -11.3896 78.21 43.4707c-3.79004 61.6699 92 61.2295 95.7998 -0.000976562z" />
    <glyph glyph-name="nonbreakingspace" unicode="&#xa0;" horiz-adv-x="292" 
 />
    <glyph glyph-name="exclamdown" unicode="&#xa1;" horiz-adv-x="203" 
d="M150.941 490.68c0.80957 -150.36 1.66016 -300.75 2.46973 -451.1c0.330078 -61.75 -95.46 -61.6396 -95.79 0c-0.820312 150.35 -1.66016 300.739 -2.46973 451.1c-0.330078 61.75 95.46 61.5996 95.79 0zM56.9521 605.88
c-0.259766 0.519531 -0.550781 1.00098 -0.810547 1.55078c-11.0898 20.4102 -6.2998 40.5703 7.48047 58.0303c6.25977 7.91992 15.1797 11.3496 24.3496 14.6299c15.3301 5.49023 35.7402 -0.629883 46.6104 -12.3096
c0.400391 -0.400391 0.770508 -0.850586 1.18066 -1.25098c17.6797 -19.0098 18.8594 -48.8896 -0.000976562 -67.7598c-5.0498 -5.04004 -11.3496 -8.36035 -18.0498 -10.6406c-20.3799 -10.5 -46.6494 -8.21973 -60.7598 17.75z" />
    <glyph glyph-name="cent" unicode="&#xa2;" horiz-adv-x="543" 
d="M404.338 152.23c26.9404 55.5195 109.5 6.88379 82.6396 -48.3467c-29.9902 -61.9004 -86.3203 -97.7803 -148.4 -106.92c0.219727 -25.3096 0.179688 -50.5791 0.509766 -75.8887c0.820312 -61.75 -94.9795 -61.5996 -95.7891 0
c-0.360352 27.8096 -0.330078 55.5898 -0.549805 83.3701c-9.16992 2.73047 -18.4199 5.34082 -27.3701 9.29102c-139.01 61.3799 -177.58 224.04 -162.22 362.86c13.2598 119.59 74.9395 244.6 191.209 293.27c2.36035 0.990234 4.79004 1.43066 7.15039 2.32031
c0.849609 24.9404 1.46973 49.9209 2.42969 74.8613c2.40039 61.5303 98.1904 61.6406 95.79 0.000976562c-0.80957 -20.96 -1.29004 -41.96 -2.02051 -62.9297c53.9004 -7.50977 101.681 -39.5293 126.03 -96.6689c23.9199 -56.1104 -58.6104 -104.891 -82.71 -48.3408
c-11.0098 25.8301 -27.2197 41.1201 -46.4893 47.71c-4.71973 -164.06 -6.92969 -328.119 -6.55957 -492.209c27.4502 8.13965 51.4697 26.8896 66.3496 57.6201zM235.938 110.515c2.01953 -1.25 4.16211 -1.99121 6.18164 -3.09082
c-0.219727 151.86 1.74023 303.69 5.90039 455.48c-56.0703 -40.2695 -87.0205 -111.819 -97.6709 -177.869c-15.1104 -93.7305 -3.7207 -220.03 85.5889 -274.521z" />
    <glyph glyph-name="sterling" unicode="&#xa3;" horiz-adv-x="662" 
d="M520.606 88.2305c34.1201 51.0703 117.046 3.05859 82.7461 -48.3418c-49.7695 -74.4902 -115.02 -116.01 -205.949 -104.04c-73.2402 9.69043 -175.74 82.6807 -243.42 34.1211c-0.879883 -0.669922 -1.76953 -1 -2.64941 -1.5498
c-40.8604 -31.8301 -98.6299 30.9795 -60.46 74.5293c60.5303 69.0801 81.9805 137.42 88.5703 211.74c-27.7402 -0.299805 -55.4502 -0.589844 -83.1904 -0.889648c-61.75 -0.660156 -61.5996 95.1299 0 95.79c28.4805 0.330078 56.9609 0.629883 85.4414 0.919922
c-0.410156 18.6504 -1.03027 37.6904 -1.66016 57.3701c-2.42969 76.0801 2.4707 153.63 47.6709 217.89c79.6904 113.25 226.66 104.92 318.66 13.1104c43.6904 -43.6602 -24.0596 -111.34 -67.7598 -67.75c-80.7197 80.54 -178.17 37.7305 -199.1 -70.3291
c-9.45996 -49.0098 -3.63965 -99.4795 -0.469727 -149.289c64.25 0.660156 128.54 1.36035 192.79 2.03027c61.75 0.660156 61.5996 -95.1299 0 -95.7998c-64.4297 -0.660156 -128.84 -1.36035 -193.27 -2.02051c-5.0498 -65.5801 -21.2197 -124.311 -50.3701 -179.761
c107.77 -17.2402 220.289 -95.6807 292.419 12.2695z" />
    <glyph glyph-name="currency" unicode="&#xa4;" horiz-adv-x="660" 
d="M603.19 494.29c13.8496 -23.6904 3.94336 -50.665 -17.167 -65.5146c-28 -19.71 -55.96 -39.4199 -83.96 -59.1299c3.94043 -19.5996 5.41016 -39.5693 3.83008 -58.7998c-2.75977 -33.8604 -14 -63.9199 -31.4297 -89.3096
c20.1201 -23.0996 40.2305 -46.2393 60.3506 -69.3389c17.0195 -19.5996 19.3799 -48.3691 0 -67.749c-17.4297 -17.3896 -50.7695 -19.5293 -67.75 0.000976562c-21.96 25.2002 -43.8799 50.4004 -65.7998 75.6006c-11.0898 -5.2998 -22.8096 -9.60938 -35.1494 -12.9697
c-3.58008 -1.50977 -7.41016 -2.75977 -11.9004 -3.41992c-4.57031 -1 -8.87988 -1.17969 -13.04 -1c-40.4902 -3.87012 -78.9902 2.83984 -111.42 20.0098c-36.1797 -21.7002 -72.3594 -43.4004 -108.529 -65.1006c-53.0596 -31.8398 -101.14 51.0205 -48.3398 82.7109
c29.29 17.5703 58.54 35.1104 87.8301 52.6807c-6.04004 11.8301 -11.2705 24.4297 -14.8809 38.4697c-12.5303 48.6699 -5.68066 103.34 20.2998 146.26c-21.6299 25.2803 -43.2598 50.5498 -64.8799 75.8193c-16.8799 19.75 -19.4902 48.2695 0 67.7598
c17.3096 17.2803 50.9092 19.6699 67.749 0c23.0996 -27.0098 46.1992 -54.0098 69.2988 -81.0195c8.87988 3.61035 18.0898 6.49023 27.3799 8.48047c9.75977 2.09961 21 4.15918 31.0195 3.93945c10.9805 -0.219727 11.3105 -1.10938 11.2002 -1.28906
c0.219727 0.179688 1.68945 0.919922 8.72949 2.83008c35.1504 9.46973 66.54 14.5195 100.8 -2.80078c16.7998 -8.50977 31.1299 -20.3301 43.2197 -34.1904c25.6797 18.0596 51.3193 36.1494 76.999 54.2393c21.2598 14.9902 53.3096 3.7207 65.54 -17.1689z
M235.244 319.055c1.37012 -52.6104 39.7207 -91.2197 93.5508 -83.1094c57.6201 12.1602 91.5098 53.5703 80.0898 113.62c-3.5 18.3799 -12.8604 45.1299 -30.54 54.5303c-18.5703 9.87012 -30.9805 -3.64941 -50.0303 -6.96973
c-28.3301 -4.92969 -52.9502 3.9502 -74.8701 -20.4102c-13.8496 -15.4004 -18.71 -37.4707 -18.2002 -57.6611z" />
    <glyph glyph-name="yen" unicode="&#xa5;" horiz-adv-x="619" 
d="M477.854 662.39c33.3096 51.6904 116.209 3.6123 82.6387 -48.3779c-60.0898 -93.1699 -120.18 -186.38 -180.27 -279.6c21.7002 -0.139648 43.4404 -0.330078 65.1406 -0.469727c61.71 -0.480469 61.6396 -96.2705 0 -95.8008
c-27.9697 0.230469 -55.9697 0.410156 -83.9297 0.629883c-0.0703125 -16.6904 -0.150391 -33.3809 -0.220703 -50.0713c25.7197 -0.700195 51.3994 -1.44043 77.1094 -2.14062c61.5996 -1.73047 61.6797 -97.5205 0 -95.79
c-25.8301 0.740234 -51.6904 1.44043 -77.5205 2.18066c-0.110352 -25.9404 -0.220703 -51.9102 -0.331055 -77.8906c-0.259766 -61.71 -96.0498 -61.6396 -95.79 0c0.150391 26.8604 0.260742 53.7207 0.371094 80.5811
c-14.6299 0.400391 -29.29 0.810547 -43.9199 1.21094c-61.5996 1.73047 -61.6699 97.5303 0 95.79c14.8096 -0.44043 29.5898 -0.84082 44.3594 -1.25098c0.0800781 16.0596 0.150391 32.0898 0.220703 48.1201c-24.7197 0.179688 -49.3994 0.370117 -74.1191 0.549805
c-61.7197 0.480469 -61.6396 96.2705 0 95.79c15.7998 -0.150391 31.6396 -0.260742 47.4492 -0.371094c-60.3496 92.04 -120.699 184.11 -181.049 276.141c-33.9297 51.7305 49.04 99.6904 82.7197 48.3408c56.4004 -86.0303 112.811 -172.061 169.211 -258.091
c55.9697 86.8398 111.97 173.68 167.93 260.52z" />
    <glyph glyph-name="section" unicode="&#xa7;" horiz-adv-x="596" 
d="M505.584 205.96c59.79 -70.8896 49.4434 -163.331 -15.877 -226.471c-165.17 -159.31 -523.87 -21.1191 -421.7 228.711c23.0596 56.4102 115.68 31.5801 92.3594 -25.4502c-63.2598 -154.74 146.01 -224.931 249.569 -145.791
c133.59 102.09 -94.3105 171.13 -166.561 198.51c-75.5303 28.6299 -156.36 77.2598 -173.311 163.319c-10.6504 54.0898 8.0293 106.18 48.5889 138.489c-6.37012 31.0596 -3.37988 63.96 11.79 95.7598c67.6104 141.69 261.851 154.181 344.261 22.5107
c32.8301 -52.4697 -50.0703 -100.47 -82.71 -48.3398c-73.0195 116.61 -264.05 -24.1992 -130.2 -109.789c76.2598 -48.7803 187.68 -43.8398 233.359 -135.359c22.4404 -44.9902 14.96 -95.0498 -16.5098 -130.02c9.44043 -8.03027 18.7207 -16.3604 26.9404 -26.0801z
M227.057 347.209c37.0996 -23.9502 84.4014 -33.1602 125.701 -47.8906c14 -4.98047 27.9297 -10.3604 41.5996 -16.25c3.16992 3.79004 6.80957 7.40039 11.6396 10.5c47.79 30.6504 -89.1201 77.3008 -101.76 81.501c-46.79 15.54 -94.6504 35.5498 -131.49 69.3301
c-1.44043 1.29004 -2.58008 2.7998 -3.94043 4.12988c-16.29 -34.0098 25.2002 -79.9902 58.25 -101.32z" />
    <glyph glyph-name="dieresis" unicode="&#xa8;" horiz-adv-x="392" 
d="M98.9238 638c61.75 -0.0400391 61.6299 -95.79 0 -95.79h-2.65918c-61.7402 0 -61.6299 95.79 0 95.79h2.65918zM318.794 642.02c23.3604 -13.6396 28.7402 -42.4102 17.1699 -65.5498c-0.879883 -1.76953 -1.76953 -3.5293 -2.64941 -5.29883
c-11.6396 -23.21 -44.3193 -29.5898 -65.5391 -17.1699c-23.3203 13.6699 -28.7402 42.4004 -17.1699 65.54c0.879883 1.76953 1.76953 3.53906 2.64941 5.30859c11.6396 23.21 44.3193 29.5801 65.5391 17.1699z" />
    <glyph glyph-name="copyright" unicode="&#xa9;" horiz-adv-x="697" 
d="M387.626 363.04c54.5303 28.8096 102.861 -53.8994 48.3711 -82.749c-93.6504 -49.5098 -199.98 -5.88965 -225.73 99.04c-28.1504 114.58 62.96 193.86 171.83 192.9c61.71 -0.549805 61.6396 -96.3398 0 -95.79c-24.6104 0.219727 -55.7803 -3.64062 -70.0703 -21.1807
c-13.2305 -16.1797 -12.9004 -33.79 -9.40039 -50.4404c9.03027 -42.9902 42.3301 -64.3301 85 -41.7803zM565.577 638.071c97.2998 -99.6602 104.89 -244.93 35.5098 -362.64c-65.5 -111.12 -188.52 -210.67 -324.619 -178.28
c-108.68 25.8604 -187.71 125.261 -215.16 229.971c-33.3799 127.29 8.58984 255.83 106.92 341.94c2.36035 2.05957 4.79004 3.63965 7.21973 5.14941c0.849609 0.740234 1.5498 1.58984 2.46973 2.33008c117.53 90.5195 286.271 65.3496 387.66 -38.4707zM402.987 206.051
c114.18 60.1699 197.59 223.089 116.06 339.029c-66.25 94.1299 -192.77 119.08 -285.529 53.75c-86.9902 -77.9902 -113.74 -193.971 -59.4004 -300.19c43.9902 -86.0596 136.36 -141.329 228.87 -92.5889z" />
    <glyph glyph-name="guillemotleft" unicode="&#xab;" horiz-adv-x="661" 
d="M172.999 272.75c49.7002 -46.1602 99.3721 -92.3604 149.072 -138.53c45.2803 -42.1104 -22.6201 -109.681 -67.7197 -67.751c-63.4404 58.9902 -126.881 117.971 -190.331 176.921c-24.46 22.7305 -14.1396 57.9902 9.69043 75.2305
c70.5596 51.0303 141.109 102.061 211.659 153.08c50.0703 36.2197 97.8203 -46.9307 48.3398 -82.7109c-53.5703 -38.7598 -107.141 -77.4795 -160.711 -116.239zM541.251 471.7c50.0703 36.2197 97.8125 -46.9307 48.4121 -82.7109
c-53.5703 -38.7598 -107.141 -77.4795 -160.711 -116.239c49.6602 -46.1602 99.3604 -92.3604 149.03 -138.53c45.2402 -42.1104 -22.6602 -109.681 -67.7598 -67.751c-63.4404 58.9902 -126.881 117.971 -190.321 176.921
c-24.4697 22.7305 -14.1494 57.9902 9.68066 75.2305c70.5596 51.0303 141.109 102.061 211.669 153.08z" />
    <glyph glyph-name="softhyphen" unicode="&#xad;" horiz-adv-x="0" 
 />
    <glyph glyph-name="registered" unicode="&#xae;" horiz-adv-x="737" 
d="M330.682 254.06c5.53027 6.00977 10.54 10.6797 -3.87012 -5.23047c1.5498 1.69043 2.62012 3.5 3.87012 5.23047zM489.951 350.55c54.0898 -29.7695 5.68066 -112.48 -48.3691 -82.75c-34.0098 18.7598 -68.0498 37.4697 -102.05 56.1895
c-0.120117 -10.2803 -0.0800781 -20.71 -1.25977 -30.7695c-0.0302734 -0.589844 -0.0703125 -0.729492 -0.140625 -1.24902c3.0498 -12.2305 1.25 -25.6406 -7.4502 -37.9502c-4.12012 -4.41992 -8.50977 -9.58008 -5.62988 -7.7002
c-14.7803 -9.61035 -28.2305 -17.6406 -46.9404 -12.4502c-26.5996 7.37012 -34.04 29.9902 -35.7002 54.1602c-5.82031 85.29 6.80957 175.59 10.1699 260.729c0.919922 22.5898 14.4004 36.8496 30.9805 42.8496c66.54 62.0801 182.85 35.4502 213.54 -53.3096
c23.3203 -67.3799 -7.29004 -125.01 -57.6201 -159.97c16.8398 -9.25 33.6396 -18.5303 50.4697 -27.7803zM406.982 506.029c-9.42969 29.9102 -40.04 28.96 -59.8301 12.9697c-1.07031 -26.4199 -2.14062 -52.8701 -3.2002 -79.3301
c33.71 5.49023 75.4502 27.0801 63.0303 66.3604zM413.032 759.689c398.16 -25.6104 334.6 -618.809 -13.3008 -681.999c-1.99023 -0.360352 -3.7998 -0.330078 -5.70996 -0.469727c-2.29004 -0.480469 -4.5 -1.07031 -7 -1.26074
c-211.3 -16.3203 -359.22 170.18 -334.279 374.359c21.4102 175.41 180.72 320.94 360.29 309.37zM381.051 171.642c215.45 46.2803 323.62 411.31 67.0498 485.29c-328.78 94.7598 -427.3 -506.4 -67.0498 -485.29z" />
    <glyph glyph-name="degree" unicode="&#xb0;" horiz-adv-x="428" 
d="M183.8 711.14c101.43 12.71 197.63 -59.0215 194.24 -167.451c-2.87988 -92.0303 -92.3994 -176.95 -185.979 -161.22c-71.4805 12.0098 -126.521 77.6699 -139.23 147.08c-15.5898 85.1797 34.7002 153.56 114.62 177.76
c1.05957 0.44043 2.20996 0.850586 3.34961 1.2207c0.740234 0.219727 1.40039 0.549805 2.16992 0.769531c0.919922 0.259766 1.72949 0.259766 2.61914 0.439453c1.20996 0.299805 2.25 0.740234 3.57031 0.930664c1.50977 0.219727 2.99023 0.25 4.45996 0.44043
c0.0703125 0.0302734 0.110352 0.0302734 0.180664 0.0302734zM280.109 531.568c12.2695 45.4697 -28.001 93.8809 -75.4912 86.6904c-1.03027 -0.139648 -2.03027 -0.0292969 -3.06055 -0.139648c-1.09961 -0.370117 -1.98926 -0.889648 -3.12891 -1.17969
c-38.0195 -10.3203 -57.1396 -32.8701 -52.6797 -64.8506c4.08008 -29.4697 25.4502 -61.3799 49.6201 -71.8398c31.8701 -13.7803 74.4199 13.2295 84.7402 51.3193z" />
    <glyph glyph-name="plusminus" unicode="&#xb1;" horiz-adv-x="474" 
d="M96.2002 265.72c-61.75 -2.17969 -61.4531 93.6494 -0.00292969 95.7891c26.2002 0.919922 52.3506 1.83984 78.5107 2.75977c-1.46973 25.79 -2.91016 51.5801 -4.33984 77.3701c-3.46973 61.71 92.3604 61.3096 95.79 0
c1.36035 -24.6504 2.76074 -49.3301 4.12109 -73.9805c28.7002 0.990234 57.3701 2.03027 86.0703 3.02051c61.75 2.16992 61.4502 -93.6201 0 -95.79c-26.9004 -0.959961 -53.8301 -1.87988 -80.7305 -2.83984c1.7002 -30.1699 3.39062 -60.3496 5.09082 -90.5195
c3.45996 -61.71 -92.3701 -61.3096 -95.79 0c-1.62012 29.0303 -3.24023 58.1006 -4.87012 87.1309c-27.96 -0.990234 -55.8896 -1.9502 -83.8496 -2.94043zM377.377 86.8486c61.75 1.91016 61.4902 -93.8799 0 -95.7998c-91.96 -2.87012 -183.95 -5.74023 -275.91 -8.62012
c-61.75 -1.91016 -61.4902 93.8799 0 95.79c91.96 2.87988 183.95 5.75 275.91 8.62988z" />
    <glyph glyph-name="acute" unicode="&#xb4;" horiz-adv-x="286" 
d="M201.502 762.42c27.1201 -7.48047 37.1025 -33.3369 33.4922 -58.9473c-9.36035 -64.9199 -53.9707 -123.9 -113.251 -151.61c-23.5498 -10.9805 -51.5098 -6.81055 -65.5498 17.209c-12.2305 20.8896 -6.26074 54.5996 17.1689 65.54
c39.9404 18.6797 62.9707 50.8799 69.2305 94.3496c3.71973 25.7598 36.4395 39.6494 58.9092 33.459z" />
    <glyph glyph-name="paragraph" unicode="&#xb6;" horiz-adv-x="652" 
d="M567.593 728.35c60.8604 -8.99023 34.8115 -101.278 -25.458 -92.3281c-5.79004 0.849609 -12.0898 1.69922 -18.4199 2.50879c3.5 -214.5 6.95996 -428.96 10.46 -643.46c1 -61.79 -94.7998 -61.5596 -95.79 0c-3.5 216.97 -7.04004 433.97 -10.5703 650.97
c-14.1104 0.370117 -28.4502 0.219727 -42.8506 -0.290039c-5.57031 -210.74 -11.0898 -421.521 -16.6201 -632.261c-1.62012 -61.6396 -97.4102 -61.6699 -95.79 0c1.80957 69.4502 3.64941 138.86 5.44922 208.311c-138.64 17.6104 -246.55 147.44 -225.33 291.24
c35.0801 237.71 333.5 242.17 514.92 215.31zM280.554 318.292c2.71973 104.97 5.49023 209.93 8.25 314.859c-71.0703 -17.6504 -129.471 -56.0801 -141.811 -132.89c-14.3301 -89.1299 50.9502 -166.09 133.561 -181.97z" />
    <glyph glyph-name="cedilla" unicode="&#xb8;" horiz-adv-x="301" 
d="M150.037 109.09c67.6396 -47.9004 132.189 -132.159 83.7793 -216.789c-35.3701 -61.7402 -115.76 -79.9102 -168.96 -30.0605c-45.1299 42.2197 22.7705 109.83 67.7207 67.7197c2.54004 -2.40039 3.71973 -4.2002 8.42969 -0.629883
c-3.87012 -2.91016 3.38965 2.46973 4.5 3.83008c3.38965 4.12988 5.59961 4.93945 8.09961 12.4199c9.46973 28.1104 -27.3301 63.3701 -51.9102 80.79c-49.96 35.3701 -2.05957 118.42 48.3408 82.7197z" />
    <glyph glyph-name="guillemotright" unicode="&#xbb;" horiz-adv-x="661" 
d="M586.738 318.59c23.7998 -17.21 34.1514 -52.4697 9.73145 -75.2393c-63.4502 -58.9805 -126.891 -117.931 -190.331 -176.921c-45.1299 -41.9199 -113 25.6797 -67.7598 67.7598c49.7002 46.1602 99.3701 92.3604 149.07 138.53
c-53.5703 38.75 -107.141 77.4805 -160.711 116.24c-49.5498 35.8398 -1.68945 118.89 48.3408 82.71c70.5498 -51.0303 141.109 -102.061 211.659 -153.08zM330.87 318.59c23.7998 -17.21 34.1523 -52.4697 9.72266 -75.2393
c-63.4404 -58.9805 -126.881 -117.931 -190.321 -176.921c-45.1396 -41.9199 -113 25.6797 -67.7598 67.7598c49.7002 46.1602 99.4004 92.3604 149.07 138.53c-53.5703 38.75 -107.141 77.4805 -160.711 116.24c-49.5498 35.8398 -1.7002 118.89 48.3398 82.71
c70.5498 -51.0303 141.1 -102.061 211.659 -153.08z" />
    <glyph glyph-name="questiondown" unicode="&#xbf;" horiz-adv-x="529" 
d="M399.088 112.75c39.3096 47.5596 106.729 -20.5596 67.71 -67.7197c-103.89 -125.63 -299.38 -112.149 -384.89 29.0303c-41.7803 69.04 -42.0703 154.81 -3.57031 225.55c46.5596 85.5498 176.029 138.79 184.47 240.81c5.04004 61.0801 100.87 61.4102 95.79 0
c-12.1201 -146.53 -156.4 -180.79 -203.23 -303.88c-58.3896 -153.49 147.851 -239.7 243.721 -123.79zM304.588 604.931c-61.71 0 -61.5996 95.79 0 95.79c61.7402 0 61.6299 -95.79 0 -95.79z" />
    <glyph glyph-name="Agrave" unicode="&#xc0;" 
d="M613.806 66.4102c20.2305 -58.4697 -72.3213 -83.3711 -92.3613 -25.4609c-19.3799 56.0801 -37.9902 112.41 -56.04 168.851c-89.4902 -5.62988 -178.95 -11.2695 -268.44 -16.9092c-18.4902 -47.7402 -35.9199 -96.0098 -51.9795 -144.97
c-19.1201 -58.4404 -111.601 -33.2705 -92.3701 25.46c72.0303 219.8 167.641 428.29 287.931 625.88c20.96 34.4102 77.1904 29.3301 87.5 -11.46c53.1602 -209.82 115.061 -416.801 185.761 -621.391zM237.233 291.229c66.3203 4.16016 132.669 8.35938 198.989 12.5596
c-25.0195 81.9004 -48.71 164.21 -71 246.96c-47.0098 -84.5596 -89.7793 -170.989 -127.989 -259.52zM307.053 858.049c-20.6699 15.7305 -31.5713 40.9287 -17.2109 65.5391c11.9404 20.4199 44.9502 32.8701 65.5801 17.21
c48.1904 -36.6602 93.9902 -75.79 136.73 -118.74c43.5098 -43.8096 -24.25 -111.529 -67.7598 -67.7598c-36.8398 37.0303 -75.7402 72.1006 -117.34 103.751z" />
    <glyph glyph-name="Aacute" unicode="&#xc1;" 
d="M613.846 66.4102c20.2197 -58.4697 -72.3604 -83.3711 -92.4102 -25.4609c-19.3799 56.0801 -37.9795 112.41 -56.0293 168.851c-89.4902 -5.62988 -178.95 -11.2695 -268.44 -16.9092c-18.4902 -47.7402 -35.9199 -96.0098 -51.9795 -144.97
c-19.1299 -58.4404 -111.6 -33.2705 -92.3691 25.46c72.0303 219.8 167.63 428.29 287.93 625.88c20.96 34.4102 77.2197 29.29 87.5293 -11.46c53.1699 -209.82 115.06 -416.801 185.77 -621.391zM237.235 291.229c66.3496 4.16016 132.709 8.35938 198.989 12.5596
c-25.0195 81.9004 -48.71 164.21 -71 246.96c-47.0098 -84.5596 -89.7793 -170.989 -127.989 -259.52zM381.175 769.738c-54.0098 -29.9199 -102.271 52.8301 -48.3301 82.6699c48.1904 26.7197 91.1504 59.0996 129.9 98.2598
c43.4404 43.9199 111.12 -23.8701 67.7197 -67.71c-44.1396 -44.5801 -94.3896 -82.79 -149.29 -113.22z" />
    <glyph glyph-name="Acircumflex" unicode="&#xc2;" 
d="M613.846 66.4102c20.1797 -58.4697 -72.3594 -83.3711 -92.4092 -25.4609c-19.4102 56.0801 -37.9805 112.41 -56.0303 168.851c-89.4902 -5.62988 -178.95 -11.2695 -268.44 -16.9092c-18.4902 -47.7402 -35.9199 -96.0098 -51.9795 -144.97
c-19.1299 -58.4404 -111.6 -33.2705 -92.3691 25.46c72.0303 219.8 167.63 428.29 287.93 625.88c20.96 34.4102 77.2197 29.29 87.5293 -11.46c53.1699 -209.82 115.06 -416.801 185.77 -621.391zM237.236 291.229c66.3496 4.16016 132.67 8.35938 198.99 12.5596
c-25.0195 81.9004 -48.71 164.21 -71 246.96c-47.0498 -84.5596 -89.7803 -170.989 -127.99 -259.52zM304.807 744.608c-45.9102 -40.8604 -113.85 26.6797 -67.7197 67.7197c36.6201 32.6104 69.4502 67.9004 99.6201 106.471
c16.5098 21.0801 33.1602 44.2197 62.8906 44.9893c29.7002 0.769531 47.9004 -20.4805 59.8701 -44.7607c21.7803 -44.2197 37.8398 -91.5996 58.1797 -136.51c25.2695 -55.7803 -57.29 -104.41 -82.71 -48.3301c-15.0703 33.2305 -29.0703 66.8301 -43.04 100.47
c-1.69043 -1.80957 -3.09082 -3.35938 -3.79102 -4.19922c-25.3496 -30.9502 -53.4199 -59.25 -83.2998 -85.8496zM423.697 871.719c0.519531 0.370117 0.629883 0.959961 0.959961 1.44043c-0.259766 -0.410156 -0.669922 -1 -0.959961 -1.44043zM372.888 879.049
c-1.50977 10.8701 -4.00977 0.19043 0 0z" />
    <glyph glyph-name="Atilde" unicode="&#xc3;" 
d="M613.806 66.4102c20.2305 -58.4697 -72.3604 -83.3711 -92.3604 -25.4609c-19.3799 56.0801 -37.9902 112.41 -56.04 168.851c-89.4902 -5.62988 -178.94 -11.2695 -268.44 -16.9092c-18.4902 -47.7402 -35.9199 -96.0098 -51.9795 -144.97
c-19.1201 -58.4404 -111.601 -33.2705 -92.3701 25.46c72.0303 219.8 167.641 428.29 287.931 625.88c20.96 34.4102 77.2197 29.29 87.54 -11.46c53.1299 -209.82 115.02 -416.801 185.72 -621.391zM237.234 291.229c66.3203 4.16016 132.67 8.35938 198.99 12.5596
c-25.0195 81.9004 -48.71 164.21 -70.9902 246.96c-47.0498 -84.5596 -89.79 -170.989 -128 -259.52zM298.254 774.459c-21.8896 -57.04 -114.479 -32.1318 -92.3691 25.4883c26.3096 68.5596 78.2197 107.84 153.38 90.6299
c31.0898 -7.13965 59.7197 -22.21 88.8994 -34.6699c11.9697 -5.08008 24.0898 -8.75977 36.25 -13.1895c0.740234 -0.290039 1.07031 -0.509766 1.66016 -0.769531c30.25 52.6904 111.85 4.61035 82.1992 -49.1094c-30.5098 -55.3398 -88.7998 -52.21 -140.38 -31.6904
c-36.1699 14.3701 -108.64 68.0205 -129.64 13.3105z" />
    <glyph glyph-name="Adieresis" unicode="&#xc4;" 
d="M613.838 66.4102c20.1904 -58.4697 -72.3604 -83.3711 -92.4004 -25.4609c-19.3799 56.0801 -37.9902 112.41 -56.04 168.851c-89.4902 -5.62988 -178.94 -11.2695 -268.44 -16.9092c-18.4902 -47.7402 -35.9199 -96.0098 -51.9795 -144.97
c-19.1201 -58.4404 -111.601 -33.2705 -92.3604 25.46c72.0195 219.8 167.63 428.29 287.92 625.88c20.96 34.4102 77.2197 29.29 87.54 -11.46c53.1602 -209.82 115.061 -416.801 185.761 -621.391zM237.227 291.229c66.3604 4.16016 132.669 8.35938 198.989 12.5596
c-25.0195 81.9004 -48.6992 164.21 -70.9893 246.96c-47.0498 -84.5596 -89.79 -170.989 -128 -259.52zM315.926 749.839c-23.6904 6.49023 -42.0703 34.5303 -33.4502 58.9199c0.80957 2.28027 1.61914 4.56055 2.42871 6.85059
c8.66016 24.46 32.4199 40.75 58.9102 33.4502c23.6904 -6.48047 42.0703 -34.5205 33.4502 -58.9102c-0.80957 -2.28027 -1.61914 -4.57031 -2.42871 -6.85059c-8.66016 -24.4697 -32.46 -40.71 -58.9102 -33.46zM430.985 771.619
c-0.660156 1.58008 -1.36133 3.12988 -2.06152 4.67969c-10.4697 23.7998 -7.25977 51.25 17.1602 65.54c20.5303 12.0098 55.1602 6.51953 65.5498 -17.1709c0.700195 -1.5498 1.36035 -3.12988 2.06055 -4.67969c10.46 -23.7998 7.25977 -51.25 -17.1699 -65.54
c-20.5195 -12.0098 -55.1494 -6.51953 -65.5391 17.1709z" />
    <glyph glyph-name="Aring" unicode="&#xc5;" 
d="M613.806 66.4102c20.2305 -58.4697 -72.3604 -83.3711 -92.3604 -25.4609c-19.3799 56.0801 -37.9902 112.41 -56.04 168.851c-89.4902 -5.62988 -178.94 -11.2695 -268.44 -16.9092c-18.4902 -47.7402 -35.9199 -96.0098 -51.9795 -144.97
c-19.1201 -58.4404 -111.601 -33.2705 -92.3701 25.46c65.4404 199.72 150.58 390.01 255.8 571.39c-56.6602 46.1299 -78.1406 128.25 -34.8906 195.89c43.1104 67.3896 143.91 96.9297 210.521 47.0898c52.6904 -39.3896 72.1807 -114.729 54.3506 -176.85
c-14.2305 -49.5498 -49.7402 -78.6201 -92.8799 -88.9697c49.1797 -187.28 105 -372.41 168.29 -555.521zM361.064 797.959c-23.2803 -23.4697 -16.9102 -59.6104 6.00977 -78.6602c15.5098 4.83008 33.0098 2.50977 45.6094 -7.50977
c8.25 -0.150391 15.0303 1.46973 21.96 5.92969c3.5 2.24023 9.46973 12.2705 12.0098 21.1104c5.74023 19.9297 -0.439453 51.4697 -12.5996 65.6895c-8.50977 9.9502 -16.3193 12.75 -22.3994 12.8604c-17.4297 0.370117 -37.29 -6.00977 -50.5898 -19.4199z
M237.234 291.229c66.3203 4.16016 132.67 8.35938 198.99 12.5596c-25.0195 81.9004 -48.71 164.21 -70.9902 246.96c-47.0498 -84.5596 -89.79 -170.989 -128 -259.52z" />
    <glyph glyph-name="AE" unicode="&#xc6;" horiz-adv-x="962" 
d="M847.359 100.64c60.2402 12.6699 85.7705 -79.6504 25.4609 -92.3301c-97.1904 -20.4502 -286.23 -93.9502 -353.69 20.1494c-33.3096 56.3701 -24.5 139.05 -21.8096 200.8c0.769531 17.79 1.94922 35.5498 2.93945 53.3496
c-75.7402 -0.0800781 -151.16 -2.99023 -224.771 -9.62012c-49.3301 -68.1201 -95.0205 -139.23 -136.36 -213.801c-29.9102 -54.0098 -112.63 -5.63965 -82.71 48.3408c123.53 223.01 282.811 419.64 475.271 586.569c6.59961 14.6602 20.3398 25.6406 41.5596 24.8711
c97.2998 -3.5 194.6 -6.95996 291.899 -10.4297c61.5703 -2.20996 61.6406 -98 0.000976562 -95.79c-82.0098 2.91016 -164.02 5.86035 -246.029 8.77051c-5.12012 -81.5303 -10.7998 -163.03 -16.4697 -244.521c67.7197 -1.99023 134.989 -5.70996 200.569 -10.54
c61.2002 -4.5 61.4902 -100.32 0 -95.79c-67.79 4.96973 -137.42 8.83984 -207.5 10.7598c-5.33984 -55.7803 -17.4199 -127.181 -1.09961 -177.95c27.5898 -85.8496 187.31 -16.6191 252.739 -2.83887zM353.52 374.38c50.4697 2.75977 101.462 4.0498 152.602 3.97949
c4.01953 58.0303 8.39941 116.021 12.5996 174.011c-58.6504 -56.3701 -113.841 -115.61 -165.201 -177.99z" />
    <glyph glyph-name="Ccedilla" unicode="&#xc7;" horiz-adv-x="543" 
d="M404.308 155.2c26.8896 55.5303 109.459 6.89355 82.6689 -48.4062c-24.0596 -49.6602 -65.0996 -82.4902 -112.409 -98.4004c6.82031 -40.75 -8.09961 -84.1504 -40.3398 -112.851c-50.5498 -44.9902 -124.56 -45.8701 -177.949 -5.24023
c-20.6299 15.7402 -31.5703 40.9404 -17.1699 65.5508c11.9404 20.4102 44.9502 32.8604 65.5498 17.1699c22.3604 -16.9902 45.0508 -23.6602 64.4307 -7.7002c13.75 11.2695 15.4805 21.0293 7.78027 34.7393c-20.8203 2.83984 -41.5605 7.76953 -61.4902 16.5791
c-139.01 61.3799 -177.58 224.04 -162.22 362.86c13.2598 119.59 74.9395 244.6 191.209 293.27c88.9404 37.25 189.891 10.2402 229.351 -82.4199c23.9102 -56.1104 -58.6201 -104.851 -82.71 -48.3408c-23.5098 55.1602 -70 63.8906 -121.7 37.251
c-69.8496 -35.9902 -107.06 -117.19 -119 -191.28c-15.0996 -93.7305 -3.71973 -220.03 85.5898 -274.521c61.6699 -37.6201 136.1 -24.9404 168.409 41.7393z" />
    <glyph glyph-name="Egrave" unicode="&#xc8;" horiz-adv-x="518" 
d="M403.079 100.64c60.2402 12.6699 85.7393 -79.6523 25.499 -92.3721c-97.1904 -20.4404 -286.23 -93.9404 -353.69 20.1592c-33.3096 56.3701 -24.5 139.04 -21.8096 200.79c6.41016 147.33 20.7402 294.45 29.25 441.67
c0.0703125 1.46973 0.480469 2.75977 0.660156 4.16016c0.959961 23.0996 16.21 44.9492 46.0195 43.8789c97.2998 -3.5 194.6 -6.95996 291.899 -10.4199c61.5703 -2.20996 61.6406 -98 0.000976562 -95.79c-82.0098 2.91016 -164.02 5.85059 -246.029 8.76074
c-5.41992 -85.7998 -11.46 -171.569 -17.3896 -257.339c67.0898 6.62988 134.07 7.62012 201.46 2.32031c61.1504 -4.83008 61.4502 -100.62 0 -95.79c-69.9004 5.49023 -139.341 4.31055 -208.9 -3.01953c-5.67969 -53.4199 -14.6992 -117.49 0.291016 -164.17
c27.5996 -85.8496 187.31 -16.6191 252.739 -2.83887zM208.258 878.277c-51.6504 33.3799 -3.57129 116.269 48.3691 82.6689c52.0996 -33.6299 99.1494 -74.0898 139.01 -121.649c16.6904 -19.8604 19.6406 -48.0801 0.000976562 -67.7197
c-17.1699 -17.1699 -51.1396 -19.8203 -67.75 0c-34.75 41.4502 -74.2002 77.3301 -119.63 106.7z" />
    <glyph glyph-name="Eacute" unicode="&#xc9;" horiz-adv-x="518" 
d="M403.079 100.64c60.2402 12.6699 85.7686 -79.6523 25.499 -92.3721c-97.1904 -20.4404 -286.23 -93.9404 -353.69 20.1592c-33.3096 56.3701 -24.5 139.04 -21.8096 200.79c6.41016 147.33 20.7402 294.45 29.25 441.67
c0.0703125 1.46973 0.480469 2.75977 0.660156 4.16016c0.959961 23.0996 16.21 44.9492 46.0195 43.8789c97.2998 -3.5 194.6 -6.95996 291.899 -10.4199c61.5703 -2.20996 61.6406 -98 0.000976562 -95.79c-82.0098 2.91016 -164.02 5.85059 -246.029 8.76074
c-5.41992 -85.7998 -11.46 -171.569 -17.3896 -257.339c67.0898 6.62988 134.07 7.62012 201.46 2.32031c61.1504 -4.83008 61.4502 -100.62 0 -95.79c-69.9004 5.49023 -139.341 4.31055 -208.9 -3.01953c-5.67969 -53.4199 -14.6992 -117.49 0.291016 -164.17
c27.5996 -85.8496 187.31 -16.6191 252.739 -2.83887zM306.077 784.918c-45.9805 -40.79 -113.959 26.7803 -67.7588 67.75c43.6201 38.6904 87.21 77.3301 130.83 115.98c46.0195 40.75 113.989 -26.7803 67.749 -67.75
c-43.6201 -38.6904 -87.2002 -77.3301 -130.82 -115.98z" />
    <glyph glyph-name="Ecircumflex" unicode="&#xca;" horiz-adv-x="518" 
d="M403.079 100.64c60.2402 12.6699 85.7686 -79.6523 25.499 -92.3721c-97.1904 -20.4404 -286.23 -93.9404 -353.69 20.1592c-33.3096 56.3701 -24.5 139.04 -21.8096 200.79c6.41016 147.33 20.7402 294.45 29.25 441.67
c0.0703125 1.46973 0.480469 2.75977 0.660156 4.16016c0.959961 23.0996 16.21 44.9492 46.0195 43.8789c97.2998 -3.5 194.6 -6.95996 291.899 -10.4199c61.5703 -2.20996 61.6406 -98 0.000976562 -95.79c-82.0098 2.91016 -164.02 5.85059 -246.029 8.76074
c-5.41992 -85.7998 -11.46 -171.569 -17.3896 -257.339c67.0898 6.62988 134.07 7.62012 201.46 2.32031c61.1504 -4.83008 61.4502 -100.62 0 -95.79c-69.9004 5.49023 -139.341 4.31055 -208.9 -3.01953c-5.67969 -53.4199 -14.6992 -117.49 0.291016 -164.17
c27.5996 -85.8496 187.31 -16.6191 252.739 -2.83887zM216.768 781.678c-40.5303 -46.6104 -108.02 21.3994 -67.7197 67.6797c32.3896 37.2402 64.8096 74.4902 97.1895 111.7c15.6299 17.9805 52.25 19.2402 67.7197 0c36.6201 -45.5 69.1201 -93.1699 96.5703 -144.79
c28.9502 -54.4502 -53.7598 -102.79 -82.7197 -48.3398c-15.25 28.7002 -32.5303 56.1201 -50.9102 82.8301c-20.0498 -23.0303 -40.0898 -46.0605 -60.1299 -69.0801z" />
    <glyph glyph-name="Edieresis" unicode="&#xcb;" horiz-adv-x="518" 
d="M403.079 100.64c60.2402 12.6699 85.7686 -79.6523 25.499 -92.3721c-97.1904 -20.4404 -286.23 -93.9404 -353.69 20.1592c-33.3096 56.3701 -24.5 139.04 -21.8096 200.79c6.41016 147.33 20.7402 294.45 29.25 441.67
c0.0703125 1.46973 0.480469 2.75977 0.660156 4.16016c0.959961 23.0996 16.21 44.9492 46.0195 43.8789c97.2998 -3.5 194.6 -6.95996 291.899 -10.4199c61.5703 -2.20996 61.6406 -98 0.000976562 -95.79c-82.0098 2.91016 -164.02 5.85059 -246.029 8.76074
c-5.41992 -85.7998 -11.46 -171.569 -17.3896 -257.339c67.0898 6.62988 134.07 7.62012 201.46 2.32031c61.1504 -4.83008 61.4502 -100.62 0 -95.79c-69.9004 5.49023 -139.341 4.31055 -208.9 -3.01953c-5.67969 -53.4199 -14.6992 -117.49 0.291016 -164.17
c27.5996 -85.8496 187.31 -16.6191 252.739 -2.83887zM205.157 754.078c-61.7402 0 -61.6299 95.79 0 95.79h2.43945c61.7402 0 61.6299 -95.79 0 -95.79h-2.43945zM367.857 806.878c0 -61.75 -95.79 -61.6797 -95.79 0v2.42871c0 61.75 95.79 61.6396 95.79 0v-2.42871z
" />
    <glyph glyph-name="Igrave" unicode="&#xcc;" horiz-adv-x="337" 
d="M240.054 614.71c-10.5703 0.219727 -21.1084 0.467773 -31.5684 0.767578c2.75977 -175.26 5.55957 -350.56 8.35938 -525.819c3.67969 0.179688 7.39941 0.370117 11.0898 0.549805c61.71 3.12988 61.3398 -92.6904 0 -95.79
c-43.9199 -2.20996 -87.8301 -4.45996 -131.79 -6.66992c-61.71 -3.12988 -61.3398 92.7002 0 95.79c8.33008 0.410156 16.6602 0.850586 24.9805 1.26074c-2.83984 177.58 -5.66992 355.2 -8.50977 532.82c-4.83008 0.110352 -9.61035 0.220703 -14.4004 0.331055
c-61.6396 1.40039 -61.6797 97.1904 0 95.79c47.2598 -1.11035 94.5693 -2.18066 141.839 -3.24023c61.6396 -1.40039 61.6699 -97.1904 0 -95.79zM159.956 775.448c-29.3203 33.5596 -58.6094 67.1582 -87.8994 100.798c-17.0596 19.5303 -19.3496 48.3799 0 67.7197
c17.4199 17.4199 50.7295 19.4902 67.749 0c29.29 -33.5996 58.5801 -67.1992 87.8701 -100.77c17.0596 -19.5596 19.3398 -48.4092 0 -67.749c-17.3896 -17.4297 -50.6895 -19.4893 -67.7197 0.000976562z" />
    <glyph glyph-name="Iacute" unicode="&#xcd;" horiz-adv-x="377" 
d="M240.054 710.46c61.6396 -1.40039 61.6816 -97.1934 0.0419922 -95.7529c-10.54 0.25 -21.0801 0.509766 -31.6104 0.729492c2.75977 -175.26 5.55957 -350.56 8.35938 -525.819c3.67969 0.19043 7.41016 0.370117 11.0898 0.560547
c61.71 3.12988 61.3398 -92.7002 0 -95.7998c-43.9199 -2.20996 -87.8701 -4.4502 -131.79 -6.66016c-61.71 -3.13965 -61.3398 92.6904 0 95.79c8.33008 0.400391 16.6602 0.84082 24.9805 1.25098c-2.83008 177.58 -5.66992 355.2 -8.50977 532.82
c-4.82031 0.110352 -9.61035 0.220703 -14.4004 0.331055c-61.6396 1.40039 -61.6797 97.1904 0 95.79c47.2695 -1.09961 94.5693 -2.16992 141.839 -3.24023zM313.706 956.607c19.5596 -19.5303 16.4297 -47.79 0.0400391 -67.7197
c-34.6396 -42.0801 -69.2695 -84.1104 -103.899 -126.15c-16.54 -20.0801 -50.8096 -16.9502 -67.75 0c-19.5303 19.5303 -16.4404 47.75 0 67.7197c34.6299 42.0303 69.2598 84.1104 103.89 126.15c16.5098 20.0703 50.7695 16.9404 67.7197 0z" />
    <glyph glyph-name="Icircumflex" unicode="&#xce;" horiz-adv-x="372" 
d="M253.882 710.46c61.6699 -1.40039 61.6719 -97.1934 0.0419922 -95.7529c-10.54 0.25 -21.0801 0.509766 -31.6104 0.729492c2.75977 -175.26 5.55957 -350.56 8.35938 -525.819c3.67969 0.19043 7.39941 0.370117 11.0898 0.560547
c61.71 3.12988 61.3398 -92.7002 0 -95.7998c-43.9199 -2.20996 -87.8301 -4.4502 -131.79 -6.66016c-61.71 -3.13965 -61.3398 92.6904 0 95.79c8.33008 0.400391 16.6602 0.84082 24.9805 1.25098c-2.83984 177.58 -5.66992 355.2 -8.50977 532.82
c-4.83008 0.110352 -9.61035 0.220703 -14.4004 0.331055c-61.6396 1.40039 -61.6797 97.1904 0 95.79c47.2598 -1.09961 94.5693 -2.16992 141.839 -3.24023zM312.424 812.257c35.1504 -50.8799 -47.8887 -98.7441 -82.6689 -48.3838
c-17.2402 24.9805 -33.5303 50.4805 -50.0703 75.9004c-16.6904 -20.5596 -32.9805 -41.4092 -50 -61.709c-39.71 -47.2695 -107.14 20.8506 -67.75 67.751c31.1299 37.0996 74.0898 120.14 134.22 106.22c24.3496 -5.63965 39.5293 -24.9795 53.2393 -44.3594
c21.9902 -31.0996 41.3701 -64.0693 63.0303 -95.4189zM199.245 862.763c0.110352 -0.330078 0.0800781 1.06934 -2.01953 -2.10059c1.42969 0.480469 2.38965 1.10059 2.01953 2.10059z" />
    <glyph glyph-name="Idieresis" unicode="&#xcf;" horiz-adv-x="340" 
d="M240.052 710.46c61.6396 -1.40039 61.6816 -97.1934 0.0419922 -95.7529c-10.54 0.25 -21.0703 0.509766 -31.6104 0.729492c2.75977 -175.26 5.55957 -350.56 8.35938 -525.819c3.69043 0.19043 7.41016 0.370117 11.0898 0.560547
c61.71 3.12988 61.3398 -92.7002 0 -95.7998c-43.9102 -2.20996 -87.8701 -4.4502 -131.78 -6.66016c-61.7197 -3.13965 -61.3496 92.6904 0 95.79c8.32031 0.400391 16.6504 0.84082 24.9707 1.25098c-2.83008 177.58 -5.66992 355.2 -8.50977 532.82
c-4.82031 0.110352 -9.61035 0.220703 -14.4004 0.331055c-61.6396 1.40039 -61.6797 97.1904 0 95.79c47.2695 -1.09961 94.5693 -2.16992 141.839 -3.24023zM158.934 790.407c0 -61.75 -95.7998 -61.6396 -95.7998 0v2.42871c0 61.75 95.7998 61.6396 95.7998 0v-2.42871z
M207.674 763.808c-0.80957 0.769531 -1.61816 1.58008 -2.39844 2.38965c-43.6904 43.7002 24.0596 111.41 67.7197 67.7598c0.80957 -0.80957 1.61914 -1.62988 2.42871 -2.43945c43.6602 -43.6504 -24.0898 -111.37 -67.75 -67.71z" />
    <glyph glyph-name="Eth" unicode="&#xd0;" horiz-adv-x="687" 
d="M633.043 375.54c40.5996 -266.92 -232.619 -449.961 -475.089 -360.351c-50.9102 18.8203 -36.9902 93.54 7.18945 95.3398c-2.76953 56.96 -5.56934 113.89 -8.3291 170.84c-20.2305 1.07031 -40.4502 2.14062 -60.6807 3.21094
c-61.4199 3.28027 -61.5996 99.0703 0 95.79c18.6797 -0.990234 37.3193 -1.99023 55.999 -2.98047c-3.61035 74.2695 -7.26074 148.55 -10.8711 222.819c-1.42969 29.4404 19.6006 44.5801 42.3008 45.9102c205.29 74.8203 416.36 -52.6094 449.48 -270.579z
M261.964 90.5986c164.83 -12.9697 318.512 116.388 271.092 297.838c-37.0303 141.33 -162.48 207.021 -294.12 174.41c3.09961 -63.5098 6.18945 -127.029 9.28906 -190.549c39.5703 -2.09961 79.1006 -4.19922 118.671 -6.29883
c61.4199 -3.28027 61.5996 -99.0703 0 -95.79c-38.0195 1.99023 -76.0098 4.02051 -113.99 6.04004c3.01953 -61.8896 6.03906 -123.75 9.05859 -185.65z" />
    <glyph glyph-name="Ntilde" unicode="&#xd1;" horiz-adv-x="629" 
d="M575.436 660.13c5.70996 -206.39 1.72949 -412.341 -11.9404 -618.44c-3.16992 -47.3096 -62.8896 -65.2793 -89.2695 -24.1689c-104.41 162.85 -208.79 325.649 -313.2 488.459c-11.0498 -150.68 -16.1396 -301.55 -15.1094 -452.899
c0.410156 -61.75 -95.3799 -61.6104 -95.79 0c-1.32031 199.57 7.80957 398.38 27.4893 596.99c4.57031 46.4297 62.2607 66.25 89.2305 24.1699c103.01 -160.67 206.06 -321.34 309.069 -482.01c6.78027 155.88 8.07031 311.76 3.7207 467.899
c-1.73047 61.79 94.0996 61.5303 95.7998 0zM214.006 810.669c-0.480469 -61.71 -96.2705 -61.6387 -95.8301 0.000976562c0.589844 72.6201 53.79 136.061 129.8 134.7c32.8203 -0.589844 61.6406 -15.1396 87.4209 -34.1201
c10.7305 -7.87988 96.2705 -78.0703 79.4004 -24.2803c-18.5303 59.0596 73.9795 84.0791 92.3691 25.459c22.3203 -71.2197 -27.0801 -145.45 -104.49 -143.8c-35.8096 0.780273 -65.6494 19.4199 -92.8096 40.8604c-26.1201 20.5996 -95.2705 74.79 -95.8604 1.17969z" />
    <glyph glyph-name="Ograve" unicode="&#xd2;" horiz-adv-x="647" 
d="M327.349 685.55c181.56 4.65039 288.74 -237.149 266.271 -396.279c-21.4102 -151.42 -146.34 -312.61 -316.08 -273.851c-335.12 76.5195 -284.5 744.81 49.8096 670.13zM489.72 258.58c28.1797 93.5098 -12.5293 321.348 -141.51 331.808
c-8.11035 -3.24023 -17.6904 -3.94043 -28.4102 -1.18066c-3.5 -0.549805 -6.74023 -0.439453 -10.3506 -1.28906c-13.9297 -3.24023 -25.8994 -0.589844 -35.4795 5.31055c-74.3496 -9.25 -113.92 -102.46 -126.74 -173.31
c-19.0498 -105.45 5.16016 -236.72 106.33 -293.01c109.05 -60.6797 205.03 28.5508 236.16 131.671zM244.131 866.269c-50.29 35 -2.35938 118 48.3311 82.71c50.2197 -34.96 100.399 -69.8896 150.619 -104.859c50.29 -35 2.34961 -118 -48.3408 -82.71
c-50.2197 34.9697 -100.399 69.8896 -150.609 104.859z" />
    <glyph glyph-name="Oacute" unicode="&#xd3;" horiz-adv-x="647" 
d="M327.349 685.55c181.56 4.65039 288.74 -237.149 266.271 -396.279c-21.4102 -151.42 -146.34 -312.61 -316.08 -273.851c-335.12 76.5195 -284.5 744.81 49.8096 670.13zM489.72 258.58c28.2197 93.5098 -12.4902 321.348 -141.51 331.808
c-8.11035 -3.24023 -17.6904 -3.94043 -28.4102 -1.18066c-3.5 -0.549805 -6.74023 -0.439453 -10.3506 -1.28906c-13.9297 -3.24023 -25.8994 -0.589844 -35.4795 5.31055c-74.3096 -9.25 -113.92 -102.46 -126.74 -173.31
c-19.0498 -105.45 5.19043 -236.72 106.33 -293.01c109.09 -60.6797 205.03 28.5508 236.16 131.671zM387.149 756.918c-42.4805 -44.8799 -110.09 22.9902 -67.7197 67.75c40.5996 42.9199 81.2393 85.8799 121.879 128.8c42.4805 44.8799 110.08 -22.9902 67.71 -67.75
c-40.5996 -42.9199 -81.2295 -85.8799 -121.869 -128.8z" />
    <glyph glyph-name="Ocircumflex" unicode="&#xd4;" horiz-adv-x="647" 
d="M327.349 685.55c181.56 4.65039 288.74 -237.149 266.271 -396.279c-21.4102 -151.42 -146.34 -312.61 -316.08 -273.851c-335.12 76.5195 -284.5 744.81 49.8096 670.13zM489.68 258.58c28.2197 93.5098 -12.4883 321.348 -141.508 331.808
c-8.11035 -3.24023 -17.6807 -3.94043 -28.4111 -1.18066c-3.5 -0.549805 -6.74023 -0.439453 -10.3506 -1.28906c-13.9297 -3.24023 -25.8994 -0.589844 -35.4795 5.31055c-74.3496 -9.25 -113.92 -102.46 -126.74 -173.31c-19.04 -105.45 5.16016 -236.72 106.33 -293.01
c109.06 -60.6797 205.029 28.5508 236.159 131.671zM275.111 758.868c-38.0898 -48.4102 -105.439 19.8213 -67.749 67.751c28.4004 36.1104 54.1904 75.0508 84.4404 109.65c17.8701 20.4102 40.0098 37.1699 68.5293 33.6699
c27.7803 -3.38965 44.7607 -24.1992 58.251 -46.8193c21.5498 -36.1104 38.75 -74.9404 59.4199 -111.561c30.3604 -53.79 -52.3896 -102.021 -82.71 -48.3408c-16.6904 29.5498 -32.0908 59.6797 -47.751 89.7793c-1.54004 -1.87988 -3.2002 -3.75 -4.68066 -5.66992
c-22.5098 -29.5498 -44.7598 -59.2803 -67.75 -88.46zM332.001 882.109c-1.07031 2.36035 -0.930664 0.330078 -0.700195 0.400391c-0.110352 -0.0302734 0.549805 -0.290039 0.700195 -0.400391z" />
    <glyph glyph-name="Otilde" unicode="&#xd5;" horiz-adv-x="647" 
d="M327.349 685.55c181.56 4.65039 288.74 -237.149 266.271 -396.279c-21.4102 -151.42 -146.34 -312.61 -316.08 -273.851c-335.12 76.5195 -284.5 744.81 49.8096 670.13zM489.72 258.58c28.2197 93.5098 -12.4902 321.348 -141.51 331.808
c-8.11035 -3.24023 -17.6904 -3.94043 -28.4102 -1.18066c-3.5 -0.549805 -6.74023 -0.439453 -10.3506 -1.28906c-13.9297 -3.24023 -25.8994 -0.589844 -35.4795 5.31055c-74.3096 -9.25 -113.92 -102.46 -126.74 -173.31
c-19.0498 -105.45 5.19043 -236.72 106.33 -293.01c109.09 -60.6797 205.03 28.5508 236.16 131.671zM226.92 811.588c-6.48047 -60.75 -102.349 -61.2295 -95.8291 0.000976562c8.83984 82.4199 76.5195 148.59 163.659 130.899
c37.7598 -7.66016 63.1094 -28.9502 85.6592 -58.6104c9.58008 -12.5996 19.0801 -30.5098 32.1602 -39.5693c20.4502 -14.1904 36 -12.9307 23.29 18.7891c-22.96 57.3301 69.7402 81.9697 92.3604 25.46c33.4902 -83.6396 -46.79 -182.34 -135.62 -145.79
c-35.5498 14.6602 -59.79 46.0498 -82.3799 75.75c-22.5801 29.6602 -77.2197 49.8799 -83.2998 -6.92969z" />
    <glyph glyph-name="Odieresis" unicode="&#xd6;" horiz-adv-x="647" 
d="M327.349 685.55c181.56 4.65039 288.701 -237.149 266.261 -396.279c-21.4102 -151.42 -146.34 -312.61 -316.07 -273.851c-335.12 76.5195 -284.5 744.81 49.8096 670.13zM489.681 258.58c28.2197 93.5098 -12.4883 321.348 -141.519 331.808
c-8.09961 -3.24023 -17.6797 -3.94043 -28.3994 -1.18066c-3.5 -0.549805 -6.74023 -0.439453 -10.3506 -1.28906c-13.9297 -3.24023 -25.9102 -0.589844 -35.4805 5.31055c-74.3496 -9.25 -113.92 -102.46 -126.74 -173.31
c-19.0498 -105.45 5.16016 -236.72 106.33 -293.01c109.05 -60.6797 205.02 28.5508 236.159 131.671zM225.923 737.098c-61.75 0 -61.6396 95.79 0 95.79c61.75 0 61.6396 -95.79 0 -95.79zM401.143 741.958c-61.7402 0 -61.6299 95.79 0 95.79h2.43945
c61.7402 0 61.6299 -95.79 0 -95.79h-2.43945z" />
    <glyph glyph-name="multiply" unicode="&#xd7;" horiz-adv-x="466" 
d="M399.752 214.42c46.79 -40.3096 -21.2627 -107.77 -67.7627 -67.7197c-30.8701 26.5996 -61.7803 53.2393 -92.6504 79.8389c-33.5303 -34.8496 -67.1006 -69.7393 -100.66 -104.6c-42.8496 -44.5 -110.529 23.3203 -67.749 67.7607
c31.9004 33.1504 63.8105 66.3105 95.7109 99.4707c-33.6299 29 -67.2695 57.9502 -100.909 86.9502c-46.79 40.3096 21.2598 107.76 67.7598 67.7197c33.1504 -28.5898 66.3506 -57.1494 99.5107 -85.7393c29.6201 30.7998 59.2803 61.5693 88.9004 92.3691
c42.8799 44.5 110.53 -23.3203 67.75 -67.7607c-28 -29.0996 -55.96 -58.1699 -83.96 -87.2402c31.3496 -27.04 62.6992 -54.0498 94.0596 -81.0498z" />
    <glyph glyph-name="Oslash" unicode="&#xd8;" horiz-adv-x="711" 
d="M591.3 564.16c53.1299 -82.0098 78.002 -190.182 66.0215 -274.922c-21.4004 -151.43 -146.341 -312.609 -316.071 -273.85c-59.5703 13.5898 -106.66 46.1602 -142.43 89.6699c-22.96 -26.8604 -45.9502 -53.7207 -68.9004 -80.5703
c-40.1602 -46.9404 -107.62 21.1396 -67.75 67.75c28.4004 33.1904 56.8105 66.4307 85.2109 99.6611c-90.04 218.55 3.75977 547.26 243.68 493.649c52.0596 1.33008 97.8193 -17.7197 136.319 -49.1797c15.8398 18.5303 31.6797 37.0605 47.5293 55.5908
c40.1602 46.9404 107.61 -21.1396 67.75 -67.75c-17.1299 -20 -34.2295 -40.0098 -51.3594 -60.0498zM210.941 419.918c-8.58984 -47.46 -7.74023 -99.9199 4.30957 -148.66c84.8096 99.1396 169.59 198.319 254.359 297.499
c-16.7598 12.3799 -36.0293 19.8604 -57.6992 21.6299c-8.09961 -3.24023 -17.6797 -3.94043 -28.3994 -1.18066c-3.5 -0.549805 -6.74023 -0.439453 -10.3506 -1.28906c-13.9297 -3.24023 -25.8994 -0.589844 -35.4795 5.31055
c-74.3496 -9.25 -113.92 -102.46 -126.74 -173.31zM553.432 258.578c16.5 54.7197 9.24121 155.368 -25.2393 231.778c-89.4199 -104.6 -178.87 -209.229 -268.29 -313.819c15.5098 -19.5703 34.1895 -36.7402 57.3691 -49.6299
c109.09 -60.6797 205.03 28.5508 236.16 131.671z" />
    <glyph glyph-name="Ugrave" unicode="&#xd9;" horiz-adv-x="622" 
d="M527.871 683.75c38.6396 -147.67 64.4717 -312.431 20.9219 -462.19c-43.1396 -148.33 -191.279 -279.49 -344.26 -178.98c-195.7 128.54 -166.34 434.37 -121.76 627.94c13.8496 60.1699 106.18 34.5195 92.3594 -25.4609c-30.54 -132.67 -49.5898 -284.57 2.25 -414.92
c23.0996 -58.1396 70.4092 -126.96 140.299 -127.22c69.8896 -0.25 113.659 69.1602 133.699 127.811c46.75 136.72 19.6396 291.83 -15.8799 427.561c-15.6602 59.7998 76.7803 85.0303 92.3701 25.46zM296.354 745.199c-29.8096 43.2598 -59.6094 86.5098 -89.4189 129.76
c-14.7695 21.4102 -3.90918 53.2002 17.1709 65.54c23.5 13.75 50.8799 4.08984 65.54 -17.1602c29.8096 -43.2598 59.6094 -86.5098 89.4189 -129.76c14.7695 -21.4102 3.89941 -53.2402 -17.1709 -65.5498c-23.5098 -13.7402 -50.8799 -4.08984 -65.54 17.1699z" />
    <glyph glyph-name="Uacute" unicode="&#xda;" horiz-adv-x="622" 
d="M527.871 683.75c38.6396 -147.67 64.4717 -312.431 20.9219 -462.19c-43.1396 -148.33 -191.279 -279.49 -344.26 -178.98c-195.7 128.54 -166.34 434.37 -121.76 627.94c13.8496 60.1699 106.18 34.5195 92.3594 -25.4609c-30.54 -132.67 -49.5898 -284.57 2.25 -414.92
c23.0996 -58.1396 70.4092 -126.96 140.299 -127.22c69.8896 -0.25 113.659 69.1602 133.699 127.811c46.75 136.72 19.6396 291.83 -15.8799 427.561c-15.6602 59.7998 76.7803 85.0303 92.3701 25.46zM338.163 758.469c-19.6699 -16.9199 -48.2988 -19.46 -67.749 0
c-17.3203 17.3496 -19.6406 50.8799 -0.000976562 67.75l120.029 103.23c19.6797 16.9102 48.2998 19.46 67.7598 0c17.3096 -17.3496 19.6299 -50.8799 0 -67.75c-40.0098 -34.4102 -80.0293 -68.8203 -120.039 -103.23z" />
    <glyph glyph-name="Ucircumflex" unicode="&#xdb;" horiz-adv-x="622" 
d="M527.871 664.32c38.6396 -147.71 64.4707 -312.432 20.9209 -462.231c-43.1396 -148.33 -191.279 -279.49 -344.26 -178.98c-195.7 128.54 -166.34 434.37 -121.76 627.94c13.8496 60.1699 106.18 34.5596 92.3594 -25.4502
c-30.54 -132.64 -49.5498 -284.54 2.25 -414.89c23.0996 -58.1396 70.3691 -126.96 140.299 -127.22s113.66 69.1602 133.7 127.811c46.75 136.72 19.6396 291.83 -15.8799 427.561c-15.6602 59.79 76.7803 85.0303 92.3701 25.46zM253.542 736.528
c-41.1201 -46.1299 -108.649 21.8506 -67.7598 67.751c32.3496 36.29 61.8994 75.3096 94.9795 110.859c17.7598 19.0898 39.0596 37.54 66.7197 37.3203c65.9199 -0.480469 101.4 -106.801 128.66 -151.94c31.9805 -52.9404 -50.8799 -101.051 -82.71 -48.3311
c-17.5 28.96 -33.6797 58.5801 -50.8096 87.7598c-0.0400391 0.0703125 -0.150391 0.220703 -0.180664 0.291016c-5.34961 -6.15039 -10.7598 -12.2705 -15.96 -18.4902c-24.0195 -28.6699 -48.0791 -57.2598 -72.9395 -85.2197zM359.203 858.398
c3.34961 -1.25 3.45996 9.40039 0.259766 0.34082c-0.0400391 -0.110352 -0.219727 -0.230469 -0.259766 -0.34082z" />
    <glyph glyph-name="Udieresis" unicode="&#xdc;" horiz-adv-x="622" 
d="M527.871 664.32c38.6396 -147.71 64.4707 -312.432 20.9209 -462.231c-43.1396 -148.33 -191.279 -279.49 -344.26 -178.98c-195.7 128.54 -166.34 434.37 -121.76 627.94c13.8496 60.1699 106.18 34.5303 92.3594 -25.4502
c-30.54 -132.64 -49.5898 -284.54 2.25 -414.89c23.0996 -58.1396 70.3691 -126.96 140.299 -127.22s113.66 69.1602 133.7 127.811c46.75 136.72 19.6396 291.83 -15.8799 427.561c-15.6602 59.79 76.7803 85.0303 92.3701 25.46zM229.112 731.299
c-61.75 0 -61.6396 95.79 0 95.79c61.75 0 61.6396 -95.79 0 -95.79zM391.772 740.879c-61.75 0 -61.6396 95.79 0 95.79c61.75 0 61.6396 -95.79 0 -95.79z" />
    <glyph glyph-name="Yacute" unicode="&#xdd;" 
d="M527.678 658.09c30.25 53.79 112.963 5.44727 82.6826 -48.4131c-63.4102 -112.78 -126.82 -225.59 -190.221 -338.359c0.259766 -60.9805 0.439453 -121.99 0.479492 -183c0 -12.6396 0.44043 -25.3896 0.0302734 -38.0195
c0.919922 -3.87012 1.25977 -8 1.17969 -12.3096v0c-0.0703125 -2.91016 -0.220703 -5.89062 -0.810547 -8.99023c-1.25 -6.66992 -2.13965 -12.5996 -6.33984 -18.6396c-13.6602 -19.6396 -43.3604 -33.0498 -65.54 -17.1699
c-27.3398 19.5303 -24.2803 46.6406 -24.3105 75.9307c-0.0800781 63.4502 -0.19043 126.891 -0.450195 190.331c-77.5098 119.3 -164.5 231.01 -261.21 335.38c-41.8496 45.21 25.75 113.07 67.75 67.7607c85.3301 -92.0703 163.22 -190.15 234.43 -293.271
c54.1201 96.2695 108.21 192.5 162.33 288.77zM328.101 52.2471c-2.16992 -4.34961 -1.16992 -4.24023 0 0zM421.91 37.9863c0.509766 -2.13965 0.330078 -1.69043 0 0zM335.99 710.955c-16.5098 -20.1201 -50.8408 -16.9512 -67.7207 -0.000976562
c-19.5596 19.5596 -16.3896 47.79 0 67.75c34.4102 41.8604 68.8203 83.75 103.23 125.64c16.5098 20.0801 50.8496 16.9102 67.7598 0c19.5303 -19.5703 16.3906 -47.79 0.000976562 -67.7598c-34.4502 -41.8496 -68.8604 -83.7393 -103.271 -125.629z" />
    <glyph glyph-name="Thorn" unicode="&#xde;" horiz-adv-x="473" 
d="M421.305 399.42c18.0498 -153.97 -125.119 -266.961 -268.729 -242.791c0.549805 -41.6699 1.05957 -83.3096 1.61914 -124.939c0.80957 -61.75 -94.9805 -61.5996 -95.79 0c-2.7998 214.46 -5.59961 428.96 -8.39941 643.42c-0.80957 61.75 94.9805 61.5996 95.79 0
c0.370117 -27.2598 0.700195 -54.5293 1.07031 -81.7891c127.21 28.1904 258.56 -58.5 274.439 -193.9zM153.826 254.149c92 -25.6396 193.502 46.7109 170.432 147.48c-19.1504 83.6299 -100.87 116.42 -176.101 92.1104
c1.05957 -79.7305 2.09961 -159.421 3.12988 -239.151c0.879883 -0.179688 1.64941 -0.179688 2.53906 -0.439453z" />
    <glyph glyph-name="germandbls" unicode="&#xdf;" horiz-adv-x="540" 
d="M364.171 447.67c83.4102 -45.1699 137.836 -131.382 123.756 -237.042c-18.75 -140.96 -170.98 -245.45 -299.641 -162.55c-8.32031 5.37012 -13.8105 12.0801 -17.3506 19.2998c-6.82031 -48.9297 -15.5508 -97.6699 -27.0811 -146.229
c-14.2598 -60.0498 -106.62 -34.4795 -92.3604 25.4609c29.4297 123.94 40.8896 247.21 36.0293 374.36c-2.69043 69.5195 -13.1904 140.369 -6.60059 209.889c8.95996 94.6504 55.8896 204.29 160.6 220.69c79.25 12.4199 161.22 -38.0996 186.31 -114.399
c25.0195 -75.9697 -10.7207 -140.399 -63.6611 -189.479zM236.627 130.818c134.84 -86.9102 242.938 228.062 24.7588 253.411c-44.21 5.12012 -68.9004 63.5098 -24.1699 89.2295c53.3496 30.6904 160.89 123.61 63.8496 175.221
c-80.7197 42.96 -119.149 -66.0498 -125.3 -126.92c-8.25977 -81.75 7.77051 -167.49 8.84082 -249.46c0.660156 -51.3203 -2.25 -102.051 -7.37012 -152.531c13.0098 17.3496 35.7402 26.3096 59.3906 11.0498z" />
    <glyph glyph-name="agrave" unicode="&#xe0;" horiz-adv-x="533" 
d="M478.94 45.9902c19.9697 -58.5801 -72.5781 -83.4795 -92.3682 -25.46c-10.2402 30.0303 -19.1904 60.2803 -27.2607 90.6699c-13.8896 -26.6299 -31.3496 -50.8398 -53.8594 -70.8496c-56.3398 -50.0303 -136.51 -50.6904 -192.25 0.589844
c-156.69 144.24 2.90918 500.66 206.869 395.62c20.5996 36.1797 87.5 27.9297 89.6396 -23.9805c5.2002 -125.93 28.5898 -247.33 69.2295 -366.59zM189.832 102.731c85.4404 -40.2695 112.339 123.609 120.549 229.97c-4.59961 1.33008 -9.2793 3.28027 -13.999 6.56055
c-124.75 86.1699 -218.03 -183.99 -106.55 -236.53zM300.47 527.53c-40.6396 47.2305 -81.2686 94.499 -121.868 141.729c-40.0098 46.5703 27.4404 114.58 67.71 67.75c40.6396 -47.2695 81.2393 -94.5 121.879 -141.77c40.0098 -46.5303 -27.4902 -114.54 -67.7207 -67.71
z" />
    <glyph glyph-name="aacute" unicode="&#xe1;" horiz-adv-x="533" 
d="M478.925 45.9902c19.9297 -58.5801 -72.6182 -83.4795 -92.3281 -25.46c-10.2402 30.0303 -19.1904 60.2803 -27.2607 90.6699c-13.8896 -26.6299 -31.3594 -50.8398 -53.8691 -70.8496c-56.3301 -50.0303 -136.5 -50.6904 -192.24 0.589844
c-156.73 144.24 2.86914 500.66 206.829 395.62c20.5996 36.1797 87.5 27.8896 89.6396 -23.9805c5.2002 -125.93 28.5898 -247.33 69.2295 -366.59zM189.816 102.731c85.4404 -40.2695 112.339 123.609 120.549 229.97c-4.59961 1.33008 -9.2793 3.28027 -13.999 6.56055
c-124.75 86.1699 -218.03 -183.99 -106.55 -236.53zM288.965 526.94c-44.4697 -42.7402 -112.26 24.9395 -67.7197 67.709l148.77 142.919c44.4697 42.7305 112.26 -24.9492 67.7197 -67.7188c-49.5898 -47.6396 -99.1797 -95.2793 -148.77 -142.909z" />
    <glyph glyph-name="acircumflex" unicode="&#xe2;" horiz-adv-x="533" 
d="M478.94 45.9902c19.9697 -58.5801 -72.5781 -83.4795 -92.3682 -25.46c-10.2402 30.0303 -19.1904 60.2803 -27.2607 90.6699c-13.8896 -26.6299 -31.3496 -50.8398 -53.8594 -70.8496c-56.3398 -50.0303 -136.51 -50.6904 -192.25 0.589844
c-156.69 144.24 2.90918 500.66 206.869 395.62c20.5996 36.1797 87.5 27.8896 89.6396 -23.9805c5.2002 -125.93 28.5898 -247.33 69.2295 -366.59zM189.832 102.731c85.4404 -40.2695 112.339 123.609 120.549 229.97c-4.59961 1.33008 -9.2793 3.28027 -13.999 6.56055
c-124.75 86.1699 -218.03 -183.99 -106.55 -236.53zM188.91 526.011c-35.8496 -49.5098 -118.889 -1.64941 -82.709 48.3809c32.5 44.9502 61.6797 92.29 94.7998 136.72c17.7197 23.7695 38.8301 47.9297 70.8799 48.8193
c32.1699 0.879883 53.7197 -23.0303 70.7002 -47.1201c29.04 -41.1904 52.7598 -86.4004 79.7695 -128.95c33.1602 -52.25 -49.7803 -100.25 -82.71 -48.3398c-21.8896 34.4102 -42.4092 69.6299 -63.8496 104.34c-0.919922 1.50977 -2.46973 3.54004 -4.2002 5.75
c-3.91016 -5.63965 -7.81055 -11.2393 -11.6406 -16.9092c-23.3301 -34.5303 -46.6504 -68.9404 -71.04 -102.69zM286.142 665.061c11.1602 0.769531 5.05078 10.5703 0.480469 0.589844c-0.110352 -0.19043 -0.370117 -0.370117 -0.480469 -0.589844zM255.933 669.071
c-0.769531 1.04004 -1.50977 2.03027 -1.66016 1.62988c-0.150391 -0.589844 0.589844 -1.14941 1.66016 -1.62988z" />
    <glyph glyph-name="atilde" unicode="&#xe3;" horiz-adv-x="533" 
d="M478.919 45.9902c19.9697 -58.5801 -72.6104 -83.4795 -92.3203 -25.46c-10.25 30.0303 -19.2002 60.2803 -27.2705 90.6699c-13.8896 -26.6299 -31.3496 -50.8398 -53.8594 -70.8496c-56.3301 -50.0303 -136.5 -50.6904 -192.25 0.589844
c-156.72 144.24 2.87988 500.66 206.84 395.62c20.5898 36.1797 87.5 27.8896 89.6396 -23.9805c5.19043 -125.93 28.5908 -247.33 69.2207 -366.59zM189.819 102.731c85.4404 -40.2695 112.33 123.609 120.55 229.97c-4.61035 1.33008 -9.29004 3.28027 -14 6.56055
c-124.75 86.1699 -218.04 -183.99 -106.55 -236.53zM156.479 564.521c8.03027 -61.0195 -87.8682 -60.2393 -95.7881 0.000976562c-9.9502 75.5996 54.8496 143.02 131.489 133.14c33.4502 -4.30957 56.9199 -23.21 81.3799 -44.7998
c11.7598 -10.3496 22.6201 -22.4697 35.4805 -31.46c11.7598 -8.21973 36.9902 -19.8193 31.7598 11.0908c-10.2402 60.3896 82.0898 86.0996 92.3701 25.46c12.8896 -76.04 -41.2305 -161.23 -127.261 -140.561c-34.1904 8.21973 -61.5303 32.8994 -86.9805 55.749
c-23.5801 21.1396 -70.4102 51.7998 -62.4502 -8.62012z" />
    <glyph glyph-name="adieresis" unicode="&#xe4;" horiz-adv-x="533" 
d="M478.94 45.9902c19.9697 -58.5801 -72.5781 -83.4795 -92.3682 -25.46c-10.2402 30.0303 -19.1904 60.2803 -27.2607 90.6699c-13.8896 -26.6299 -31.3496 -50.8398 -53.8594 -70.8496c-56.3398 -50.0303 -136.51 -50.6904 -192.25 0.589844
c-156.69 144.24 2.90918 500.66 206.869 395.62c20.5996 36.1797 87.5 27.8896 89.6396 -23.9805c5.2002 -125.93 28.5898 -247.33 69.2295 -366.59zM189.832 102.731c85.4404 -40.2695 112.339 123.609 120.549 229.97c-4.59961 1.33008 -9.2793 3.28027 -13.999 6.56055
c-124.75 86.1699 -218.03 -183.99 -106.55 -236.53zM289.42 571.74c0 -61.75 -95.79 -61.6396 -95.79 0v2.02051c0 61.75 95.79 61.6396 95.79 0v-2.02051zM355.33 511.65c-61.71 0 -61.6396 95.79 0 95.79c61.75 0 61.6396 -95.79 0 -95.79z" />
    <glyph glyph-name="aring" unicode="&#xe5;" horiz-adv-x="533" 
d="M478.919 45.9902c19.9697 -58.5801 -72.6104 -83.4795 -92.3203 -25.46c-10.25 30.0303 -19.2002 60.2803 -27.2705 90.6699c-13.8896 -26.6299 -31.3496 -50.8398 -53.8594 -70.8496c-56.3301 -50.0303 -136.5 -50.6904 -192.25 0.589844
c-156.72 144.24 2.87988 500.66 206.84 395.62c20.5898 36.1797 87.5 27.8896 89.6396 -23.9805c5.19043 -125.93 28.5908 -247.33 69.2207 -366.59zM189.819 102.731c85.4404 -40.2695 112.33 123.609 120.55 229.97c-4.61035 1.33008 -9.29004 3.28027 -14 6.56055
c-124.75 86.1699 -218.04 -183.99 -106.55 -236.53zM319.43 500.891c-71.4004 -9.13965 -130.27 46.2402 -136.869 115.431c-6.62988 70.0703 45.1299 128.83 114.47 135.021c83.4502 7.4502 165.09 -67.1602 156.33 -152.19
c-7.41016 -71.5098 -71.7002 -111.41 -132.79 -97.9697c-0.400391 -0.0302734 -0.730469 -0.260742 -1.14062 -0.291016zM290.331 651.871c-14 -7.58984 -16.1406 -23.6504 -10.2109 -38.0605c0.480469 -1.21973 9.51074 -13.7393 8.00098 -12.6689
c0.139648 -0.110352 0.25 -0.150391 0.400391 -0.260742c15.8799 6.74023 33.6396 3.24023 48.6299 -6.84961c2.58008 -1.07031 5.00977 -2.51074 7.37012 -4.13086c9.83984 -1.83984 14.6699 26.8604 11.2002 35.2207c-9.61035 23.3203 -42.8506 38.9805 -65.3906 26.75z
" />
    <glyph glyph-name="ae" unicode="&#xe6;" horiz-adv-x="760" 
d="M604.371 75.4297c47.5195 38.4297 115.68 -28.9971 67.71 -67.7471c-122.24 -98.7803 -254.73 -27.3799 -315.521 96.71c-6.33008 -11.3896 -13.1104 -22.5098 -20.9199 -33.0098c-83.71 -112.19 -228.58 -73.7305 -271.98 52.0898
c-28.6602 83.1602 -11.3398 185.65 43.6602 253.96c51.5498 63.96 140.74 93.7295 215.09 58.5791c12.9297 23.0596 44.9102 28.6592 67.0498 16.5391c17.9805 22.5098 38.6504 43.1094 63.96 59.3896c73.6504 47.3398 163.4 35.4395 215.94 -36.4707
c48.7002 -66.6504 52.8301 -162.07 9.98047 -232.7c-48.4502 -79.8799 -137.05 -108.43 -225.92 -113c32.9404 -63.0703 86.29 -106.62 150.95 -54.3398zM417.761 274.603c-1.03027 -14.04 0.397461 -31.4297 3.71777 -50.0693
c73.21 -1.29004 156.21 12.4902 184.32 84.3701c16.0303 40.9697 7.52051 109.64 -36.5791 131.42c-82.2695 40.5596 -147.189 -108.391 -151.459 -165.721zM188.269 105.272c24.7197 -16.1699 49.25 -7.59082 73.6396 26.8594c38.9102 55.04 50.0703 129.06 53.2803 199.54
c-5.30957 1.33008 -10.7197 3.61035 -16.21 7.55078c-122.21 87.9102 -207.35 -170.76 -110.71 -233.95z" />
    <glyph glyph-name="ccedilla" unicode="&#xe7;" horiz-adv-x="460" 
d="M312.945 144.44c23.4697 56.1104 116.131 31.3105 92.4004 -25.499c-18.0195 -43.0303 -49.5898 -77.5205 -87.7598 -97.7803c21.5898 -37.21 30.5098 -79.7598 5.96973 -120c-28.04 -45.8701 -94.8701 -60.9697 -139.19 -29.8398
c-21.2197 14.9199 -31.1699 41.6299 -17.1699 65.54c12.2998 21 44.3594 32.0596 65.5391 17.1699c0.19043 -0.110352 3.7207 -2.20996 5.31055 -3.30957c0.360352 -0.110352 0.550781 -0.150391 0.880859 -0.260742
c0.0703125 0.0400391 0.0400391 0.0400391 0.110352 0.0400391c0.849609 0.110352 1.21973 0.110352 1.7002 0.140625c0.509766 0.299805 0.80957 0.410156 1.29004 0.700195c0.330078 1.03027 0.620117 1.95996 0.810547 2.76953
c-0.110352 0.330078 -0.19043 0.25 -0.300781 1.32031c-0.0400391 0.219727 -0.179688 3.97949 -2.72949 10.2793c-5.92969 14.7803 -17.3496 27.3398 -29.0596 38.6494c-15.29 2.87012 -30.6602 7.74023 -45.8701 15.4404c-91.7402 46.3799 -121.11 166.12 -113.811 261.14
c7.33008 95.3799 65.4297 191.54 168.439 201.45c85.2598 8.17969 155.37 -48.4102 161.96 -133.63c4.79004 -61.5596 -91.0703 -61.04 -95.79 0c-2.7998 36.1797 -44.5 44.9199 -73.6104 34.8896c-47.6699 -16.3896 -63.8799 -71.1797 -66.0596 -116.34
c-2.28027 -47.4199 6.00977 -110.97 40.8994 -146.79c37.7305 -38.7197 105.04 -26.2998 126.04 23.9199zM242.836 -47.1094c-0.299805 -0.769531 -0.34082 -0.810547 -0.560547 -1.33008c0.0800781 0.0400391 0.0800781 0.0800781 0.150391 0.110352
c0.110352 0.339844 0.0703125 0.410156 0.410156 1.21973z" />
    <glyph glyph-name="egrave" unicode="&#xe8;" horiz-adv-x="491" 
d="M336.177 75.4297c47.5303 38.4297 115.688 -28.999 67.7178 -67.749c-131.64 -106.41 -275.319 -15.4404 -328.379 126.18c-0.700195 1.91992 -0.990234 4.01953 -1.69043 5.96973c-24.8301 15.5801 -30.29 50.9502 -16.21 72.0303
c-14 114.21 27.4102 235.68 127.62 300.08c73.6504 47.3398 163.4 35.4395 215.94 -36.4707c48.7002 -66.6504 52.8301 -162.07 9.98047 -232.7c-48.4502 -79.8799 -137.05 -108.43 -225.92 -113c32.9404 -63.0703 86.29 -106.62 150.94 -54.3398zM149.574 274.601
c-1.07031 -14.04 0.398438 -31.4297 3.74805 -50.0693c73.21 -1.29004 156.22 12.4902 184.33 84.3701c15.9902 40.9697 7.48047 109.64 -36.6191 131.42c-82.2695 40.5596 -147.189 -108.391 -151.459 -165.721zM304.014 595.681
c-32.79 37.3604 -65.6201 74.7207 -98.4805 112.121c-17.1299 19.5195 -19.2998 48.4395 0 67.749c17.46 17.46 50.6602 19.4502 67.75 0c32.8301 -37.3604 65.6201 -74.75 98.4502 -112.11c17.1299 -19.5303 19.2998 -48.4502 0 -67.7598
c-17.4297 -17.46 -50.6201 -19.4502 -67.7197 0z" />
    <glyph glyph-name="eacute" unicode="&#xe9;" horiz-adv-x="492" 
d="M336.183 75.4297c47.5195 38.4297 115.679 -29 67.709 -67.75c-131.63 -106.41 -275.32 -15.4404 -328.37 126.18c-0.700195 1.9502 -1 4.02051 -1.7002 5.9707c-24.8301 15.5498 -30.2803 50.9502 -16.21 72.0303c-14 114.21 27.4102 235.68 127.62 300.08
c73.6504 47.3398 163.4 35.4395 215.94 -36.4707c48.7002 -66.6504 52.8301 -162.07 9.98047 -232.7c-48.4102 -79.8799 -137.05 -108.43 -225.92 -113c32.9404 -63.0703 86.29 -106.62 150.95 -54.3398zM149.571 274.6c-1.03027 -14.04 0.397461 -31.4297 3.75781 -50.0693
c73.2002 -1.29004 156.21 12.4902 184.32 84.3701c16.0303 40.9697 7.48047 109.64 -36.6191 131.42c-82.2695 40.5596 -147.189 -108.391 -151.459 -165.721zM296.829 585c-20.0098 -16.5098 -47.9697 -19.75 -67.75 -0.0400391c-17.0596 17.0996 -19.9697 51.29 0 67.7598
c42.8799 35.4004 85.7295 70.8105 128.609 106.211c20.0498 16.5098 48.0098 19.75 67.7598 0c17.0596 -17.0498 19.9697 -51.2402 0 -67.71c-42.8896 -35.4102 -85.7393 -70.8105 -128.619 -106.221z" />
    <glyph glyph-name="ecircumflex" unicode="&#xea;" horiz-adv-x="491" 
d="M336.183 75.4297c47.5596 38.4297 115.679 -28.999 67.709 -67.749c-131.63 -106.41 -275.32 -15.4404 -328.37 126.18c-0.700195 1.91992 -1 4.01953 -1.7002 5.96973c-24.8301 15.5801 -30.2803 50.9502 -16.21 72.0303c-14 114.21 27.4102 235.68 127.62 300.08
c73.6504 47.3398 163.4 35.4395 215.94 -36.4707c48.7002 -66.6504 52.8301 -162.07 9.98047 -232.7c-48.4502 -79.8799 -137.05 -108.43 -225.92 -113c32.9404 -63.0703 86.29 -106.62 150.95 -54.3398zM149.571 274.601c-1.03027 -14.04 0.4375 -31.4297 3.75781 -50.0693
c73.2002 -1.29004 156.21 12.4902 184.32 84.3701c15.9902 40.9697 7.48047 109.64 -36.6191 131.42c-82.2695 40.5596 -147.189 -108.391 -151.459 -165.721zM215.479 567.61c-36.6904 -48.6699 -119.85 -0.87793 -82.6699 48.3418
c25.3799 33.6699 48.2598 69.1895 73.9795 102.569c15.0996 19.6299 32.2695 37.6895 58.1699 40.8594c62.8203 7.7002 110.16 -82.6797 143.54 -122.06c39.6396 -46.79 -27.8203 -114.84 -67.75 -67.7598c-20.5996 24.2803 -40.2695 49.2998 -60.6094 73.8398
c-1.17969 1.42969 -3.34961 3.5293 -5.75 5.84961c-0.769531 -0.950195 -1.72949 -2.06055 -2.38965 -2.98047c-18.6104 -26.4199 -37.0703 -52.8701 -56.5205 -78.6602z" />
    <glyph glyph-name="edieresis" unicode="&#xeb;" horiz-adv-x="491" 
d="M336.177 75.4297c47.5303 38.4297 115.688 -29 67.7178 -67.75c-131.64 -106.41 -275.319 -15.4404 -328.379 126.18c-0.700195 1.9502 -0.990234 4.02051 -1.69043 5.9707c-24.8301 15.5498 -30.29 50.9502 -16.21 72.0303c-14 114.21 27.4102 235.68 127.62 300.08
c73.6504 47.3398 163.4 35.4395 215.94 -36.4707c48.7002 -66.6504 52.8301 -162.07 9.98047 -232.7c-48.4502 -79.8799 -137.05 -108.43 -225.92 -113c32.9404 -63.0703 86.29 -106.62 150.94 -54.3398zM149.574 274.6c-1.07031 -14.04 0.397461 -31.4297 3.71777 -50.0693
c73.2002 -1.29004 156.21 12.4902 184.32 84.3701c16.0303 40.9697 7.52051 109.64 -36.5791 131.42c-82.2695 40.5596 -147.189 -108.391 -151.459 -165.721zM170.162 568.64c-0.290039 0.330078 -0.623047 0.629883 -0.993164 0.919922
c-16.4297 15.7002 -16.1797 38.7598 -7.47949 58.0293c0.150391 0.290039 0.260742 0.589844 0.400391 0.879883c10.6904 23.6904 45.0303 29.1807 65.5498 17.1709c1.54004 -0.879883 2.28027 -2.28027 3.68066 -3.31055c2.40039 -1.5498 4.31055 -3.71973 6.41016 -5.75
c1.73047 -1.83984 3.65039 -3.5 4.98047 -5.53027c1.05957 -1.42969 2.54004 -2.2793 3.5 -3.89941c12.5195 -21.4102 5.84961 -53.79 -17.1699 -65.5498c-0.259766 -0.139648 -0.55957 -0.290039 -0.849609 -0.44043c-19.4199 -9.91016 -41.8496 -7.95996 -58.0293 7.48047
zM299.959 569.01c-0.629883 0.629883 -1.25 1.25 -1.87988 1.83984c-43.6602 43.7002 24.0898 111.41 67.75 67.7598l1.87988 -1.87988c43.6602 -43.6602 -24.0898 -111.38 -67.75 -67.7197z" />
    <glyph glyph-name="igrave" unicode="&#xec;" horiz-adv-x="311" 
d="M126.597 405.39c-0.80957 61.75 94.9805 61.5996 95.79 0c1.46973 -113.07 2.97949 -226.141 4.45996 -339.211c0.80957 -61.75 -94.9805 -61.5996 -95.79 0c-1.48047 113.07 -2.99023 226.141 -4.45996 339.211zM246.627 594.649
c16.6201 -19.9297 19.6797 -48.0811 0 -67.7109c-17.1299 -17.1396 -51.1299 -19.8594 -67.71 0.000976562c-38.4297 46.0098 -76.8594 92.0693 -115.279 138.119c-16.6201 19.8896 -19.6797 48.04 0 67.7197c17.1299 17.1299 51.1299 19.8496 67.71 0
c38.4297 -46.0596 76.8594 -92.0693 115.279 -138.129z" />
    <glyph glyph-name="iacute" unicode="&#xed;" horiz-adv-x="334" 
d="M120.261 405.39c-0.80957 61.75 94.9805 61.5996 95.79 0c1.48047 -113.07 2.99023 -226.141 4.45996 -339.211c0.80957 -61.75 -94.9805 -61.5996 -95.79 0c-1.46973 113.07 -2.97949 226.141 -4.45996 339.211zM200.991 717.149
c44.3496 42.8896 112.141 -24.79 67.7109 -67.75c-45.46 -43.9902 -90.96 -87.9404 -136.46 -131.931c-44.4004 -42.8496 -112.15 24.8301 -67.7607 67.75c45.5 43.9902 91 87.9404 136.51 131.931z" />
    <glyph glyph-name="icircumflex" unicode="&#xee;" horiz-adv-x="464" 
d="M186.27 405.39c-0.820312 61.75 94.9805 61.5996 95.79 0c1.46973 -113.07 2.97949 -226.141 4.44922 -339.211c0.80957 -61.75 -94.9805 -61.5996 -95.79 0c-1.46973 113.07 -2.97949 226.141 -4.44922 339.211zM401.98 577.59
c38.1299 -47.71 -29.25 -115.9 -67.75 -67.75c-29.2197 36.5498 -57.3701 73.7998 -85.1104 111.45c-0.110352 0.179688 -0.770508 0.879883 -1.07031 1.21973c-9.91016 -11.3896 -20.0801 -22.4395 -21.9902 -24.6895c-27.6699 -32.2695 -58.9902 -60.6396 -91.96 -87.3496
c-47.5303 -38.4697 -115.69 28.96 -67.7607 67.75c40.79 33.0498 77.8096 68.8193 110.46 109.939c15.5098 19.5303 29.8398 42.29 55.7402 48.7402c31.46 7.84961 54.75 -10.7607 73.6104 -33.1904c33.8604 -40.3096 62.9307 -84.96 95.8311 -126.12zM229.15 648.149
c-0.259766 0.150391 -0.410156 0.150391 0 0z" />
    <glyph glyph-name="idieresis" unicode="&#xef;" horiz-adv-x="325" 
d="M99.7695 405.39c-0.80957 61.75 95.0205 61.5996 95.79 0c1.48047 -113.07 2.99023 -226.141 4.45996 -339.211c0.80957 -61.75 -94.9805 -61.5996 -95.79 0c-1.46973 113.07 -2.97949 226.141 -4.45996 339.211zM145.789 574.939c0 -61.75 -95.79 -61.6396 -95.79 0
v1.87988c0 61.75 95.79 61.6396 95.79 0v-1.87988zM260.039 610.609c17.1299 -17.1396 19.8906 -51.1797 -0.0390625 -67.7598c-0.259766 -0.219727 -0.509766 -0.439453 -0.769531 -0.65918c-20.2998 -16.9102 -47.79 -19.0898 -67.75 0
c-0.259766 0.219727 -0.479492 0.479492 -0.739258 0.699219c-22.8799 21.8799 -16.1797 50.2197 1.77051 67.0195h-1.03027c0.25 0.219727 0.509766 0.439453 0.769531 0.65918c3.42969 2.83984 7.14941 5.12012 10.9795 7.15039
c1.50977 0.839844 3.01953 1.58008 4.56934 2.28027c0.589844 0.259766 1.13965 0.439453 1.68945 0.65918c2.40039 0.959961 4.83008 1.74023 7.33008 2.29004c0.480469 0.110352 0.920898 0.150391 1.40137 0.260742c2.13965 0.400391 4.2793 0.730469 6.48926 0.810547
c2.09961 0.139648 4.15918 0.0292969 6.21875 -0.110352c0.410156 -0.0400391 0.780273 -0.0400391 1.18066 -0.0800781c9.99023 -0.959961 19.71 -5.00977 27.9297 -13.2197z" />
    <glyph glyph-name="eth" unicode="&#xf0;" horiz-adv-x="512" 
d="M455.941 333.9c18.9297 -106.92 -3.76074 -239.918 -104.86 -299.678c-99.8799 -59.0898 -259.89 -21.7002 -293.489 97.4102c-41.7402 148.04 96.75 287.38 217.48 358.189c-6.58984 7.25977 -13.3301 14.3701 -20.3301 21.2598
c-43.4004 -26.6396 -85.96 -54.5996 -127.66 -84.0801c-50.4805 -35.6602 -98.3008 47.4199 -48.3408 82.71c32.2402 22.8096 65.4307 44.0693 98.7402 65.1797c-28.0801 19.2305 -56.8496 35.4805 -84.6699 47.7109c-56.3701 24.7998 -7.5498 107.319 48.3398 82.709
c45.6504 -20.1104 88.7607 -45.5703 127.881 -75.6699c22.2197 12.71 43.9893 26.0801 66.6494 38.0898c54.4902 28.9199 102.83 -53.8203 48.3398 -82.71c-13.9697 -7.40039 -27.2998 -15.8408 -41.1201 -23.5107c56.7402 -63.25 97.5205 -139.92 113.04 -227.61z
M351.821 178.093c35.29 81.2803 20.6699 162.329 -19.6396 233.81c-85.1104 -49.5596 -234.021 -168.52 -176.37 -270.43c48.4199 -85.5801 167.45 -29.0703 196.01 36.6201z" />
    <glyph glyph-name="ntilde" unicode="&#xf1;" horiz-adv-x="527" 
d="M416.244 444.08c28.1504 -34.2305 34.8916 -75.6006 38.0918 -118.641c7.04004 -95.0098 1.15039 -191.689 0.780273 -286.819c-0.219727 -61.71 -96.0098 -61.6299 -95.79 0c0.290039 76.3799 1.87988 152.83 1.03027 229.2
c-0.330078 29.7305 3.45996 67.6807 -7.74023 96.1211c-46.0098 116.87 -166.49 -40.1201 -192.76 -90.7803c-2.25 -4.33984 -4.94043 -7.80957 -7.77051 -10.8994c2.09961 -73.54 4.19922 -147.04 6.29883 -220.54c1.76953 -61.79 -94.0303 -61.5303 -95.79 0
c-4.16992 146.56 -8.37012 293.119 -12.5703 439.679c-1.76953 61.75 94.0303 61.4902 95.79 0c0.589844 -21.1504 1.21973 -42.3301 1.80957 -63.5205c76.04 78.5098 184.4 128.66 268.62 26.2002zM163.686 588.98c-18.71 -58.5801 -111.189 -33.3809 -92.3594 25.4189
c21.4004 66.9404 82.7803 112.37 154.88 96.3105c32.4297 -7.19043 54.2695 -26.4902 77.8896 -48.4502c23.54 -21.8496 79.5098 -67.8994 75.8193 3.09082c-3.2002 61.7197 92.6201 61.3496 95.79 0c3.87012 -74.6797 -56.9902 -146.04 -135.84 -134.88
c-32.8203 4.67969 -59.6104 23.9893 -83.9199 45.4297c-25.2803 22.25 -72.29 75.4502 -92.2598 13.0801z" />
    <glyph glyph-name="ograve" unicode="&#xf2;" horiz-adv-x="510" 
d="M439.682 359.45c31.7197 -86.6904 28.8799 -200.431 -30.7305 -274.99c-65.3604 -81.7598 -193.391 -89.9395 -274.07 -24.8691c-86.8799 70.0303 -101.21 203.15 -69.3398 304.28c27.8496 88.3896 99.29 156.029 190.66 121.579
c81.6396 13.2598 151.83 -39.46 183.48 -126zM304.062 119.601c104.04 47.75 64.1797 328.352 -58.29 262.621c-23.3496 -12.5303 -45.5293 -4.39062 -58.9795 11.2695c-34.1904 -27.2998 -42.04 -125.6 -39.8604 -151.75
c6.37012 -77.1504 69.8896 -162.181 157.13 -122.141zM299.052 525.982c-55.4502 54.8896 -110.86 109.75 -166.271 164.57c-43.8799 43.4805 23.9102 111.16 67.75 67.7598c55.4102 -54.8604 110.86 -109.721 166.271 -164.581
c43.8799 -43.4697 -23.9102 -111.149 -67.75 -67.749z" />
    <glyph glyph-name="oacute" unicode="&#xf3;" horiz-adv-x="510" 
d="M439.682 359.45c31.7197 -86.6904 28.8496 -200.431 -30.7305 -274.99c-65.3604 -81.7598 -193.391 -89.9395 -274.07 -24.8691c-86.8799 70.0303 -101.21 203.15 -69.3398 304.28c27.8496 88.3896 99.29 156.029 190.66 121.579
c81.6396 13.2598 151.83 -39.46 183.48 -126zM304.062 119.601c104.04 47.75 64.1797 328.352 -58.29 262.621c-23.3496 -12.5303 -45.5293 -4.39062 -58.9795 11.2695c-34.1904 -27.2998 -42.04 -125.6 -39.8604 -151.75
c6.37012 -77.1504 69.8896 -162.181 157.13 -122.141zM252.701 525.982c-42.3701 -44.9902 -109.971 22.8809 -67.7207 67.7109c48.71 51.8096 97.4502 103.569 146.16 155.369c42.3301 45.0195 109.94 -22.8408 67.7207 -67.7207
c-48.71 -51.7998 -97.4502 -103.56 -146.16 -155.359z" />
    <glyph glyph-name="ocircumflex" unicode="&#xf4;" horiz-adv-x="510" 
d="M439.682 359.45c31.7197 -86.6904 28.8799 -200.431 -30.7305 -274.99c-65.3604 -81.7598 -193.391 -89.9395 -274.07 -24.8691c-86.8799 70.0303 -101.21 203.15 -69.3398 304.28c27.8496 88.3896 99.29 156.029 190.66 121.579
c81.6396 13.2598 151.83 -39.46 183.48 -126zM304.062 119.601c104.04 47.75 64.1797 328.352 -58.29 262.621c-23.3496 -12.5303 -45.5293 -4.39062 -58.9795 11.2695c-34.1904 -27.2998 -42.04 -125.6 -39.8604 -151.75
c6.37012 -77.1504 69.8896 -162.181 157.13 -122.141zM165.682 513.492c-39.2002 -47.6797 -106.619 20.4775 -67.7188 67.6777c33.2695 40.3799 63.2598 85.5098 99.4395 123.38c19.8604 20.8203 43.0303 39.0605 73.5 35.5605
c29.5498 -3.38965 48.4102 -24.2393 65.4297 -46.6797c29.4004 -38.7598 55.3408 -80.1299 84.4805 -119.149c36.96 -49.4404 -46.2305 -97.1602 -82.7109 -48.3398c-23.1299 30.9502 -44.8701 62.7803 -66.8701 94.5c-2.83008 4.12988 -6.44043 8.17969 -9.80078 11.8701
c-6.51953 -8.29004 -13.8096 -16.21 -20.3291 -24.3896c-25.1299 -31.5 -49.8203 -63.2998 -75.4199 -94.4297z" />
    <glyph glyph-name="otilde" unicode="&#xf5;" horiz-adv-x="537" 
d="M259.096 485.45c81.6104 13.2598 151.79 -39.459 183.48 -126.039c31.6797 -86.6904 28.8496 -200.421 -30.7305 -274.951c-65.3604 -81.7598 -193.391 -89.9395 -274.07 -24.8691c-86.8799 70.0303 -101.21 203.15 -69.3398 304.28
c27.8496 88.3896 99.29 156.029 190.66 121.579zM306.916 119.602c104.05 47.75 64.1807 328.352 -58.2793 262.621c-23.3604 -12.5303 -45.54 -4.39062 -58.9902 11.2695c-34.1904 -27.2998 -42.04 -125.6 -39.8604 -151.75
c6.37012 -77.1504 69.8896 -162.181 157.13 -122.141zM145.917 579.993c-4.63965 -61.2002 -100.428 -61.4902 -95.748 0.0400391c6.25977 82.4902 69.5498 150.83 157.02 140.85c44.5098 -5.08984 76.4102 -31.0996 106.55 -62.0498
c11.4902 -11.8203 32.6406 -43.6201 50.5508 -45.1299c31.8701 -2.69043 27.04 41.71 25.0098 61.8203c-6.19043 61.3799 89.6396 60.7598 95.79 0c7.88965 -78.0303 -35.4404 -165.61 -125.45 -157.5c-42.9502 3.87012 -73.8301 31.5 -102.57 61.0898
c-14.7305 15.1699 -31.4609 39.8604 -53.1611 45.4199c-30.2803 7.74023 -55.7402 -14.9902 -57.9902 -44.54z" />
    <glyph glyph-name="odieresis" unicode="&#xf6;" horiz-adv-x="510" 
d="M439.682 359.45c31.7197 -86.6904 28.8799 -200.431 -30.7305 -274.99c-65.3604 -81.7598 -193.391 -89.9395 -274.07 -24.8691c-86.8799 70.0303 -101.21 203.15 -69.3398 304.28c27.8496 88.3896 99.29 156.029 190.66 121.579
c81.6396 13.2598 151.83 -39.46 183.48 -126zM304.062 119.601c104.04 47.75 64.1797 328.352 -58.29 262.621c-23.3496 -12.5303 -45.5293 -4.39062 -58.9795 11.2695c-34.1904 -27.2998 -42.04 -125.6 -39.8604 -151.75
c6.37012 -77.1504 69.8896 -162.181 157.13 -122.141zM182.922 531.473c-61.75 0 -61.6396 95.79 0 95.79c61.75 0 61.6396 -95.79 0 -95.79zM310.362 533.902c-61.75 0 -61.6396 95.79 0 95.79c61.75 0 61.6396 -95.79 0 -95.79z" />
    <glyph glyph-name="divide" unicode="&#xf7;" horiz-adv-x="462" 
d="M225.316 408.14c-61.71 0 -61.6299 95.79 0 95.79c61.75 0 61.6396 -95.79 0 -95.79zM230.477 189c61.75 0 61.6396 -95.79 0 -95.79c-61.75 0 -61.6396 95.79 0 95.79zM364.736 352.39c61.7402 0.450195 61.5996 -95.3496 0 -95.79
c-89.5 -0.620117 -178.99 -1.29004 -268.48 -1.91016c-61.75 -0.450195 -61.5996 95.3496 0 95.79c89.4902 0.620117 178.98 1.29004 268.48 1.91016z" />
    <glyph glyph-name="oslash" unicode="&#xf8;" horiz-adv-x="590" 
d="M458.312 504.54c42.2998 45.0498 109.899 -22.8096 67.7598 -67.7998c-20.8896 -22.2803 -41.7793 -44.54 -62.6689 -66.79c1.42969 -3.5 3.01953 -6.92969 4.33984 -10.5693c31.6904 -86.7002 28.8506 -200.431 -30.7197 -274.961
c-63.9297 -79.9902 -187.5 -89.0498 -268.4 -28.5498c-12.5303 -13.3398 -25.0605 -26.6797 -37.5801 -40.0498c-42.2598 -45.0596 -109.87 22.8408 -67.7197 67.751c14.7002 15.7002 29.4004 31.3506 44.1006 47.0107c-35.1797 70.6299 -36.8398 160.189 -13.7803 233.289
c27.8604 88.3896 99.29 156.029 190.66 121.579c46.3203 7.51953 88.8301 -6.37012 122.84 -35.4805c17.0596 18.2002 34.1094 36.3701 51.1689 54.5703zM174.991 241.741c0.919922 -10.8398 3.06055 -21.8086 6.08008 -32.6084
c53.6797 57.1396 107.319 114.319 160.97 171.499c-18.3496 13.0801 -41.1191 16.1396 -68.1992 1.58984c-23.3604 -12.5303 -45.54 -4.39062 -58.9805 11.2695c-34.1904 -27.2998 -42.04 -125.6 -39.8701 -151.75zM332.132 119.603
c51.1699 23.5098 67.3799 103.239 56.2197 170.47c-51.0303 -54.3799 -102.061 -108.76 -153.08 -163.14c26.1201 -18.5303 59.2402 -24.6104 96.8604 -7.33008z" />
    <glyph glyph-name="ugrave" unicode="&#xf9;" horiz-adv-x="491" 
d="M438.501 459.33c10.3096 -131.31 -2.64844 -450.989 -210.698 -425.199c-192.95 23.8701 -190.561 304.72 -166.421 441.779c10.6797 60.7197 102.97 34.8096 92.3594 -25.46c-13.8096 -78.3604 -18.4199 -165.051 10.7998 -240.73
c12.9297 -33.5303 39.4199 -77.2207 75.9697 -81.3506c32.75 -3.71973 61.7402 35.5205 76.1904 68.0508c35.8799 80.7598 32.75 176.92 26.0098 262.91c-4.83008 61.5596 91 61.0498 95.79 0zM287.223 557.26c-44.8701 40.3799 -89.75 80.7598 -134.58 121.21
c-45.9502 41.3398 21.9902 108.87 67.71 67.7197c44.8799 -40.3799 89.75 -80.7998 134.63 -121.18c45.9004 -41.3701 -22.04 -108.91 -67.7598 -67.75z" />
    <glyph glyph-name="uacute" unicode="&#xfa;" horiz-adv-x="491" 
d="M438.501 459.33c10.3096 -131.31 -2.64844 -450.989 -210.698 -425.199c-192.95 23.8701 -190.561 304.72 -166.421 441.779c10.6797 60.7197 102.97 34.8096 92.3594 -25.46c-13.8096 -78.3604 -18.4199 -165.051 10.7998 -240.73
c12.9297 -33.5303 39.4199 -77.2207 75.9697 -81.3506c32.75 -3.71973 61.7402 35.5205 76.1904 68.0508c35.8799 80.7598 32.75 176.92 26.0098 262.91c-4.83008 61.5596 91 61.0498 95.79 0zM254.763 536.15c-16.0596 -20.4502 -51.0986 -16.6201 -67.709 -0.0400391
c-19.8203 19.8203 -15.9902 47.4502 0 67.75c37.0596 47.1201 74.0898 94.25 111.149 141.37c16.0596 20.4502 51.0996 16.6104 67.7197 0c19.8203 -19.79 15.9902 -47.4199 0 -67.7197c-37.0703 -47.1201 -74.0898 -94.2402 -111.16 -141.36z" />
    <glyph glyph-name="ucircumflex" unicode="&#xfb;" horiz-adv-x="491" 
d="M438.5 469.48c10.3096 -131.31 -2.66113 -450.991 -210.711 -425.201c-192.91 23.8701 -190.55 304.73 -166.42 441.78c10.6904 60.7197 102.98 34.8193 92.3701 -25.4609c-13.8203 -78.3604 -18.4199 -165.051 10.79 -240.73
c12.9404 -33.5195 39.4209 -77.2197 75.9707 -81.3496c32.7598 -3.71973 61.75 35.5205 76.1904 68.0508c35.8896 80.7598 32.7598 176.92 26.0098 262.91c-4.82031 61.5703 91.0098 61.0508 95.7998 0.000976562zM188.189 584.839
c-36.0703 -49.2998 -119.148 -1.44141 -82.7188 48.3281c28.0801 38.3896 53.0898 78.8799 81.1699 117.2c16.4697 22.4697 35.8096 44.1699 66.0596 44.4697c29.0703 0.290039 48.6699 -20.3701 65.21 -41.3398c29.29 -37.0996 56.9902 -74.9395 88.1299 -110.6
c40.4102 -46.2695 -27.1201 -114.289 -67.7598 -67.749c-26.1201 29.9502 -50.9102 60.8604 -74.8203 92.5801c-1.7002 2.25 -5.31055 6.74023 -9.40039 11.79c-0.919922 -1.20996 -1.87988 -2.42969 -2.61035 -3.54004
c-20.6396 -30.7197 -41.4199 -61.2598 -63.2598 -91.1396zM270.231 702.507c1.25977 0.700195 2.10059 1.47949 2.66016 2.35938c-0.700195 -0.740234 -1.7002 -1.5498 -2.66016 -2.35938zM236.013 702.025c-1.40039 1.80957 -2.42969 3.21094 -2.42969 3.43066
c-0.150391 -1.40039 0.919922 -2.51074 2.42969 -3.43066z" />
    <glyph glyph-name="udieresis" unicode="&#xfc;" horiz-adv-x="491" 
d="M438.505 469.48c10.2695 -131.31 -2.68945 -450.991 -210.709 -425.201c-192.94 23.8701 -190.551 304.73 -166.421 441.78c10.6904 60.7197 102.98 34.8193 92.3701 -25.4609c-13.8203 -78.3604 -18.4199 -165.051 10.79 -240.73
c12.9297 -33.5195 39.4199 -77.2197 75.9697 -81.3496c32.7598 -3.71973 61.75 35.5205 76.1904 68.0508c35.8896 80.7598 32.7598 176.92 26.0098 262.91c-4.82031 61.5703 91.0098 61.0508 95.7998 0.000976562zM188.966 563.839c-61.75 0 -61.6396 95.79 0 95.79
c61.75 0 61.6396 -95.79 0 -95.79zM313.605 558.419c-61.75 0 -61.6396 95.79 0 95.79h3.60938c61.75 0 61.6396 -95.79 0 -95.79h-3.60938z" />
    <glyph glyph-name="yacute" unicode="&#xfd;" horiz-adv-x="502" 
d="M434.371 478.25c14.7002 -179.83 57.9512 -456.481 -90.7393 -595.451c-114.58 -107.14 -323.11 -39.7197 -290.141 131.601c11.6396 60.5703 103.97 34.7803 92.3701 -25.46c-8.50977 -44.2803 29.6504 -65.54 65.8701 -65.5
c44.25 0.0302734 77.3701 33.9707 97.7402 69.3311c22.6299 39.3496 31.2803 88.4297 35.96 134.66c-28.3301 -10.2695 -59.2803 -13.6299 -88.5303 -8.16992c-153.93 28.8096 -173.899 221.239 -165.869 346.829c3.91016 61.3096 99.7402 61.5693 95.7998 -0.000976562
c-4.65039 -72.8398 -11.0908 -227.43 84.0693 -252.109c41.3398 -10.7197 78.1797 16.3604 79.9893 49.9902c-0.929688 71.5498 -6.48926 143.14 -12.3096 214.279c-5.00977 61.5303 90.8203 61.0107 95.79 0.000976562zM243.052 557.459
c-41.5996 -45.6797 -109.17 22.2207 -67.7598 67.7207c43.1104 47.2998 86.2207 94.6094 129.32 141.919c41.6299 45.6797 109.2 -22.2207 67.7598 -67.7207c-43.1104 -47.3096 -86.2207 -94.6094 -129.32 -141.919z" />
    <glyph glyph-name="thorn" unicode="&#xfe;" horiz-adv-x="473" 
d="M421.314 293.85c18.0801 -154.11 -125.379 -267.182 -269.139 -242.752c0.660156 -70.8896 1.14062 -141.81 2.03027 -212.729c0.769531 -61.75 -95.0205 -61.5996 -95.8008 0c-3.61035 291.94 -4.78027 583.881 -8.40039 875.781
c-0.769531 61.79 95.0205 61.5996 95.8008 0c0.950195 -75.3799 1.46973 -150.76 2.16992 -226.17c126.85 27.4404 257.489 -59.1396 273.339 -194.13zM153.836 148.579c91.9902 -25.6797 193.5 46.6787 170.43 147.479c-19.0498 83.3398 -100.319 116.17 -175.329 92.3301
c0.660156 -79.7998 1.62012 -159.56 2.28027 -239.369c0.889648 -0.179688 1.72949 -0.179688 2.61914 -0.439453z" />
    <glyph glyph-name="ydieresis" unicode="&#xff;" horiz-adv-x="502" 
d="M434.371 478.25c14.7002 -179.83 57.9512 -456.481 -90.7393 -595.451c-114.58 -107.14 -323.11 -39.7197 -290.141 131.601c11.6396 60.5703 103.97 34.7803 92.3701 -25.46c-8.50977 -44.2803 29.6504 -65.54 65.8701 -65.5
c44.25 0.0302734 77.3701 33.9707 97.7402 69.3311c22.6299 39.3496 31.2803 88.4297 35.96 134.66c-28.3301 -10.2695 -59.2803 -13.6299 -88.5303 -8.16992c-153.93 28.8096 -173.899 221.239 -165.869 346.829c3.91016 61.3096 99.7402 61.5693 95.7998 -0.000976562
c-4.65039 -72.8398 -11.0908 -227.43 84.0693 -252.109c41.3398 -10.7197 78.1797 16.3604 79.9893 49.9902c-0.929688 71.5498 -6.48926 143.14 -12.3096 214.279c-5.00977 61.5303 90.8203 61.0107 95.79 0.000976562zM171.432 555.619c-61.7197 0 -61.6396 95.79 0 95.79
c61.7402 0 61.6299 -95.79 0 -95.79zM288.252 567.259c-0.290039 0.330078 -0.588867 0.632812 -0.949219 1.00293c-19.2402 20.1104 -16.8398 47.4902 0 67.71c0.290039 0.370117 0.549805 0.700195 0.839844 1.04004c16.6602 19.96 50.7402 17.0195 67.7598 0
c8.13965 -8.11035 12.1494 -17.8008 13.1094 -27.7812c0.19043 -1.29004 0.19043 -2.5498 0.260742 -3.7998c0 -0.919922 0.0703125 -1.87988 0.0400391 -2.83984c-0.110352 -9.05957 -2.9502 -17.75 -7.78027 -25.3398
c-0.0703125 -0.110352 -0.110352 -0.220703 -0.180664 -0.331055c-0.919922 -1.48047 -1.91992 -2.88086 -2.99023 -4.24121c-0.80957 -1.13965 -1.50977 -2.31934 -2.42969 -3.42969c-0.290039 -0.370117 -0.549805 -0.700195 -0.839844 -1.03027v0.589844
c-16.8398 -17.7598 -45.0596 -24.3193 -66.8398 -1.5498z" />
    <glyph glyph-name="dotlessi" unicode="&#x131;" horiz-adv-x="201" 
d="M145.796 417.35c1.50977 -111.3 3.01953 -222.569 4.5293 -333.829c0.849609 -61.75 -94.9502 -61.5996 -95.79 0c-1.50977 111.26 -3.01953 222.56 -4.5293 333.829c-0.849609 61.75 94.9404 61.5996 95.79 0z" />
    <glyph glyph-name="Lslash" unicode="&#x141;" horiz-adv-x="523" 
d="M400.882 182.75c54.2598 29.4697 102.568 -53.2803 48.3682 -82.7207c-53.3096 -28.9199 -105.92 -59.6797 -160.27 -86.6094c-21.9502 -10.8701 -41.6602 -18.5 -66.0898 -20.7402c-23.6201 -2.13965 -37.9902 10.7207 -43.3701 27.6309
c-3.30957 6.11035 -5.44922 13.3008 -5.70898 21.7305c-2.34961 78.5195 -4.70996 157.06 -7.07031 235.579c-15.29 -9.5498 -30.5801 -19.0498 -45.8701 -28.5596c-52.54 -32.6797 -100.58 50.2207 -48.3398 82.7207c30.3203 18.8604 60.6104 37.6904 90.9307 56.5508
c-2.38965 78.8799 -4.75 157.8 -7.11035 236.71c-1.83984 61.75 93.9502 61.4902 95.79 0c1.76953 -59.4199 3.5791 -118.81 5.33887 -178.239c13.75 8.58008 27.5303 17.1299 41.2705 25.6797c52.54 32.6797 100.58 -50.2207 48.3398 -82.7109
c-28.7803 -17.9102 -57.5498 -35.7803 -86.3301 -53.6807c2.29004 -75.2402 4.53027 -150.51 6.78027 -225.74c44.7305 23.5801 88.9004 48.2598 133.341 72.3994z" />
    <glyph glyph-name="lslash" unicode="&#x142;" horiz-adv-x="432" 
d="M309.778 502.49c53.8701 30.3203 102.094 -52.4189 48.3438 -82.6689c-27.1904 -15.3301 -54.3809 -30.6201 -81.5713 -45.9404c1.17969 -104.05 2.31934 -208.13 3.45898 -312.17c0.700195 -61.75 -95.1201 -61.5996 -95.79 0
c-0.959961 86.1699 -1.91016 172.38 -2.87012 258.56c-19.8604 -11.2002 -39.7207 -22.3604 -59.5811 -33.5605c-53.8203 -30.3301 -102.051 52.46 -48.3311 82.71c35.5498 20.04 71.1396 40.0498 106.689 60.0898c-0.769531 72.6904 -1.5791 145.421 -2.38867 218.141
c-0.700195 61.75 95.1299 61.5996 95.79 0c0.589844 -54.8604 1.21973 -109.681 1.7998 -164.541c11.5 6.4502 22.96 12.9404 34.4502 19.3809z" />
    <glyph glyph-name="OE" unicode="&#x152;" horiz-adv-x="969" 
d="M853.979 100.64c60.2402 12.6699 85.7686 -79.6504 25.499 -92.3301c-97.2002 -20.4502 -286.24 -93.9502 -353.69 20.1494c-11.6504 19.75 -17.9502 42.7803 -21.3701 66.9502c-56.3398 -63.04 -134.92 -100.95 -226.88 -79.9502
c-335.12 76.5195 -284.5 744.81 49.8096 670.13c84.1104 2.13965 152.351 -48.3008 198.99 -119.331c2.5 34.8496 4.86035 69.7393 6.89062 104.629c0.0703125 1.46973 0.480469 2.75977 0.660156 4.16016c0.959961 23.0996 16.21 44.9492 46.0195 43.8789
c97.2998 -3.5 194.6 -6.95996 291.899 -10.4199c61.5703 -2.20996 61.6406 -98 0.000976562 -95.79c-82.0098 2.91016 -164.02 5.85059 -246.029 8.76074c-5.41992 -85.7998 -11.46 -171.569 -17.3896 -257.339c67.0898 6.62988 134.07 7.62012 201.45 2.32031
c61.1602 -4.83008 61.46 -100.62 0 -95.79c-69.8896 5.49023 -139.34 4.31055 -208.89 -3.01953c-5.67969 -53.4199 -14.71 -117.49 0.290039 -164.17c27.5996 -85.8496 187.31 -16.6191 252.739 -2.83887zM489.717 258.58
c28.1797 93.5098 -12.5303 321.348 -141.521 331.808c-8.09961 -3.24023 -17.6797 -3.94043 -28.3994 -1.18066c-3.5 -0.549805 -6.74023 -0.439453 -10.3506 -1.28906c-13.9297 -3.24023 -25.8994 -0.589844 -35.4795 5.31055
c-74.3496 -9.25 -113.92 -102.46 -126.74 -173.31c-19.0498 -105.45 5.16016 -236.72 106.33 -293.01c109.05 -60.6797 205.03 28.5508 236.16 131.671z" />
    <glyph glyph-name="oe" unicode="&#x153;" horiz-adv-x="807" 
d="M651.892 75.4297c47.5303 38.4297 115.688 -28.999 67.7188 -67.749c-117.12 -94.6904 -243.64 -32.9805 -307.489 81.5293c-1.17969 -1.5498 -1.98926 -3.28027 -3.16895 -4.75c-65.3604 -81.7598 -193.391 -89.9395 -274.07 -24.8691
c-86.8799 70.0303 -101.21 203.15 -69.3398 304.28c27.8496 88.3896 99.29 156.029 190.66 121.579c62.4902 10.1299 118.23 -18.3506 155.15 -71.1104c21.5498 38.4697 50.7295 72.6201 89.5996 97.6006c73.6504 47.3398 163.391 35.4395 215.931 -36.4707
c48.71 -66.6504 52.8301 -162.07 9.99023 -232.7c-48.4102 -79.8799 -137.061 -108.43 -225.921 -113c32.9297 -63.0703 86.2793 -106.62 150.939 -54.3398zM465.279 274.601c-1.03027 -14.04 0.40918 -31.4297 3.75879 -50.0693
c73.21 -1.29004 156.21 12.4902 184.33 84.3701c15.9805 40.9697 7.4707 109.64 -36.6289 131.42c-82.2695 40.5596 -147.18 -108.391 -151.46 -165.721zM304.059 119.601c104.04 47.75 64.1797 328.352 -58.29 262.621
c-23.3496 -12.5303 -45.5293 -4.39062 -58.9795 11.2695c-34.1904 -27.2998 -42.04 -125.6 -39.8604 -151.75c6.37012 -77.1504 69.8896 -162.181 157.13 -122.141z" />
    <glyph glyph-name="Scaron" unicode="&#x160;" horiz-adv-x="600" 
d="M384.209 337.89c111.86 -50.29 202.711 -153.85 149.511 -282.1c-98.7402 -238.01 -571.8 -138.2 -469.26 120.069c22.5098 56.7002 115.13 31.8301 92.3604 -25.46c-50.5098 -127.15 159.79 -168.45 239.96 -115.101c125.26 83.3398 16.0195 188.31 -77.2607 226.25
c-95.2803 38.7598 -213.65 78.6602 -237.23 194.05c-17.5 85.7002 34.1201 168.63 110.9 204.96c101.46 47.9697 202.7 6.41016 283.09 -60.3096c47.5303 -39.4199 -20.5898 -106.81 -67.71 -67.7197c-62.3799 51.7598 -235.21 91.3301 -234.25 -43.4697
c0.669922 -95.3496 142.55 -120.85 209.89 -151.17zM332.97 725.51c-53.8301 0.919922 -96.4912 72.6885 -129.281 106.519c-42.8896 44.3203 24.8301 112.11 67.75 67.71c19.3799 -20 37.9102 -40.71 56.7002 -61.2695c1.5498 -1.66016 3.34961 -3.35059 5.08008 -5.01074
c1.51953 1.48047 2.91992 2.84082 3.91016 4.02051c16.0303 18.8203 31.6504 37.9805 47.9707 56.5908c40.7803 46.46 108.28 -21.5498 67.75 -67.7197c-29.9102 -34.1201 -67.0098 -101.76 -119.88 -100.84z" />
    <glyph glyph-name="scaron" unicode="&#x161;" horiz-adv-x="445" 
d="M258.992 310.95c64.6504 -23.4297 109.971 -79.5508 112.261 -149.4c6.04004 -182.04 -235.91 -230.89 -315.601 -73.7197c-27.8496 54.8896 54.8203 103.34 82.71 48.3398c67.3096 -132.78 218.739 42.0293 69.1592 89.0791
c-59.9502 18.8701 -116.72 42.2598 -139.89 106.069c-59.3604 163.51 142.13 270.54 261.17 163.44c45.9805 -41.3398 -21.9893 -108.87 -67.709 -67.7598c-59.21 53.2402 -143.65 -24.5 -91.3408 -81.9697c21.96 -24.1299 60.6104 -23.6895 89.2402 -34.0791z
M312.302 733.129c45.6504 41.2598 113.548 -26.3096 67.6777 -67.7598c-38.7197 -35 -89.2002 -102.57 -147.26 -103.301c-60.6797 -0.780273 -102.43 68.5195 -135.77 109.27c-38.7197 47.3799 28.7002 115.5 67.7598 67.7598
c18.4502 -22.5098 36.4307 -45.6494 56.3311 -66.9492c3.65039 -3.87012 8.99023 -7.21973 12.1904 -9.71973c5.00977 4.82031 15.5898 12.1904 18.5303 14.8408c20.4199 18.3496 40.1602 37.4395 60.54 55.8594z" />
    <glyph glyph-name="Ydieresis" unicode="&#x178;" 
d="M527.687 658.09c30.21 53.79 112.922 5.44727 82.7119 -48.4131c-63.4102 -112.78 -126.811 -225.59 -190.221 -338.359c0.259766 -60.9805 0.439453 -121.99 0.479492 -183c0 -12.6396 0.44043 -25.3896 0.0400391 -38.0195c0.919922 -3.87012 1.25 -8 1.16992 -12.3096
v0c-0.0703125 -2.91016 -0.220703 -5.89062 -0.810547 -8.99023c-1.25 -6.66992 -2.12988 -12.5996 -6.33008 -18.6396c-13.6699 -19.6396 -43.3701 -33.0498 -65.5498 -17.1699c-27.3301 19.5303 -24.2803 46.6406 -24.3105 75.9307
c-0.110352 63.4502 -0.220703 126.891 -0.480469 190.331c-77.5195 119.3 -164.5 231.01 -261.22 335.38c-41.8496 45.21 25.7607 113.07 67.7607 67.7607c85.3301 -92.0703 163.21 -190.15 234.43 -293.271c54.0801 96.2695 108.2 192.5 162.33 288.77zM328.108 52.2471
c-2.20996 -4.34961 -1.17969 -4.24023 0 0zM421.868 37.9463c0.519531 -2.09961 0.370117 -1.65039 0 0zM276.819 727.125c-61.71 0 -61.6299 95.79 0 95.79c61.75 0 61.6396 -95.79 0 -95.79zM454.369 741.165c-43.6602 -43.6602 -111.38 24.0996 -67.75 67.75
l2.10059 2.10059c43.6904 43.6602 111.41 -24.0898 67.75 -67.75z" />
    <glyph glyph-name="Zcaron" unicode="&#x17d;" horiz-adv-x="640" 
d="M555.562 48.5303c60.0195 -14.4805 34.4521 -106.852 -25.458 -92.3711c-106.03 25.6104 -213.61 30.8408 -319.98 4.7207c-39.2402 -9.62012 -100.36 -41.4102 -128.25 5.22949c-29.0996 48.71 45.1406 113.99 70.4502 147.11
c103.75 135.66 198.76 277.54 290.279 421.63c-115.65 -9.36035 -230.641 -7.59082 -346.98 6.22949c-60.5703 7.17969 -61.0898 103.05 0 95.79c147.51 -17.5 292.779 -16.4004 439.97 3.31934c36.7002 4.92969 58.7998 -44.0703 41.3398 -72.0703
c-97.75 -156.84 -198.73 -311.8 -309.221 -459.979c-9.9502 -13.3701 -19.8203 -27.96 -29.96 -42.5195c15.29 1.62012 27.8604 2.73047 33.8604 3.4707c95.5 11.71 190.7 1.9502 283.95 -20.5596zM334.806 732.479c-61.0098 0.219727 -107.989 82.9688 -143.279 121.909
c-41.2998 45.6504 26.2998 113.551 67.75 67.751c21.7695 -24.0195 42.5498 -48.8896 64.1094 -73.0898c3.45996 -3.87012 9.09961 -8.33008 13.6992 -12.2705c6.15039 5.19043 13.8604 10.5703 16.5801 13.1104c22.7002 20.9697 45.3203 41.9297 68.71 62.1201
c46.46 40.0898 114.47 -27.4102 67.7197 -67.75c-40.0498 -34.5596 -95.8994 -112 -155.289 -111.78zM328.687 827.459c-4.0498 -0.669922 -1.32031 -3.09961 0 0z" />
    <glyph glyph-name="zcaron" unicode="&#x17e;" horiz-adv-x="533" 
d="M436.711 144.97c61.4902 5.49023 60.9307 -90.3701 0.000976562 -95.8604c-97.75 -8.7002 -194.79 -25.0898 -292.5 -33.4902c-42.7002 -3.69043 -99.5098 4.75 -92.5098 61.9297c5.55957 45.5 63.1797 88.0195 91.7695 119.329
c58.6602 64.1797 112.34 132.01 162.109 202.93c-69.7803 -1.13965 -139.561 -2.31934 -209.341 -3.49902c-61.75 -1.03027 -61.5596 94.7598 0 95.79c100.1 1.7002 200.17 3.36035 300.27 5.05078c35.2598 0.589844 61.1201 -41.5205 41.3701 -72.0605
c-55.2998 -85.5195 -115.42 -167.859 -181.74 -245.229c-14.4102 -16.7998 -30.7598 -39.1602 -48.2295 -60.6797c76.1602 9.62012 152.271 18.9805 228.801 25.79zM110.611 110.01c0.549805 0.660156 2.58105 0.400391 4.68066 0.0703125
c-1.66016 1.25 -3.28027 1.62012 -4.68066 -0.0703125zM235.843 527.95c-53.2002 -0.110352 -89.1221 69.3037 -118.302 104.273c-39.3096 47.0098 28.1504 115.09 67.71 67.71c17.3203 -20.7002 33.7207 -42.1104 50.8809 -62.8906
c0.299805 -0.400391 0.629883 -0.770508 0.959961 -1.14062c0.219727 0.219727 0.589844 0.479492 0.780273 0.699219c18.71 19.5596 37.0195 39.3799 56.25 58.4297c43.8799 43.4004 111.64 -24.3096 67.7598 -67.75
c-32.3096 -31.9805 -74.2793 -99.2607 -126.039 -99.3311z" />
    <glyph glyph-name="circumflex" unicode="&#x2c6;" horiz-adv-x="448" 
d="M386.303 603.04c38.46 -47.4902 -28.9219 -115.62 -67.7217 -67.7598c-23.9805 29.6602 -46.75 60.2402 -70.5898 90.0098c-4.71973 5.92969 -11.9697 12.3398 -15.9502 19.0498c-5.16016 -4.87012 -14.0801 -11.5703 -15.8799 -13.2305
c-27.5195 -25.3799 -54.5293 -51.1699 -82.7891 -75.7803c-46.3496 -40.3496 -114.319 27.1904 -67.749 67.75c42.5195 37.0303 105.3 125.011 169.14 123.9c67.0596 -1.17969 115.84 -99.8398 151.54 -143.939zM229.9 647.62c-9.58008 17.1602 -5.53027 1.40039 0 0z" />
    <glyph glyph-name="caron" unicode="&#x2c7;" horiz-adv-x="463" 
d="M320.628 755.75c36.6602 48.6699 119.819 0.878906 82.7197 -48.3809c-30.21 -40.0801 -57.2197 -82.8203 -88.54 -122.021c-17.0898 -21.4004 -36.1396 -40.8203 -64.7295 -43.9102c-31.7197 -3.42969 -56.1494 15.1406 -78.4697 35.291
c-37.0996 33.4502 -70.5898 71.1104 -106.88 105.521c-44.8799 42.5498 22.9902 110.16 67.71 67.75c29.3701 -27.8096 57.5898 -56.6299 86.1797 -85.2197c3.53027 -3.53027 14.5898 -11.6699 21.3301 -18.4502c4.96973 6.15039 11.3096 13.1504 12.4199 14.6602
c22.7598 31.6104 44.8301 63.6299 68.2598 94.7598zM245.247 639.139c3.9502 -16.4697 2.07031 -0.370117 -0.729492 1.11035c0.139648 -0.330078 0.65918 -0.810547 0.729492 -1.11035z" />
    <glyph glyph-name="ilde" unicode="&#x2dc;" horiz-adv-x="574" 
d="M504.979 738.14c51.6904 -95.2803 -6.71094 -237.078 -128.811 -225.258c-49.4805 4.83008 -88.5303 38.5801 -121.721 72.7998c-10.9502 11.2803 -21.8506 31.0303 -35.041 38.9102c-41.0098 24.46 -82.5693 -11.8604 -73.5791 -55.2607
c12.4902 -60.2402 -79.8701 -85.7705 -92.3604 -25.4609c-20.8203 100.25 54.3799 201.97 163.58 182.52c43.0703 -7.66992 67.5 -32.46 95.8604 -62.8203c15.5498 -16.6504 33.4199 -40.4199 54.9004 -49.2998c46.9697 -19.3799 76.04 35.7002 54.4502 75.5303
c-29.4297 54.2305 53.3105 102.53 82.7207 48.3398z" />
    <glyph glyph-name="endash" unicode="&#x2013;" horiz-adv-x="504" 
d="M406.871 358.71c61.75 1.99023 61.4902 -93.8398 0 -95.79c-103.56 -3.28027 -207.09 -6.60059 -310.66 -9.88086c-61.7402 -1.9502 -61.4902 93.8398 0 95.79c103.57 3.28027 207.101 6.60059 310.66 9.88086z" />
    <glyph glyph-name="emdash" unicode="&#x2014;" horiz-adv-x="819" 
d="M722.16 322.05c61.5596 -2.32031 61.6396 -98.1104 0 -95.79c-208.64 7.76953 -417.279 15.5098 -625.959 23.2793c-61.5596 2.29004 -61.6396 98.0801 0 95.79c208.64 -7.76953 417.319 -15.5098 625.959 -23.2793z" />
    <glyph glyph-name="quoteleft" unicode="&#x2018;" horiz-adv-x="233" 
d="M168.229 595.41c-22.7305 -18.46 -33.3018 -47.7783 -11.8213 -72.2783c40.4902 -46.2402 -27.04 -114.221 -67.7598 -67.7607c-53.2695 60.79 -53.4492 154.71 11.8311 207.8c20.1504 16.3496 47.9004 19.8496 67.75 0c16.9902 -16.9902 20.0801 -51.4404 0 -67.7607z
" />
    <glyph glyph-name="quoteright" unicode="&#x2019;" horiz-adv-x="235" 
d="M132.311 660.55c57.21 -54.9697 68.7812 -144.389 27.4111 -212.068c-32.0898 -52.6104 -114.91 -4.41992 -82.71 48.3398c19.5996 32.0898 14.6592 69.9297 -12.4609 95.9795c-44.54 42.8096 23.29 110.449 67.7598 67.749z" />
    <glyph glyph-name="quotesinglbase" unicode="&#x201a;" horiz-adv-x="274" 
d="M215.43 104.96c28.4805 -77.1904 -22.9609 -167.448 -105.041 -179.608c-25.6797 -3.79004 -51.3594 6.00977 -58.9092 33.46c-6.26953 22.7598 7.85059 55.1094 33.4502 58.9092c36.5098 5.37988 49.7002 30.4697 38.1299 61.7793
c-8.99023 24.3896 10.0996 52.5 33.46 58.9102c26.4502 7.25977 49.96 -9.20996 58.9102 -33.4502z" />
    <glyph glyph-name="quoteleftreversed" unicode="&#x201b;" horiz-adv-x="229" 
d="M162.924 580.56c45.6904 -41.6299 -22.25 -109.199 -67.71 -67.749c-59.3604 54.1201 -59.0303 142.32 -6.2998 200.42c41.5195 45.7998 109.05 -22.1406 67.71 -67.7109c-19.1201 -21.0801 -13.2998 -47.0898 6.2998 -64.96z" />
    <glyph glyph-name="quotedblleft" unicode="&#x201c;" horiz-adv-x="378" 
d="M152.841 634.44c-19.5303 -39.0596 -2.9082 -81.7207 29.5518 -107.291c20.2998 -15.9502 16.7998 -51.25 0 -67.7197c-20.04 -19.5996 -47.2705 -16.1299 -67.7607 0c-67.4502 53.1299 -81.79 148.66 -44.5 223.34c27.5596 55.2305 110.159 6.6709 82.709 -48.3291z
M315.323 546.899c40.2305 -46.3896 -27.2686 -114.36 -67.7588 -67.7207c-53.9004 62.1504 -64.5801 145.2 -27.7803 218.88c27.5596 55.1904 110.159 6.63086 82.7188 -48.3691c-16.5098 -33.0898 -11.46 -74.79 12.8203 -102.79z" />
    <glyph glyph-name="quotedblright" unicode="&#x201d;" horiz-adv-x="359" 
d="M57.6982 624.77c-33.2002 52.2402 49.7285 100.251 82.709 48.3311c34.2197 -53.9004 42.5098 -121.65 20.7002 -181.851c-20.8896 -57.6201 -113.399 -32.6104 -92.3594 25.46c13.7803 38.0195 10.6807 73.8291 -11.0498 108.06zM276.467 682.351
c39.4902 -57.7695 40.75 -128.801 12.1201 -191.141c-10.8701 -23.6104 -44.9102 -29.25 -65.54 -17.1699c-23.8398 13.9697 -27.9697 42.04 -17.1699 65.5498c14.7002 31.9805 7 66.5 -12.1201 94.4199c-34.9297 51.0703 48.1104 98.9307 82.71 48.3408z" />
    <glyph glyph-name="quotedblbase" unicode="&#x201e;" horiz-adv-x="376" 
d="M130.033 158.23c27.1504 7.48047 49.041 -9.54004 58.9111 -33.4502c26.2002 -63.3301 -5.78027 -142.58 -66.3203 -172.97c-55 -27.5996 -103.45 55.04 -48.3301 82.71c27.3701 13.7402 32.8203 39.2705 22.29 64.8008c-9.9502 24.0596 10.8594 52.7295 33.4492 58.9092
zM320.034 125.56c13 -61.9404 3.78906 -124.351 -30.1006 -178.211c-32.7598 -52.1396 -115.62 -4.01953 -82.7197 48.3301c20.0098 31.8398 28.2598 67.21 20.4502 104.42c-12.6699 60.2305 79.6904 85.7305 92.3701 25.4609z" />
    <glyph glyph-name="dagger" unicode="&#x2020;" horiz-adv-x="498" 
d="M401.316 569.21c61.75 0.339844 61.5986 -95.4473 -0.000976562 -95.8174c-28.5498 -0.150391 -57.1396 -0.330078 -85.6992 -0.480469c-2.98047 -161.96 -6 -323.92 -9.01953 -485.88c-1.13965 -61.6797 -96.9395 -61.6797 -95.7891 0
c2.98047 161.77 6 323.55 9.01953 485.33c-41.1904 -0.230469 -82.3809 -0.450195 -123.571 -0.669922c-61.75 -0.330078 -61.5996 95.46 0 95.79c41.8203 0.259766 83.6006 0.479492 125.381 0.699219c1.03027 55.6699 2.06055 111.31 3.09082 166.97
c1.15039 61.6797 96.9404 61.6797 95.79 0c-1.03027 -55.4404 -2.06055 -110.931 -3.09082 -166.411c27.96 0.179688 55.9297 0.330078 83.8896 0.469727z" />
    <glyph glyph-name="daggerdbl" unicode="&#x2021;" horiz-adv-x="543" 
d="M446.28 467.23c-54.0898 3.05957 -108.171 6.07617 -162.261 9.13574c-0.0400391 -56.8496 -0.110352 -113.729 -0.150391 -170.579c43.4404 2.98047 86.9102 5.93066 130.351 8.9209c61.6396 4.2002 61.1592 -91.5996 -0.000976562 -95.7998
c-43.4697 -2.94043 -86.9502 -5.93066 -130.42 -8.91113c-0.0703125 -72.1797 -0.110352 -144.35 -0.180664 -216.529c-0.0400391 -61.7402 -95.8301 -61.6299 -95.7998 0c0.0800781 70.0098 0.110352 139.97 0.19043 209.97
c-30.6504 -2.09961 -61.3105 -4.19922 -91.9609 -6.29883c-61.6396 -4.2002 -61.1592 91.5898 0.000976562 95.79c30.6504 2.09961 61.3408 4.19922 92.0312 6.29883c0.0400391 60.8301 0.110352 121.69 0.150391 182.521
c-29.5498 1.66016 -59.0596 3.32031 -88.6094 4.9707c-61.3799 3.46973 -61.5996 99.2598 0 95.7998c29.5498 -1.66016 59.1396 -3.32031 88.6797 -4.98047c0.0400391 49.3701 0.0800781 98.7402 0.110352 148.11c0.0400391 61.75 95.8301 61.6396 95.79 0
c-0.0302734 -51.1797 -0.0703125 -102.31 -0.110352 -153.489c54.0898 -3.05957 108.14 -6.0791 162.189 -9.12891c61.3799 -3.46973 61.5996 -99.2598 0 -95.7998z" />
    <glyph glyph-name="bullet" unicode="&#x2022;" horiz-adv-x="285" 
d="M142.527 450.67c123.46 0 123.28 -191.59 0 -191.59c-123.46 0 -123.28 191.59 0 191.59z" />
    <glyph glyph-name="ellipsis" unicode="&#x2026;" horiz-adv-x="512" 
d="M50 83.4072c0 61.748 95.791 61.6377 95.791 0v-3.20508c0 -61.748 -95.791 -61.6377 -95.791 0v3.20508zM298.725 123.676c1.10547 -1.06836 2.17383 -2.13672 3.20508 -3.20508c43.6953 -43.6582 -24.0586 -111.375 -67.7168 -67.7168l-3.20508 3.20508
c-43.6953 43.6582 24.0586 111.375 67.7168 67.7168zM415.811 137.713c61.748 0 61.6377 -95.791 0 -95.791c-61.748 0 -61.6377 95.791 0 95.791z" />
    <glyph glyph-name="perthousand" unicode="&#x2030;" horiz-adv-x="1068" 
d="M519.92 677.76c34.1201 51.0703 117.09 3.05859 82.71 -48.3311c-135.8 -203.3 -257.01 -414.7 -363.779 -634.62c-26.9404 -55.5195 -109.54 -6.88965 -82.71 48.3408c106.77 219.95 227.939 431.32 363.779 634.61zM1010.33 187.647
c24.3203 -76.4199 -20.1914 -158.612 -94.8311 -184.223c-74.9004 -25.6797 -158.79 15.8506 -185.5 89.9707c-25.3896 70.4805 8.43066 152.311 76.4502 183.48c0.700195 0.44043 1.46973 0.810547 2.20996 1.2207
c0.0703125 0.0302734 0.140625 0.110352 0.250977 0.140625c0 0.0400391 0.0400391 0.0400391 0.0800781 0.0400391c2.42969 1.40039 4.89941 2.73047 7.72949 3.79004c78.6602 29.4004 168.15 -14.3301 193.61 -94.4199zM882.448 93.3252
c69.71 19.7803 34.0801 115.5 -32.71 98.4102c-23.0303 -12.4902 -38.1406 -33.46 -30.9502 -61.7197c7.07031 -27.8496 36.1406 -44.5 63.6602 -36.6904zM470.698 282.065c78.6904 29.3701 168.148 -14.332 193.639 -94.4219
c24.3203 -76.4102 -20.1895 -158.61 -94.8691 -184.221c-74.9004 -25.6797 -158.79 15.8506 -185.5 89.9707c-25.3799 70.4805 8.44043 152.311 76.4502 183.48c0.700195 0.44043 1.46973 0.810547 2.20996 1.2207c0.0703125 0.0302734 0.150391 0.110352 0.260742 0.140625
c0 0.0400391 0.0302734 0.0400391 0.0703125 0.0400391c2.42969 1.40039 4.89941 2.73047 7.73926 3.79004zM536.427 93.3232c69.7002 19.7803 34.0693 115.5 -32.7207 98.4102c-23.0303 -12.4902 -38.1299 -33.46 -30.9502 -61.7197
c7.07031 -27.8496 36.1406 -44.5 63.6709 -36.6904zM243.886 445.354c-74.8604 -25.6797 -158.792 15.8379 -185.462 89.9678c-25.3896 70.4805 8.44043 152.311 76.4502 183.48c0.700195 0.44043 1.46973 0.850586 2.20996 1.25098
c0.0703125 0.0400391 0.180664 0.110352 0.260742 0.150391c0 0.0302734 0.0302734 0.0302734 0.0703125 0.0302734c2.42969 1.37012 4.89941 2.73047 7.73926 3.80078c78.6602 29.3604 168.15 -14.3701 193.601 -94.4697
c24.3203 -76.4102 -20.1895 -158.601 -94.8691 -184.211zM147.214 571.981c7.07031 -27.8496 36.1406 -44.5098 63.7002 -36.7002c69.6699 19.79 34.0801 115.51 -32.75 98.4102c-23.0303 -12.4902 -38.1406 -33.4502 -30.9502 -61.71z" />
    <glyph glyph-name="guilsinglleft" unicode="&#x2039;" horiz-adv-x="405" 
d="M285.369 471.7c50.1104 36.2197 97.8623 -46.9307 48.3818 -82.7109c-53.5703 -38.7598 -107.141 -77.4795 -160.711 -116.239c49.6602 -46.1602 99.3604 -92.3604 149.03 -138.53c45.2803 -42.1104 -22.6201 -109.681 -67.7197 -67.751
c-63.4404 58.9902 -126.881 117.971 -190.331 176.921c-24.46 22.7305 -14.1396 57.9902 9.69043 75.2305c70.5596 51.0303 141.109 102.061 211.659 153.08z" />
    <glyph glyph-name="guilsinglright" unicode="&#x203a;" horiz-adv-x="405" 
d="M330.867 318.59c23.8398 -17.21 34.1611 -52.4697 9.73145 -75.2393c-63.4404 -58.9805 -126.891 -117.931 -190.331 -176.921c-45.0898 -41.9199 -112.96 25.6797 -67.7197 67.7598c49.6699 46.1602 99.3701 92.3604 149.03 138.53
c-53.5703 38.75 -107.141 77.4805 -160.711 116.24c-49.5498 35.8398 -1.68945 118.89 48.3408 82.71c70.5596 -51.0303 141.109 -102.061 211.659 -153.08z" />
    <glyph glyph-name="fraction" unicode="&#x2044;" horiz-adv-x="738" 
d="M594.974 741.28c36.9902 48.3799 120.151 0.589844 82.7109 -48.3398c-178.5 -233.65 -357 -467.271 -535.5 -700.891c-36.96 -48.4102 -120.15 -0.629883 -82.7207 48.3398c178.51 233.65 357.01 467.271 535.51 700.891z" />
    <glyph glyph-name="Euro" unicode="&#x20ac;" horiz-adv-x="655" 
d="M516.336 152.23c26.9004 55.5195 109.458 6.88965 82.6777 -48.3008c-49.5195 -102.24 -170.579 -134.74 -271.609 -90.1602c-87.3896 38.5801 -135.029 117.2 -154.589 204.771c-25.5303 -0.290039 -51.0303 -0.549805 -76.5605 -0.839844
c-61.75 -0.700195 -61.5996 95.1201 0 95.79c22 0.259766 43.9902 0.479492 65.9902 0.729492c-0.219727 20.3799 0.700195 40.6396 2.7998 60.4297c-19.9697 0.549805 -39.9795 1.09961 -59.9795 1.68945c-61.5996 1.76953 -61.6797 97.5596 0 95.79
c26.8896 -0.769531 53.8193 -1.5498 80.7197 -2.31934c28.7695 86.3604 84.6992 164.061 170.619 200.061c88.9404 37.2402 189.891 10.2402 229.341 -82.4199c23.9102 -56.1104 -58.6094 -104.891 -82.709 -48.3408c-23.5 55.1201 -70 63.8506 -121.69 37.2109
c-44.1699 -22.7695 -75.2295 -63.6191 -95.1592 -109.35c70.6602 -2.01953 141.32 -4.00977 211.99 -6.04004c61.5996 -1.76953 61.6699 -97.5596 0 -95.79c-79.1396 2.25 -158.239 4.53027 -237.379 6.78027c-2.38965 -18.2402 -3.83008 -37.1699 -3.83008 -56.6602
c51.9102 0.549805 103.86 1.13965 155.811 1.68945c61.75 0.660156 61.5996 -95.1299 0 -95.79c-47.5303 -0.549805 -95.0205 -1.06934 -142.511 -1.5791c13.2598 -44.5498 37.1396 -84.3701 77.6592 -109.101c61.6797 -37.6104 136.1 -24.9404 168.409 41.75z" />
    <glyph glyph-name="trademark" unicode="&#x2122;" horiz-adv-x="780" 
d="M313.481 707.23c61.7402 1.83984 61.4902 -93.9502 0 -95.8301c-18.5703 -0.55957 -37.1807 -1.10938 -55.751 -1.65918c5.86035 -59.7197 11.6807 -119.479 17.541 -179.199c6.00977 -61.4199 -89.8604 -60.79 -95.79 0c-5.75 58.7998 -11.5 117.6 -17.2402 176.359
c-22.04 -0.660156 -44.0303 -1.32031 -66.0303 -1.99023c-61.7402 -1.83984 -61.4902 93.9502 0 95.79c72.4404 2.17969 144.83 4.34961 217.271 6.5293zM729.062 448.261c11.2402 -60.3496 -81.0898 -85.9893 -92.3594 -25.499
c-8.74023 47.0498 -16.3604 94.2803 -23.7705 141.59c-11.3398 -19.1602 -22.4297 -38.4297 -34.2998 -57.29c-18.79 -29.8799 -64.4404 -32.1602 -82.71 0c-7.99023 14.04 -15.3301 28.3701 -22.9502 42.5498c-7 -44.6904 -14.1504 -89.3008 -22.2207 -133.811
c-11.0098 -60.6797 -103.31 -34.8193 -92.3594 25.4609c12.1904 67.2002 21.2207 134.88 33.0811 202.12c5.16016 29.21 10.8301 62.7803 41.4502 75.7803c46.0195 19.4902 82.3096 -33.71 108.869 -86.3203c10.2402 17.6104 20.4502 35.2607 31.7598 52.1006
c17.1699 25.5596 40.9297 51.3896 75.2295 40.9297c35.1104 -10.6904 41.96 -48.3809 47.4502 -79.6211c11.6104 -65.8701 20.5605 -132.19 32.8301 -197.99zM425.151 638.851c-1.37012 5.00977 -1.5498 -2.2207 -0.370117 -0.260742
c0.0703125 0.110352 0.290039 0.180664 0.370117 0.260742z" />
    <glyph glyph-name="minus" unicode="&#x2212;" horiz-adv-x="498" 
d="M400.918 320.76c61.6797 -0.769531 61.6396 -96.5703 0 -95.79c-101.54 1.20996 -203.11 2.42969 -304.65 3.64941c-61.71 0.730469 -61.6699 96.5205 0 95.79c101.54 -1.21973 203.11 -2.42969 304.65 -3.64941z" />
    </font>
</defs>
</svg>
